<svg id="Layer_1" data-name="Layer 1" xmlns="http://www.w3.org/2000/svg" viewBox="0 0 2000 2000"><defs><style>.cls-1{opacity:0.3;}.cls-2{fill:#c1924d;}.cls-3{fill:#f8f8f8;}.cls-4{fill:#fd5a39;}.cls-5{fill:#d1d1d1;}.cls-6{fill:#4a7f91;}.cls-7{opacity:0.25;}.cls-8{fill:#eabb7d;}.cls-9{fill:#e5e5e5;}.cls-10{fill:#af8043;}.cls-11{fill:#ff9a15;}</style></defs><title>MEDICATION UPDATED</title><path class="cls-1" d="M1489.22,569.16l-161.78-18.9,1.17-6.53a8.15,8.15,0,0,0-6.6-9.45l-106.73-19.09a41.44,41.44,0,0,0-32.39-55.51,42.36,42.36,0,0,0-49.15,34.21,41.37,41.37,0,0,0-.5,6.63l-106.72-19.09A8.16,8.16,0,0,0,1017,488l-4.55,25.44L796.24,488.18A9.23,9.23,0,0,0,786,496.27L681.41,1391.18a9.24,9.24,0,0,0,8.1,10.27l515,60.19-16,28.22a8.43,8.43,0,0,0,3.17,11.5l16.47,9.38a8.44,8.44,0,0,0,11.49-3.17l23.54-41.42,139.31,16.28a9.23,9.23,0,0,0,10.26-8.12l38.35-328.16,26.23-46.14a8.41,8.41,0,0,0-3.16-11.47l-15.32-8.7,58.48-500.44A9.22,9.22,0,0,0,1489.22,569.16Zm-334-72.92A20.79,20.79,0,1,1,1172,520.38,20.79,20.79,0,0,1,1155.22,496.24Z"/><path class="cls-2" d="M1374.81,1456.37a9.23,9.23,0,0,1-10.25,8.13l-693-81a9.23,9.23,0,0,1-8.1-10.27l104.58-894.9a9.24,9.24,0,0,1,10.25-8.1l693,81a9.23,9.23,0,0,1,8.11,10.24Z"/><rect class="cls-3" x="669.53" y="664.72" width="803.8" height="605.29" transform="translate(-13.76 1919.27) rotate(-83.33)"/><path class="cls-4" d="M1304.07,516.34l-106.72-19.08a41.43,41.43,0,0,0,1.82-6.39,42.36,42.36,0,1,0-83.87-8.29l-106.72-19.09a8.15,8.15,0,0,0-9.47,6.58L993,504.24a8.15,8.15,0,0,0,6.6,9.48l295.49,52.85a8.15,8.15,0,0,0,9.47-6.61l6.11-34.16A8.15,8.15,0,0,0,1304.07,516.34Zm-150-13.89a20.79,20.79,0,1,1,24.12-16.83A20.8,20.8,0,0,1,1154.09,502.45Z"/><path class="cls-4" d="M1148.06,674.92l-29.68-3.47,3.47-29.7a4.27,4.27,0,0,0-3.75-4.72l-21.2-2.48a4.27,4.27,0,0,0-4.74,3.74L1088.69,668,1059,664.52a4.24,4.24,0,0,0-4.73,3.73l-2.47,21.19a4.25,4.25,0,0,0,3.74,4.72l29.67,3.47-3.47,29.7a4.29,4.29,0,0,0,3.75,4.75l21.21,2.48a4.28,4.28,0,0,0,4.73-3.76l3.47-29.7,29.69,3.47a4.27,4.27,0,0,0,4.73-3.73l2.47-21.19A4.25,4.25,0,0,0,1148.06,674.92Z"/><rect class="cls-5" x="1077.92" y="675.68" width="27.35" height="192.45" transform="translate(198.2 1766.53) rotate(-83.33)"/><rect class="cls-5" x="1067.64" y="628.12" width="27.35" height="509.26" transform="translate(79.02 1854.3) rotate(-83.33)"/><rect class="cls-5" x="1058.86" y="703.19" width="27.37" height="509.26" transform="translate(-3.3 1911.94) rotate(-83.33)"/><rect class="cls-5" x="1050.1" y="778.26" width="27.34" height="509.26" transform="translate(-85.61 1969.58) rotate(-83.33)"/><rect class="cls-5" x="1041.35" y="853.34" width="27.3" height="509.26" transform="translate(-167.94 2027.23) rotate(-83.33)"/><rect class="cls-5" x="1032.55" y="928.39" width="27.35" height="509.26" transform="translate(-250.23 2084.85) rotate(-83.33)"/><path class="cls-6" d="M1201.7,1489.64a8.44,8.44,0,0,1-11.48,3.16l-16.48-9.37a8.45,8.45,0,0,1-3.17-11.51L1376,1110.51a8.42,8.42,0,0,1,11.48-3.15l16.49,9.36a8.42,8.42,0,0,1,3.16,11.5Z"/><path class="cls-4" d="M1370.64,1203a8.42,8.42,0,0,1-11.48,3.18l-25.65-14.56a8.45,8.45,0,0,1-3.16-11.5l68.76-121a8.4,8.4,0,0,1,11.48-3.14l25.64,14.55a8.41,8.41,0,0,1,3.16,11.47Z"/><path class="cls-7" d="M967.54,1222.07a20.62,20.62,0,0,1,1.87,29.1L833,1406.15a20.63,20.63,0,0,1-29.11,1.84l-272.6-240a20.58,20.58,0,0,1-24-2.3l-48.36-42.56a20.6,20.6,0,0,1-1.85-29.08l155.1-176.21A20.6,20.6,0,0,1,641.26,916l48.35,42.56a20.57,20.57,0,0,1,5.33,23.52Z"/><path class="cls-8" d="M825.77,1386.11a20.63,20.63,0,0,0,29.11-1.84l136.41-155a20.62,20.62,0,0,0-1.87-29.1L661.27,911.35a20.61,20.61,0,0,0-29.09,1.85l-136.41,155a20.62,20.62,0,0,0,1.85,29.09Z"/><path class="cls-9" d="M529.17,1143.86a20.58,20.58,0,0,0,29.06-1.86l155.1-176.21a20.59,20.59,0,0,0-1.84-29.07l-48.35-42.56A20.6,20.6,0,0,0,634.06,896L479,1072.22a20.6,20.6,0,0,0,1.85,29.08Z"/><path class="cls-5" d="M658.3,995.45a6.94,6.94,0,0,0,9.79-.62h0a7,7,0,0,0-.62-9.8l-46.7-41.1a6.94,6.94,0,0,0-9.81.61h0a6.93,6.93,0,0,0,.65,9.8Z"/><path class="cls-5" d="M687.23,962.58A7,7,0,0,0,697,962h0a6.94,6.94,0,0,0-.62-9.79l-46.7-41.11a7,7,0,0,0-9.82.62h0a6.94,6.94,0,0,0,.65,9.81Z"/><path class="cls-5" d="M629.37,1028.32a6.94,6.94,0,0,0,9.79-.62h0a7,7,0,0,0-.62-9.8l-46.7-41.1a6.94,6.94,0,0,0-9.81.61h0a6.93,6.93,0,0,0,.64,9.8Z"/><path class="cls-5" d="M600.43,1061.19a6.94,6.94,0,0,0,9.79-.62h0a6.92,6.92,0,0,0-.62-9.79l-46.7-41.11a6.94,6.94,0,0,0-9.81.62h0a6.93,6.93,0,0,0,.65,9.8Z"/><path class="cls-5" d="M571.5,1094.07a6.93,6.93,0,0,0,9.79-.63h0a6.93,6.93,0,0,0-.62-9.79l-46.7-41.1a6.94,6.94,0,0,0-9.81.6h0a7,7,0,0,0,.64,9.81Z"/><path class="cls-5" d="M542.56,1126.94a6.94,6.94,0,0,0,9.79-.62h0a6.94,6.94,0,0,0-.62-9.8L505,1075.42a7,7,0,0,0-9.82.61h0a7,7,0,0,0,.64,9.81Z"/><rect class="cls-10" x="606.62" y="1087.63" width="203.91" height="60.68" transform="translate(-598.78 911.19) rotate(-48.65)"/><path class="cls-7" d="M420.94,508.31l47.78,47.77a5.21,5.21,0,0,0,7.39,0l53.76-53.76,53.77,53.76a5.21,5.21,0,0,0,7.38,0l47.78-47.78a5.23,5.23,0,0,0,0-7.39L585,447.16l53.77-53.77a5.23,5.23,0,0,0,0-7.39L591,338.22a5.21,5.21,0,0,0-7.38,0L529.87,392l-53.76-53.76a5.22,5.22,0,0,0-7.39,0L420.94,386a5.21,5.21,0,0,0,0,7.38l53.76,53.76L421,500.91A5.23,5.23,0,0,0,420.94,508.31Z"/><path class="cls-7" d="M1505.68,1541l-36-36a3.93,3.93,0,0,0-5.56,0l-40.48,40.48-40.47-40.48a3.93,3.93,0,0,0-5.56,0l-36,36a3.93,3.93,0,0,0,0,5.56l40.48,40.47-40.48,40.48a3.93,3.93,0,0,0,0,5.56l36,36a3.94,3.94,0,0,0,5.57,0l40.47-40.48,40.48,40.48a3.93,3.93,0,0,0,5.56,0l36-36a3.92,3.92,0,0,0,0-5.56l-40.47-40.48,40.47-40.48A3.94,3.94,0,0,0,1505.68,1541Z"/><path class="cls-10" d="M462.82,542.8a5.2,5.2,0,0,1-7.38,0L407.66,495a5.23,5.23,0,0,1,0-7.39L570.36,325a5.21,5.21,0,0,1,7.38,0l47.77,47.78a5.23,5.23,0,0,1,0,7.39Z"/><path class="cls-11" d="M513.24,475.18c-1.78,1.77-4.86,1.54-6.9-.49l-30.57-30.56c-2-2.05-2.25-5.14-.48-6.91L520,392.57c1.77-1.77,4.85-1.56,6.89.49l30.57,30.56c2,2,2.26,5.13.49,6.89Z"/><path class="cls-8" d="M569.39,370.23a4.1,4.1,0,1,1,0-5.8A4.08,4.08,0,0,1,569.39,370.23Z"/><path class="cls-8" d="M586,386.88a4.1,4.1,0,1,1,0-5.81A4.12,4.12,0,0,1,586,386.88Z"/><path class="cls-8" d="M566.1,390.15a4.1,4.1,0,1,1,0-5.79A4.11,4.11,0,0,1,566.1,390.15Z"/><path class="cls-8" d="M463.79,497.5a4.11,4.11,0,1,1,0,5.82A4.1,4.1,0,0,1,463.79,497.5Z"/><path class="cls-8" d="M447.15,480.87a4.1,4.1,0,0,1,5.8,5.81,4.1,4.1,0,0,1-5.8-5.81Z"/><path class="cls-8" d="M467.08,477.58a4.1,4.1,0,1,1,0,5.81A4.09,4.09,0,0,1,467.08,477.58Z"/><path class="cls-2" d="M407.67,380.1a5.21,5.21,0,0,1,0-7.38l47.78-47.79a5.21,5.21,0,0,1,7.38,0L625.51,487.64a5.23,5.23,0,0,1,0,7.39l-47.77,47.78a5.21,5.21,0,0,1-7.38,0Z"/><path class="cls-8" d="M475.29,430.51c-1.77-1.76-1.56-4.86.48-6.89l30.57-30.56c2-2.05,5.12-2.26,6.9-.49l44.66,44.65c1.77,1.77,1.55,4.86-.49,6.91l-30.57,30.56c-2,2-5.12,2.26-6.89.49Z"/><path class="cls-8" d="M580.23,486.68a4.13,4.13,0,0,1,0-5.81,4.11,4.11,0,1,1,5.81,5.81A4.12,4.12,0,0,1,580.23,486.68Z"/><path class="cls-8" d="M563.59,503.32a4.1,4.1,0,1,1,5.8,0A4.11,4.11,0,0,1,563.59,503.32Z"/><path class="cls-8" d="M560.31,483.39a4.1,4.1,0,1,1,5.79,0A4.11,4.11,0,0,1,560.31,483.39Z"/><path class="cls-8" d="M453,381.07a4.1,4.1,0,1,1-5.8,0A4.11,4.11,0,0,1,453,381.07Z"/><path class="cls-8" d="M469.59,364.42a4.1,4.1,0,1,1-5.8,0A4.1,4.1,0,0,1,469.59,364.42Z"/><path class="cls-8" d="M472.88,384.37a4.1,4.1,0,1,1-5.8,0A4.1,4.1,0,0,1,472.88,384.37Z"/><path class="cls-7" d="M542,717.27l26.12,26.12a2.85,2.85,0,0,0,4,0L601.54,714l29.39,29.39a2.85,2.85,0,0,0,4,0l26.11-26.11a2.85,2.85,0,0,0,0-4l-29.39-29.39,29.39-29.39a2.85,2.85,0,0,0,0-4L635,624.3a2.86,2.86,0,0,0-4,0L601.54,653.7l-29.38-29.39a2.86,2.86,0,0,0-4,0L542,650.42a2.86,2.86,0,0,0,0,4l29.38,29.39L542,713.23A2.86,2.86,0,0,0,542,717.27Z"/><path class="cls-10" d="M564.9,736.13a2.87,2.87,0,0,1-4,0L534.74,710a2.87,2.87,0,0,1,0-4l88.93-88.92a2.86,2.86,0,0,1,4,0l26.11,26.12a2.85,2.85,0,0,1,0,4Z"/><path class="cls-11" d="M592.45,699.17a2.7,2.7,0,0,1-3.77-.27L572,682.19a2.69,2.69,0,0,1-.26-3.77L596.12,654a2.68,2.68,0,0,1,3.77.27l16.7,16.7a2.68,2.68,0,0,1,.27,3.77Z"/><path class="cls-8" d="M623.14,641.8a2.25,2.25,0,1,1,0-3.17A2.23,2.23,0,0,1,623.14,641.8Z"/><path class="cls-8" d="M632.24,650.9a2.25,2.25,0,1,1,0-3.18A2.23,2.23,0,0,1,632.24,650.9Z"/><path class="cls-8" d="M621.35,652.69a2.24,2.24,0,1,1,0-3.17A2.25,2.25,0,0,1,621.35,652.69Z"/><path class="cls-8" d="M565.42,711.37a2.25,2.25,0,1,1,0,3.18A2.26,2.26,0,0,1,565.42,711.37Z"/><path class="cls-8" d="M556.33,702.28a2.24,2.24,0,0,1,3.17,3.17,2.24,2.24,0,1,1-3.17-3.17Z"/><path class="cls-8" d="M567.22,700.48a2.25,2.25,0,1,1,0,3.17A2.23,2.23,0,0,1,567.22,700.48Z"/><path class="cls-2" d="M534.75,647.2a2.86,2.86,0,0,1,0-4L560.86,617a2.86,2.86,0,0,1,4,0L653.82,706a2.85,2.85,0,0,1,0,4l-26.11,26.11a2.87,2.87,0,0,1-4,0Z"/><path class="cls-8" d="M571.71,674.75A2.69,2.69,0,0,1,572,671l16.71-16.7a2.68,2.68,0,0,1,3.77-.27l24.41,24.41a2.68,2.68,0,0,1-.27,3.77l-16.7,16.71a2.7,2.7,0,0,1-3.77.27Z"/><path class="cls-8" d="M629.07,705.45a2.24,2.24,0,1,1,3.17,0A2.23,2.23,0,0,1,629.07,705.45Z"/><path class="cls-8" d="M620,714.55a2.24,2.24,0,1,1,3.17,0A2.25,2.25,0,0,1,620,714.55Z"/><path class="cls-8" d="M618.18,703.65a2.24,2.24,0,1,1,3.17,0A2.23,2.23,0,0,1,618.18,703.65Z"/><path class="cls-8" d="M559.5,647.72a2.25,2.25,0,1,1-3.17,0A2.25,2.25,0,0,1,559.5,647.72Z"/><path class="cls-8" d="M568.59,638.62a2.25,2.25,0,1,1-3.17,3.18,2.25,2.25,0,0,1,3.17-3.18Z"/><path class="cls-8" d="M570.39,649.53a2.24,2.24,0,1,1-3.17,0A2.24,2.24,0,0,1,570.39,649.53Z"/><path class="cls-7" d="M845.19,431.13l16.67,16.67a1.83,1.83,0,0,0,2.58,0L883.2,429,902,447.8a1.83,1.83,0,0,0,2.58,0l16.66-16.67a1.81,1.81,0,0,0,0-2.58l-18.76-18.76L921.2,391a1.81,1.81,0,0,0,0-2.58l-16.66-16.67a1.83,1.83,0,0,0-2.58,0L883.2,390.54l-18.76-18.76a1.83,1.83,0,0,0-2.58,0l-16.67,16.67a1.83,1.83,0,0,0,0,2.58L864,409.79l-18.76,18.76A1.83,1.83,0,0,0,845.19,431.13Z"/><path class="cls-10" d="M859.8,443.16a1.8,1.8,0,0,1-2.57,0l-16.67-16.67a1.81,1.81,0,0,1,0-2.58l56.76-56.76a1.84,1.84,0,0,1,2.58,0l16.67,16.68a1.83,1.83,0,0,1,0,2.58Z"/><path class="cls-11" d="M877.39,419.57a1.71,1.71,0,0,1-2.4-.17l-10.67-10.67a1.72,1.72,0,0,1-.17-2.4l15.59-15.59a1.72,1.72,0,0,1,2.4.17l10.67,10.67A1.72,1.72,0,0,1,893,404Z"/><path class="cls-8" d="M897,383a1.44,1.44,0,1,1,0-2A1.44,1.44,0,0,1,897,383Z"/><path class="cls-8" d="M902.79,388.76a1.43,1.43,0,1,1,0-2A1.42,1.42,0,0,1,902.79,388.76Z"/><path class="cls-8" d="M895.84,389.9a1.43,1.43,0,1,1,0-2A1.44,1.44,0,0,1,895.84,389.9Z"/><path class="cls-8" d="M860.14,427.36a1.44,1.44,0,1,1,0,2A1.44,1.44,0,0,1,860.14,427.36Z"/><path class="cls-8" d="M854.33,421.55a1.44,1.44,0,1,1,0,2A1.46,1.46,0,0,1,854.33,421.55Z"/><path class="cls-8" d="M861.29,420.41a1.43,1.43,0,1,1,0,2A1.42,1.42,0,0,1,861.29,420.41Z"/><path class="cls-2" d="M840.56,386.4a1.83,1.83,0,0,1,0-2.58l16.67-16.68a1.83,1.83,0,0,1,2.57,0l56.77,56.77a1.83,1.83,0,0,1,0,2.58L899.9,443.17a1.82,1.82,0,0,1-2.58,0Z"/><path class="cls-8" d="M864.15,404a1.72,1.72,0,0,1,.17-2.4L875,390.91a1.71,1.71,0,0,1,2.4-.17L893,406.33a1.72,1.72,0,0,1-.17,2.4L882.14,419.4a1.71,1.71,0,0,1-2.4.17Z"/><path class="cls-8" d="M900.77,423.58a1.43,1.43,0,1,1,2,0A1.44,1.44,0,0,1,900.77,423.58Z"/><path class="cls-8" d="M895,429.39a1.44,1.44,0,0,1,2-2,1.46,1.46,0,0,1,0,2A1.44,1.44,0,0,1,895,429.39Z"/><path class="cls-8" d="M893.82,422.43a1.43,1.43,0,1,1,2,0A1.42,1.42,0,0,1,893.82,422.43Z"/><path class="cls-8" d="M856.36,386.73a1.44,1.44,0,1,1-2,0A1.44,1.44,0,0,1,856.36,386.73Z"/><path class="cls-8" d="M862.17,380.92a1.44,1.44,0,1,1-2,0A1.44,1.44,0,0,1,862.17,380.92Z"/><path class="cls-8" d="M863.31,387.88a1.43,1.43,0,1,1-2,0A1.44,1.44,0,0,1,863.31,387.88Z"/><path class="cls-10" d="M1373.21,1659.06a3.94,3.94,0,0,1-5.57,0l-36-36a3.93,3.93,0,0,1,0-5.56l122.48-122.48a3.93,3.93,0,0,1,5.56,0l36,36a3.94,3.94,0,0,1,0,5.57Z"/><path class="cls-11" d="M1411.16,1608.15a3.7,3.7,0,0,1-5.19-.37l-23-23a3.71,3.71,0,0,1-.36-5.2l33.62-33.62a3.69,3.69,0,0,1,5.19.37l23,23a3.69,3.69,0,0,1,.37,5.19Z"/><path class="cls-8" d="M1453.43,1529.14a3.09,3.09,0,1,1,0-4.36A3.07,3.07,0,0,1,1453.43,1529.14Z"/><path class="cls-8" d="M1466,1541.68a3.09,3.09,0,1,1,0-4.38A3.1,3.1,0,0,1,1466,1541.68Z"/><path class="cls-8" d="M1451,1544.14a3.09,3.09,0,1,1,0-4.36A3.1,3.1,0,0,1,1451,1544.14Z"/><path class="cls-8" d="M1373.93,1625a3.09,3.09,0,1,1,0,4.37A3.08,3.08,0,0,1,1373.93,1625Z"/><path class="cls-8" d="M1361.41,1612.44a3.09,3.09,0,1,1,0,4.36A3.05,3.05,0,0,1,1361.41,1612.44Z"/><path class="cls-8" d="M1376.41,1610a3.09,3.09,0,1,1,0,4.37A3.07,3.07,0,0,1,1376.41,1610Z"/><path class="cls-2" d="M1331.68,1536.58a3.93,3.93,0,0,1,0-5.56l36-36a3.93,3.93,0,0,1,5.56,0l122.47,122.49a3.92,3.92,0,0,1,0,5.56l-36,36a3.93,3.93,0,0,1-5.56,0Z"/><path class="cls-8" d="M1382.59,1574.53a3.7,3.7,0,0,1,.36-5.19l23-23a3.69,3.69,0,0,1,5.19-.37l33.62,33.62a3.71,3.71,0,0,1-.37,5.2l-23,23a3.7,3.7,0,0,1-5.19.37Z"/><path class="cls-8" d="M1461.59,1616.81a3.1,3.1,0,0,1,0-4.37,3.09,3.09,0,1,1,4.37,4.37A3.1,3.1,0,0,1,1461.59,1616.81Z"/><path class="cls-8" d="M1449.07,1629.33a3.08,3.08,0,1,1,4.36,0A3.07,3.07,0,0,1,1449.07,1629.33Z"/><path class="cls-8" d="M1446.6,1614.33a3.09,3.09,0,1,1,4.36,0A3.08,3.08,0,0,1,1446.6,1614.33Z"/><path class="cls-8" d="M1365.77,1537.3a3.09,3.09,0,1,1-4.36,0A3.11,3.11,0,0,1,1365.77,1537.3Z"/><path class="cls-8" d="M1378.3,1524.77a3.09,3.09,0,1,1-4.37,0A3.08,3.08,0,0,1,1378.3,1524.77Z"/><path class="cls-8" d="M1380.77,1539.79a3.08,3.08,0,1,1-4.36,0A3.07,3.07,0,0,1,1380.77,1539.79Z"/></svg>