<svg id="Layer_1" data-name="Layer 1" xmlns="http://www.w3.org/2000/svg" viewBox="0 0 2000 2000"><defs><style>.cls-1{fill:#2b2f5c;}.cls-2{fill:#0599af;}.cls-3{fill:#f0f2f4;}.cls-4{fill:#0499ae;}.cls-5{fill:#e7f1fa;}.cls-6{fill:#097085;}.cls-7{fill:#056e82;}.cls-8{fill:#3cc1b7;}.cls-9{fill:#91c2dc;}.cls-10{fill:#058192;}.cls-11{fill:#e5f1fa;}.cls-12{fill:#91c2dd;}.cls-13{fill:#02534d;}.cls-14{fill:#a9cce4;}.cls-15{fill:#1c5569;}.cls-16{fill:#fff;}.cls-17{fill:#13375b;}.cls-18{fill:#50bfa5;}.cls-19{fill:#db4531;}.cls-20{fill:#bbbdbf;}.cls-21{isolation:isolate;font-size:37.41px;font-family:ArialMT, Arial;}.cls-22{fill:#4a7f91;}.cls-23{fill:#fd5a39;}.cls-24{opacity:0.25;}.cls-25{fill:#af8043;}.cls-26{fill:#ff9a15;}.cls-27{fill:#eabb7d;}.cls-28{fill:#c1924d;}</style></defs><title>FEEDBACK SUBMITTED</title><path class="cls-1" d="M1412.87,764.59l59.72-24.15c-17,30.17-35.65,61.44-56.23,93.51q-25.72,40.11-51.34,75.88a729.51,729.51,0,0,0-116.55-152.4l66.78,11.92C1309,632.74,1200.58,446.79,984.84,405,773,363.87,565.28,495.2,511.27,706.09c-32.38,126.4-8.73,244.32,69.75,348.7,78.13,103.9,185,156.71,314.84,164.1l-44,43.32L899,1310.94a455.65,455.65,0,0,1-213.67-49.56C557.22,1196.72,469.2,1096.08,426.47,959c-86.29-276.56,73.74-562.58,348-637.86C1098.47,232.25,1395.7,473.27,1412.87,764.59Z"/><path class="cls-2" d="M609.29,813.13c-2.76-29.83,16.93-51.93,47.72-52.37,35.79-.5,71.59-.12,107.39-.12,30.57,0,61.14.09,91.7-.14,4.63,0,10.29-.17,13.71-2.67,19.65-14.34,40.67-15.7,63-8.47l2.46,2c5.22,13.37,5.61,26.76,2.48,40.9-6.6,29.86-39.28,51.18-69.28,45.86a351.76,351.76,0,0,0-56-5.58c-50.75-.74-101.52,0-152.28-.41C641.26,831.94,622.47,829.48,609.29,813.13Z"/><path class="cls-3" d="M966.67,1209.63c-21.4-31.37-20-77.13,5.82-105.11,26.66-28.94,55.38-56,83.29-83.77,1.3-1.29,3.52-1.65,5.31-2.43,23.38,34.32,50.05,65.7,82.18,92.23v2.22c-25.93,26-51.24,52.59-78,77.65-22.68,21.24-50.2,28.38-81,21.39C978.55,1210.51,972.55,1210.33,966.67,1209.63Z"/><path class="cls-4" d="M1274.39,1072c36.55.06,73.1,0,109.65.27,16.54.13,32.77,2.21,46.92,12,3.22,10.17,8.27,20.16,9.36,30.56,5.76,55-35.16,100.77-92.45,99.6-22.93-.47-45.88-.08-68.82-.08-.2-1.64-.41-3.28-.61-4.92.06-32.36.52-64.74,0-97.09C1278.19,1098.94,1275.79,1085.47,1274.39,1072Z"/><path class="cls-5" d="M1143.27,1110.55c-32.13-26.53-58.8-57.91-82.18-92.23,8.43-9.58,16.35-19.65,25.38-28.61,21-20.82,41.38-42.41,64-61.25,28-23.28,69.76-26.06,96.8-6.29,18.13,40.52,11.18,76.86-20.2,107.8-24.29,24-48.21,48.3-72.47,72.3C1151.36,1105.53,1147.09,1107.81,1143.27,1110.55Zm-36.14-116.31c1.89,10.67,5.83,14.13,14.86,10.8,28.44-10.49,47.3-31.39,61-57.38,2.39-4.56,1.08-11.07,1.48-16.68-6.37.42-14.3-1.42-18.84,1.69-13.76,9.42-27.19,19.79-38.82,31.69C1118.59,972.72,1113.57,984.17,1107.13,994.24Z"/><path class="cls-6" d="M609.29,813.13c13.22,16.35,32,18.83,50.92,19,50.76.46,101.53-.33,152.28.41a351.63,351.63,0,0,1,56,5.58c30.07,5.32,62.72-16,69.34-45.86,3.13-14.14,2.74-27.53-2.48-40.9l24.14,18.47,7.5,12.46c8.38,25.57,6.14,49.2-13,69.63-20.42,21.82-53.43,25.5-79.72,9.83a41.64,41.64,0,0,0-20-5.71q-97.85-.6-195.68-.1C633.7,856.11,610.38,838.46,609.29,813.13Z"/><path class="cls-7" d="M1279.05,1214.39c22.94,0,45.89-.39,68.82.08,57.29,1.17,98.21-44.58,92.45-99.6-1.09-10.4-6.14-20.39-9.36-30.56,30.9,15.67,50,52.22,45.53,87.27-4.76,37.55-33,69-68.82,76.4a103.09,103.09,0,0,1-20.27,2.34c-37.76.15-75.51,0-113.26-.11q1.33-17.61,2.66-35.21l-.43-.47.49.41A2.9,2.9,0,0,0,1279.05,1214.39Z"/><path class="cls-8" d="M959.47,769.83l-24.21-18.47-2.46-2q46.08-45.74,92.11-91.5c36.89-36.79,73.56-73.8,110.56-110.48,13.27-13.15,29.75-11,39.16,4.5-4.76,6.81-8.65,14.49-14.42,20.29q-94.74,95.43-190.12,190.24C967.08,765.41,963.05,767.38,959.47,769.83Z"/><path class="cls-9" d="M1143.27,1110.55c3.82-2.74,8.09-5,11.38-8.28,24.26-24,48.18-48.34,72.47-72.3,31.38-30.94,38.33-67.28,20.2-107.8,24.56,10.62,37.37,30.85,43.17,55.58,7.56,32.24-1.16,60.41-24.54,84-1.92,1.94-3.15,4.55-4.7,6.85q-8.16,8.85-16.36,17.69c-1.81.69-4.09.9-5.35,2.15-13.27,13-26.2,26.35-39.62,39.18-4.79,4.57-10.68,8-16.06,12-4.11-2.35-8.39-4.46-12.3-7.11-9.51-6.43-18.85-13.11-28.26-19.69C1143.26,1112.05,1143.25,1111.29,1143.27,1110.55Z"/><path class="cls-10" d="M1143.3,1112.77c9.41,6.58,18.75,13.26,28.26,19.69,3.91,2.65,8.19,4.76,12.3,7.11-1.6,3-2.64,6.56-4.91,9-8.22,8.72-17,16.93-25.29,25.58-13.49,14-26.78,28.31-40.16,42.48l-11.6,12.12c-15.67,6.74-30.78,15.9-47.13,19.7-33.81,7.88-69.75-9.17-88.1-38.78,5.88.7,11.88.88,17.63,2.18,30.79,7,58.31-.15,81-21.39C1092.06,1165.36,1117.37,1138.72,1143.3,1112.77Z"/><path class="cls-11" d="M1244.9,1086.29l16.35-17.69.45,3.11c-.17.35-.35.7-.53,1l.57-1,12.65.28c1.4,13.45,3.8,26.88,4,40.36.54,32.35.08,64.73,0,97.09-.52,1.82-1,3.65-1.58,5.47l-.49-.41.43.47-102-.72c8.69-17.93,16.61-36.29,26.26-53.68C1215.05,1135.46,1230.24,1111,1244.9,1086.29Z"/><path class="cls-12" d="M1174.85,1214.28l102,.72q-1.32,17.61-2.66,35.21c-41.09.08-82.22,1.2-123.25-.21-18.12-.63-36.42-5.59-49-21.29l11.6-12.12Z"/><path class="cls-13" d="M959.47,769.83c3.55-2.45,7.58-4.42,10.59-7.42q95.25-95,190.15-190.24c5.77-5.8,9.66-13.48,14.42-20.29,4.31,10.53,3.86,20.11-4.74,28.68q-99.66,99.3-199.21,198.7a42.66,42.66,0,0,1-3.71,3Z"/><path class="cls-12" d="M1276.86,1214.94c.53-1.82,1.06-3.65,1.58-5.47.2,1.64.41,3.28.61,4.92A2.9,2.9,0,0,1,1276.86,1214.94Z"/><path class="cls-14" d="M1174.85,1214.28l-61.35,2.31c13.38-14.17,26.67-28.43,40.16-42.48,8.31-8.65,17.07-16.86,25.29-25.58,2.27-2.4,3.31-5.94,4.91-9,5.38-4,11.27-7.38,16.06-12,13.42-12.83,26.35-26.18,39.62-39.18,1.26-1.25,3.54-1.46,5.35-2.15-14.65,24.74-29.84,49.17-43.78,74.31C1191.47,1178,1183.54,1196.35,1174.85,1214.28Z"/><path class="cls-10" d="M1457,934.75c32.21,0,55.63,26.13,52.28,58.34l-54.09,520.36c-3.35,32.22-32.19,58.32-64.41,58.32H1033.5c-32.22,0-55.6-26.1-52.26-58.32l54.09-520.36c3.35-32.21,32.17-58.34,64.38-58.34Z"/><path class="cls-15" d="M1422.3,934.75c32.22,0,55.62,26.13,52.28,58.34l-54.11,520.36c-3.35,32.22-32.19,58.32-64.4,58.32H998.77c-32.21,0-55.6-26.1-52.25-58.32l54.09-520.36c3.34-32.21,32.16-58.34,64.37-58.34Z"/><path class="cls-16" d="M1428.68,960.36l-54.1,520.47a52.91,52.91,0,0,1-52.64,47.45H1000l59-567.92Z"/><path class="cls-17" d="M1101.16,959.93l-.05.43-1.33,12.81h279.71l1.33-12.81,0-.43a40.94,40.94,0,0,0-5.07-25.18c-5.5-9.45-15-15.59-26.28-15.59h-79.29A38.43,38.43,0,0,0,1282,895.72c2-18.92-11.79-34.3-30.7-34.3s-35.9,15.41-37.87,34.3a31.27,31.27,0,0,0,6.87,23.44H1141c-11.29,0-22,6.14-29.52,15.59A48.56,48.56,0,0,0,1101.16,959.93Zm160.8-64.2A16.29,16.29,0,0,1,1250,909.51l-.09,0a14.23,14.23,0,0,1-7.33,0,12.64,12.64,0,0,1-9.19-13.81,16.26,16.26,0,0,1,15.78-14.29A12.64,12.64,0,0,1,1262,895.73Z"/><path d="M1116.53,1052.19h242.56l-10.9,104.89H1105.63Zm240,2.36H1118.62l-10.39,100.17H1346Z"/><path d="M1129.34,1086.07a3,3,0,0,1-2.62-3.4h0a3.89,3.89,0,0,1,3.78-3.43h141.83a2.36,2.36,0,0,1,.46,0,3,3,0,0,1,2.61,3.41h0a3.9,3.9,0,0,1-3.78,3.43H1129.78A3.25,3.25,0,0,1,1129.34,1086.07Z"/><path d="M1127.78,1101.16a3,3,0,0,1-2.62-3.41h0a3.91,3.91,0,0,1,3.78-3.43h141.83a3.55,3.55,0,0,1,.46,0,3,3,0,0,1,2.61,3.4h0a3.89,3.89,0,0,1-3.78,3.43H1128.22A3.24,3.24,0,0,1,1127.78,1101.16Z"/><path d="M1126.2,1116.24a3,3,0,0,1-2.62-3.4h0a3.92,3.92,0,0,1,3.78-3.43h141.83a3.46,3.46,0,0,1,.46,0,3,3,0,0,1,2.61,3.41h0a3.9,3.9,0,0,1-3.78,3.43H1126.65Z"/><path d="M1124.63,1131.32a3,3,0,0,1-2.61-3.41h0a3.88,3.88,0,0,1,3.77-3.42h141.83a2.33,2.33,0,0,1,.46,0,3,3,0,0,1,2.61,3.4h0a3.89,3.89,0,0,1-3.78,3.43H1125.09A2.33,2.33,0,0,1,1124.63,1131.32Z"/><polygon class="cls-18" points="1280.81 1112.18 1303.45 1112.18 1301.1 1134.83 1316.2 1134.83 1318.55 1112.18 1341.2 1112.18 1342.77 1097.08 1320.12 1097.08 1322.47 1074.43 1307.38 1074.43 1305.02 1097.08 1282.37 1097.08 1280.81 1112.18"/><path d="M1059.8,1194.5l.06-.56a6.81,6.81,0,0,1,6.55-6h233.27a5.3,5.3,0,0,1,5.29,6l-.06.56a6.81,6.81,0,0,1-6.55,6H1065.07A5.29,5.29,0,0,1,1059.8,1194.5Z"/><path d="M1095,1222.84l.16-1.55a6.25,6.25,0,0,1,6-5.56h196.1a4.86,4.86,0,0,1,4.86,5.56l-.16,1.55a6.25,6.25,0,0,1-6,5.55h-196.1A4.85,4.85,0,0,1,1095,1222.84Z"/><path d="M1330,1226a9.3,9.3,0,0,1-2.26-7.17l2.94-28.14a10.45,10.45,0,0,1,10.22-9.35h27.53a8.84,8.84,0,0,1,6.66,2.92,9.21,9.21,0,0,1,2.26,7.17l-2.94,28.14a10.44,10.44,0,0,1-10.21,9.35h-27.55A8.87,8.87,0,0,1,1330,1226Zm10.87-37.58a3.44,3.44,0,0,0-3.17,3l-2.94,28.14a2.12,2.12,0,0,0,.47,1.68,1.78,1.78,0,0,0,1.42.58h27.55a3.43,3.43,0,0,0,3.17-3l2.95-28.14a2.21,2.21,0,0,0-.48-1.69,1.83,1.83,0,0,0-1.41-.58Z"/><polygon class="cls-19" points="1321.13 1179.38 1327.7 1174.37 1352.17 1206.47 1356.41 1202.23 1362.26 1208.07 1351.34 1219.02 1321.13 1179.38"/><path class="cls-20" d="M929,1529c-16.58,0-28.61-15.89-26.87-35.49H1290.2c-1.75,19.6,10.28,35.49,26.86,35.49Z"/><text class="cls-21" transform="matrix(0.91, -0.01, -0.19, 0.98, 1137.22, 1026.84)">FEEDBACK</text><path class="cls-22" d="M1326.5,1608.61a8.44,8.44,0,0,1-10.52,5.59l-18.13-5.58a8.43,8.43,0,0,1-5.58-10.54l122-397.4a8.43,8.43,0,0,1,10.53-5.57l18.12,5.56a8.41,8.41,0,0,1,5.58,10.53Z"/><path class="cls-23" d="M1429.15,1292.16a8.43,8.43,0,0,1-10.52,5.6l-28.19-8.64a8.44,8.44,0,0,1-5.59-10.54l40.84-133a8.41,8.41,0,0,1,10.53-5.57l28.18,8.64a8.41,8.41,0,0,1,5.58,10.51Z"/><path class="cls-24" d="M788,1376.44l-18.53-18.54a2,2,0,0,0-2.87,0l-20.86,20.86-20.87-20.86a2,2,0,0,0-2.86,0l-18.54,18.55a2,2,0,0,0,0,2.86l20.86,20.86L703.48,1421a2,2,0,0,0,0,2.87L722,1442.44a2,2,0,0,0,2.86,0l20.87-20.86,20.86,20.86a2,2,0,0,0,2.87,0L788,1423.91a2,2,0,0,0,0-2.87l-20.86-20.87L788,1379.31A2,2,0,0,0,788,1376.44Z"/><path class="cls-24" d="M1670.41,431.15l-47.78,47.78a5.21,5.21,0,0,1-7.39,0l-53.76-53.77-53.77,53.77a5.21,5.21,0,0,1-7.38,0l-47.78-47.78a5.23,5.23,0,0,1,0-7.39L1506.32,370l-53.77-53.77a5.23,5.23,0,0,1,0-7.39l47.78-47.78a5.22,5.22,0,0,1,7.38,0l53.77,53.77,53.76-53.77a5.24,5.24,0,0,1,7.39,0l47.78,47.79a5.21,5.21,0,0,1,0,7.38L1616.64,370l53.76,53.76A5.22,5.22,0,0,1,1670.41,431.15Z"/><path class="cls-25" d="M1628.53,465.65a5.21,5.21,0,0,0,7.38,0l47.78-47.78a5.23,5.23,0,0,0,0-7.39L1521,247.79a5.22,5.22,0,0,0-7.38,0l-47.77,47.78a5.23,5.23,0,0,0,0,7.39Z"/><path class="cls-26" d="M1578.11,398c1.78,1.77,4.86,1.55,6.9-.48L1615.58,367c2-2,2.25-5.13.48-6.9l-44.66-44.66c-1.77-1.76-4.85-1.55-6.89.49l-30.57,30.57c-2,2-2.26,5.13-.49,6.89Z"/><path class="cls-27" d="M1522,293.08a4.11,4.11,0,1,0,0-5.8A4.1,4.1,0,0,0,1522,293.08Z"/><path class="cls-27" d="M1505.32,309.72a4.1,4.1,0,1,0,0-5.81A4.1,4.1,0,0,0,1505.32,309.72Z"/><path class="cls-27" d="M1525.25,313a4.1,4.1,0,1,0,0-5.79A4.09,4.09,0,0,0,1525.25,313Z"/><path class="cls-27" d="M1627.56,420.35a4.1,4.1,0,1,0,0,5.81A4.1,4.1,0,0,0,1627.56,420.35Z"/><path class="cls-27" d="M1644.2,403.72a4.1,4.1,0,1,0,0,5.79A4.07,4.07,0,0,0,1644.2,403.72Z"/><path class="cls-27" d="M1624.27,400.42a4.1,4.1,0,1,0,0,5.82A4.1,4.1,0,0,0,1624.27,400.42Z"/><path class="cls-28" d="M1683.68,303a5.21,5.21,0,0,0,0-7.38l-47.78-47.79a5.22,5.22,0,0,0-7.38,0l-162.69,162.7a5.23,5.23,0,0,0,0,7.39l47.77,47.78a5.22,5.22,0,0,0,7.38,0Z"/><path class="cls-27" d="M1616.06,353.36c1.77-1.76,1.56-4.86-.48-6.89L1585,315.9c-2-2-5.12-2.25-6.9-.49l-44.66,44.66c-1.77,1.77-1.55,4.86.49,6.9l30.57,30.57c2,2,5.12,2.25,6.89.48Z"/><path class="cls-27" d="M1511.12,409.53a4.13,4.13,0,0,0,0-5.81,4.11,4.11,0,1,0-5.81,5.81A4.12,4.12,0,0,0,1511.12,409.53Z"/><path class="cls-27" d="M1527.76,426.16a4.1,4.1,0,1,0-5.8,0A4.1,4.1,0,0,0,1527.76,426.16Z"/><path class="cls-27" d="M1531,406.24a4.11,4.11,0,1,0-5.79,0A4.12,4.12,0,0,0,1531,406.24Z"/><path class="cls-27" d="M1638.4,303.91a4.1,4.1,0,1,0,5.8,0A4.11,4.11,0,0,0,1638.4,303.91Z"/><path class="cls-27" d="M1621.76,287.26a4.11,4.11,0,1,0,5.8,0A4.11,4.11,0,0,0,1621.76,287.26Z"/><path class="cls-27" d="M1618.47,307.22a4.1,4.1,0,1,0,5.8,0A4.1,4.1,0,0,0,1618.47,307.22Z"/><path class="cls-24" d="M1549.35,640.12l-26.12,26.11a2.85,2.85,0,0,1-4,0l-29.38-29.39-29.39,29.39a2.86,2.86,0,0,1-4,0l-26.11-26.12a2.85,2.85,0,0,1,0-4l29.39-29.39-29.39-29.39a2.84,2.84,0,0,1,0-4l26.11-26.12a2.86,2.86,0,0,1,4,0l29.39,29.38,29.38-29.38a2.86,2.86,0,0,1,4,0l26.12,26.12a2.85,2.85,0,0,1,0,4L1520,606.69l29.38,29.39A2.86,2.86,0,0,1,1549.35,640.12Z"/><path class="cls-25" d="M1526.45,659a2.85,2.85,0,0,0,4,0l26.12-26.11a2.87,2.87,0,0,0,0-4l-88.93-88.93a2.87,2.87,0,0,0-4,0L1437.53,566a2.85,2.85,0,0,0,0,4Z"/><path class="cls-26" d="M1498.9,622a2.69,2.69,0,0,0,3.77-.27l16.71-16.7a2.69,2.69,0,0,0,.26-3.77l-24.41-24.41a2.69,2.69,0,0,0-3.77.26l-16.7,16.71a2.68,2.68,0,0,0-.27,3.77Z"/><path class="cls-27" d="M1468.21,564.65a2.25,2.25,0,1,0,0-3.17A2.23,2.23,0,0,0,1468.21,564.65Z"/><path class="cls-27" d="M1459.11,573.75a2.25,2.25,0,1,0,0-3.18A2.25,2.25,0,0,0,1459.11,573.75Z"/><path class="cls-27" d="M1470,575.53a2.24,2.24,0,1,0,0-3.16A2.24,2.24,0,0,0,1470,575.53Z"/><path class="cls-27" d="M1525.93,634.21a2.25,2.25,0,0,0-3.17,0,2.25,2.25,0,0,0,3.17,3.18A2.26,2.26,0,0,0,1525.93,634.21Z"/><path class="cls-27" d="M1535,625.12a2.25,2.25,0,1,0,0,3.17A2.23,2.23,0,0,0,1535,625.12Z"/><path class="cls-27" d="M1524.13,623.32a2.25,2.25,0,1,0,0,3.18A2.25,2.25,0,0,0,1524.13,623.32Z"/><path class="cls-28" d="M1556.6,570a2.85,2.85,0,0,0,0-4l-26.12-26.12a2.87,2.87,0,0,0-4,0l-88.92,88.93a2.85,2.85,0,0,0,0,4L1463.64,659a2.86,2.86,0,0,0,4,0Z"/><path class="cls-27" d="M1519.64,597.6a2.69,2.69,0,0,0-.26-3.77l-16.71-16.71a2.69,2.69,0,0,0-3.77-.26l-24.41,24.41a2.68,2.68,0,0,0,.27,3.77l16.7,16.7a2.69,2.69,0,0,0,3.77.27Z"/><path class="cls-27" d="M1462.28,628.3a2.25,2.25,0,1,0-3.17,0A2.25,2.25,0,0,0,1462.28,628.3Z"/><path class="cls-27" d="M1471.38,637.39a2.24,2.24,0,1,0-3.17,0A2.25,2.25,0,0,0,1471.38,637.39Z"/><path class="cls-27" d="M1473.17,626.5a2.25,2.25,0,1,0-3.17,0A2.25,2.25,0,0,0,1473.17,626.5Z"/><path class="cls-27" d="M1531.85,570.57a2.25,2.25,0,1,0,3.17,0A2.25,2.25,0,0,0,1531.85,570.57Z"/><path class="cls-27" d="M1522.76,561.47a2.25,2.25,0,0,0,3.17,3.18,2.25,2.25,0,0,0-3.17-3.18Z"/><path class="cls-27" d="M1521,572.38a2.24,2.24,0,1,0,3.17,0A2.24,2.24,0,0,0,1521,572.38Z"/><path class="cls-24" d="M1246.16,354l-16.67,16.67a1.81,1.81,0,0,1-2.58,0l-18.76-18.76-18.76,18.76a1.82,1.82,0,0,1-2.58,0L1170.15,354a1.81,1.81,0,0,1,0-2.58l18.76-18.76-18.76-18.76a1.81,1.81,0,0,1,0-2.58l16.66-16.67a1.83,1.83,0,0,1,2.58,0l18.76,18.76,18.76-18.76a1.83,1.83,0,0,1,2.58,0l16.67,16.67a1.83,1.83,0,0,1,0,2.58l-18.76,18.76,18.76,18.75A1.83,1.83,0,0,1,1246.16,354Z"/><path class="cls-25" d="M1231.55,366a1.82,1.82,0,0,0,2.57,0l16.67-16.67a1.81,1.81,0,0,0,0-2.58L1194,290a1.82,1.82,0,0,0-2.58,0l-16.67,16.67a1.83,1.83,0,0,0,0,2.58Z"/><path class="cls-26" d="M1214,342.41a1.71,1.71,0,0,0,2.4-.17L1227,331.58a1.73,1.73,0,0,0,.17-2.41l-15.59-15.58a1.71,1.71,0,0,0-2.4.17l-10.67,10.66a1.73,1.73,0,0,0-.17,2.41Z"/><path class="cls-27" d="M1194.36,305.8a1.44,1.44,0,1,0,0-2A1.46,1.46,0,0,0,1194.36,305.8Z"/><path class="cls-27" d="M1188.56,311.6a1.43,1.43,0,1,0,0-2A1.42,1.42,0,0,0,1188.56,311.6Z"/><path class="cls-27" d="M1195.51,312.75a1.43,1.43,0,1,0,0-2A1.44,1.44,0,0,0,1195.51,312.75Z"/><path class="cls-27" d="M1231.21,350.2a1.44,1.44,0,1,0,0,2A1.44,1.44,0,0,0,1231.21,350.2Z"/><path class="cls-27" d="M1237,344.4a1.44,1.44,0,1,0,0,2A1.44,1.44,0,0,0,1237,344.4Z"/><path class="cls-27" d="M1230.06,343.25a1.43,1.43,0,1,0,0,2A1.42,1.42,0,0,0,1230.06,343.25Z"/><path class="cls-28" d="M1250.79,309.24a1.82,1.82,0,0,0,0-2.57L1234.12,290a1.81,1.81,0,0,0-2.57,0l-56.77,56.76a1.83,1.83,0,0,0,0,2.58L1191.45,366a1.83,1.83,0,0,0,2.58,0Z"/><path class="cls-27" d="M1227.2,326.83a1.73,1.73,0,0,0-.17-2.41l-10.67-10.66a1.71,1.71,0,0,0-2.4-.17l-15.59,15.58a1.73,1.73,0,0,0,.17,2.41l10.67,10.66a1.71,1.71,0,0,0,2.4.17Z"/><path class="cls-27" d="M1190.58,346.43a1.43,1.43,0,1,0-2,0A1.44,1.44,0,0,0,1190.58,346.43Z"/><path class="cls-27" d="M1196.39,352.23a1.43,1.43,0,1,0-2,0A1.44,1.44,0,0,0,1196.39,352.23Z"/><path class="cls-27" d="M1197.53,345.28a1.43,1.43,0,1,0-2,0A1.44,1.44,0,0,0,1197.53,345.28Z"/><path class="cls-27" d="M1235,309.58a1.43,1.43,0,1,0,2,0A1.42,1.42,0,0,0,1235,309.58Z"/><path class="cls-27" d="M1229.18,303.77a1.44,1.44,0,1,0,2,0A1.44,1.44,0,0,0,1229.18,303.77Z"/><path class="cls-27" d="M1228,310.73a1.43,1.43,0,1,0,2,0A1.42,1.42,0,0,0,1228,310.73Z"/><path class="cls-25" d="M719.73,1437.29a2,2,0,0,1-2.87,0l-18.54-18.54a2,2,0,0,1,0-2.87l63.13-63.13a2,2,0,0,1,2.86,0l18.54,18.54a2,2,0,0,1,0,2.87Z"/><path class="cls-26" d="M739.29,1411.05a1.91,1.91,0,0,1-2.67-.19L724.75,1399a1.91,1.91,0,0,1-.18-2.68L741.9,1379a1.91,1.91,0,0,1,2.67.19L756.43,1391a1.91,1.91,0,0,1,.19,2.68Z"/><path class="cls-27" d="M761.08,1370.32a1.58,1.58,0,0,1-2.25,0,1.59,1.59,0,1,1,2.25,0Z"/><path class="cls-27" d="M767.54,1376.78a1.59,1.59,0,1,1,0-2.25A1.59,1.59,0,0,1,767.54,1376.78Z"/><path class="cls-27" d="M759.81,1378.05a1.59,1.59,0,1,1-2.26-2.24,1.59,1.59,0,0,1,2.26,2.24Z"/><path class="cls-27" d="M720.1,1419.71a1.6,1.6,0,1,1,0,2.26A1.61,1.61,0,0,1,720.1,1419.71Z"/><path class="cls-27" d="M713.65,1413.26a1.58,1.58,0,0,1,2.25,0,1.59,1.59,0,1,1-2.25,0Z"/><path class="cls-27" d="M721.38,1412a1.59,1.59,0,1,1,0,2.25A1.59,1.59,0,0,1,721.38,1412Z"/><path class="cls-28" d="M698.33,1374.16a2,2,0,0,1,0-2.87l18.55-18.54a2,2,0,0,1,2.86,0l63.13,63.13a2,2,0,0,1,0,2.87l-18.54,18.54a2,2,0,0,1-2.86,0Z"/><path class="cls-27" d="M724.57,1393.72a1.91,1.91,0,0,1,.18-2.68l11.87-11.86a1.91,1.91,0,0,1,2.67-.19l17.33,17.33a1.91,1.91,0,0,1-.19,2.68l-11.86,11.86a1.91,1.91,0,0,1-2.67.19Z"/><path class="cls-27" d="M765.29,1415.51a1.59,1.59,0,1,1,2.25,0A1.6,1.6,0,0,1,765.29,1415.51Z"/><path class="cls-27" d="M758.83,1422a1.61,1.61,0,0,1,0-2.26,1.59,1.59,0,1,1,0,2.26Z"/><path class="cls-27" d="M757.56,1414.23a1.58,1.58,0,0,1,0-2.25,1.59,1.59,0,0,1,2.26,2.25A1.58,1.58,0,0,1,757.56,1414.23Z"/><path class="cls-27" d="M715.9,1374.53a1.59,1.59,0,0,1,0,2.25,1.58,1.58,0,0,1-2.25,0,1.59,1.59,0,0,1,2.25-2.25Z"/><path class="cls-27" d="M722.36,1368.07a1.59,1.59,0,1,1-2.26,0A1.59,1.59,0,0,1,722.36,1368.07Z"/><path class="cls-27" d="M723.63,1375.81a1.59,1.59,0,1,1-2.25,0A1.58,1.58,0,0,1,723.63,1375.81Z"/><path class="cls-24" d="M898.23,1541.68,863,1506.47a3.86,3.86,0,0,0-5.44,0L818,1546.1l-39.61-39.62a3.86,3.86,0,0,0-5.44,0l-35.21,35.22a3.85,3.85,0,0,0,0,5.44l39.62,39.61-39.62,39.62a3.83,3.83,0,0,0,0,5.44l35.2,35.21a3.84,3.84,0,0,0,5.45,0L818,1627.39,857.59,1667a3.84,3.84,0,0,0,5.44,0l35.2-35.21a3.83,3.83,0,0,0,0-5.44l-39.61-39.62,39.61-39.62A3.84,3.84,0,0,0,898.23,1541.68Z"/><path class="cls-25" d="M768.57,1657.22a3.84,3.84,0,0,1-5.45,0l-35.2-35.2a3.86,3.86,0,0,1,0-5.45L847.8,1496.7a3.85,3.85,0,0,1,5.45,0l35.2,35.2a3.86,3.86,0,0,1,0,5.45Z"/><path class="cls-26" d="M805.72,1607.4a3.65,3.65,0,0,1-5.09-.36l-22.52-22.52a3.64,3.64,0,0,1-.36-5.09l32.91-32.91a3.62,3.62,0,0,1,5.08.36l22.52,22.52a3.62,3.62,0,0,1,.36,5.08Z"/><path class="cls-27" d="M847.09,1530.06a3,3,0,1,1,0-4.27A3,3,0,0,1,847.09,1530.06Z"/><path class="cls-27" d="M859.36,1542.33a3,3,0,1,1,0-4.28A3,3,0,0,1,859.36,1542.33Z"/><path class="cls-27" d="M844.67,1544.74a3,3,0,1,1,0-4.27A3,3,0,0,1,844.67,1544.74Z"/><path class="cls-27" d="M769.28,1623.85a3,3,0,1,1,0,4.28A3,3,0,0,1,769.28,1623.85Z"/><path class="cls-27" d="M757,1611.59a3,3,0,1,1,0,4.27A3,3,0,0,1,757,1611.59Z"/><path class="cls-27" d="M771.7,1609.16a3,3,0,1,1,0,4.29A3,3,0,0,1,771.7,1609.16Z"/><path class="cls-28" d="M727.92,1537.34a3.85,3.85,0,0,1,0-5.44l35.21-35.21a3.84,3.84,0,0,1,5.44,0l119.88,119.88a3.85,3.85,0,0,1,0,5.44l-35.2,35.21a3.85,3.85,0,0,1-5.45,0Z"/><path class="cls-27" d="M777.75,1574.48a3.62,3.62,0,0,1,.36-5.08l22.52-22.52a3.64,3.64,0,0,1,5.09-.36l32.9,32.91a3.63,3.63,0,0,1-.36,5.09L815.74,1607a3.63,3.63,0,0,1-5.08.36Z"/><path class="cls-27" d="M855.08,1615.87a3,3,0,1,1,4.27,0A3,3,0,0,1,855.08,1615.87Z"/><path class="cls-27" d="M842.82,1628.13a3,3,0,1,1,4.27,0A3,3,0,0,1,842.82,1628.13Z"/><path class="cls-27" d="M840.4,1613.45a3,3,0,1,1,4.27,0A3,3,0,0,1,840.4,1613.45Z"/><path class="cls-27" d="M761.29,1538.05a3,3,0,1,1-4.27,0A3,3,0,0,1,761.29,1538.05Z"/><path class="cls-27" d="M773.55,1525.78a3,3,0,1,1-4.27,0A3,3,0,0,1,773.55,1525.78Z"/><path class="cls-27" d="M776,1540.48a3,3,0,1,1-4.28,0A3,3,0,0,1,776,1540.48Z"/></svg>