<?xml version="1.0" encoding="utf-8"?>
<!-- Generator: Adobe Illustrator 23.0.5, SVG Export Plug-In . SVG Version: 6.00 Build 0)  -->
<svg version="1.1" id="Layer_1" xmlns="http://www.w3.org/2000/svg" xmlns:xlink="http://www.w3.org/1999/xlink" x="0px" y="0px"
	 viewBox="0 0 3500 2500" style="enable-background:new 0 0 3500 2500;" xml:space="preserve">
<style type="text/css">
	.st0{fill:#058192;}
	.st1{fill:#F4E68B;}
	.st2{fill:#1C5569;}
	.st3{fill:#FFFFFF;}
	.st4{fill:#171C51;}
	.st5{fill:#13375B;}
	.st6{fill:#50BFA5;}
	.st7{fill:#DB4531;}
	.st8{fill:#BBBDBF;}
	.st9{clip-path:url(#SVGID_2_);}
	.st10{fill:#466EB6;}
	.st11{fill:#9BC1F9;}
	.st12{fill:#FAE0B2;}
	.st13{fill:#466EB5;}
	.st14{fill:#355389;}
	.st15{fill:#C4C4C4;}
	.st16{fill:#86B1F2;}
	.st17{fill:#F48561;}
	.st18{fill:#FFD9B3;}
	.st19{fill:#EF9F22;}
	.st20{fill:#E6E9F5;}
	.st21{fill:#96A4CD;}
	.st22{fill:#F47458;}
	.st23{opacity:0.5;enable-background:new    ;}
	.st24{font-family:'ArialMT';}
	.st25{font-size:106.7427px;}
	.st26{font-size:70.0371px;}
</style>
<title>login image</title>
<g>
	<g id="Object">
		<polygon class="st0" points="836.7,1240.9 798.3,1202.5 836.7,1164.2 826.8,1154.3 788.4,1192.7 750.1,1154.3 740.2,1164.2 
			778.5,1202.5 740.2,1240.9 750.1,1250.8 788.4,1212.4 826.8,1250.8 		"/>
		<polygon class="st0" points="2010.9,533.4 1972.6,495.1 2010.9,456.8 2001.1,446.9 1962.7,485.2 1924.4,446.9 1914.5,456.8 
			1952.8,495.1 1914.5,533.4 1924.4,543.3 1962.7,505 2001.1,543.3 		"/>
		<polygon class="st0" points="2750.1,1490.4 2750.1,1436.1 2804.4,1436.1 2804.4,1422.1 2750.1,1422.1 2750.1,1367.9 
			2736.1,1367.9 2736.1,1422.1 2681.9,1422.1 2681.9,1436.1 2736.1,1436.1 2736.1,1490.4 		"/>
		
			<ellipse transform="matrix(0.1602 -0.9871 0.9871 0.1602 1201.519 2754.3706)" class="st0" cx="2219.5" cy="671" rx="13.4" ry="13.4"/>
		
			<ellipse transform="matrix(0.7071 -0.7071 0.7071 0.7071 154.6819 1715.431)" class="st0" cx="2148" cy="671" rx="13.4" ry="13.4"/>
		
			<ellipse transform="matrix(0.1602 -0.9871 0.9871 0.1602 1081.6545 2613.4724)" class="st0" cx="2076.8" cy="671" rx="13.4" ry="13.4"/>
		
			<ellipse transform="matrix(0.1602 -0.9871 0.9871 0.1602 1021.7175 2543.0176)" class="st0" cx="2005.4" cy="671" rx="13.4" ry="13.4"/>
		
			<ellipse transform="matrix(0.1602 -0.9871 0.9871 0.1602 961.7704 2472.571)" class="st0" cx="1934" cy="671" rx="13.4" ry="13.4"/>
		<circle class="st0" cx="1933.9" cy="742.4" r="13.4"/>
		<circle class="st0" cx="1933.9" cy="813.7" r="13.4"/>
		<circle class="st0" cx="1933.9" cy="885.1" r="13.4"/>
		<circle class="st0" cx="2005.3" cy="742.4" r="13.4"/>
		<circle class="st0" cx="2005.3" cy="813.7" r="13.4"/>
		<circle class="st0" cx="2005.3" cy="885.1" r="13.4"/>
		<circle class="st0" cx="2076.7" cy="742.4" r="13.4"/>
		<circle class="st0" cx="2076.7" cy="813.7" r="13.4"/>
		<circle class="st0" cx="2076.7" cy="885.1" r="13.4"/>
		<circle class="st0" cx="2148.1" cy="742.4" r="13.4"/>
		<circle class="st0" cx="2148.1" cy="813.7" r="13.4"/>
		<circle class="st0" cx="2148.1" cy="885.1" r="13.4"/>
		<circle class="st0" cx="2219.4" cy="742.4" r="13.4"/>
		<circle class="st0" cx="2219.4" cy="813.7" r="13.4"/>
		<circle class="st0" cx="2219.4" cy="885.1" r="13.4"/>
		<circle class="st0" cx="1933.9" cy="956.5" r="13.4"/>
		<circle class="st0" cx="2005.3" cy="956.5" r="13.4"/>
		<circle class="st0" cx="2076.7" cy="956.5" r="13.4"/>
		<circle class="st0" cx="2148.1" cy="956.5" r="13.4"/>
		<circle class="st0" cx="2219.4" cy="956.5" r="13.4"/>
		<circle class="st0" cx="1341.9" cy="2169.4" r="13.4"/>
		<circle class="st0" cx="1413.3" cy="2169.4" r="13.4"/>
		<circle class="st0" cx="1484.7" cy="2169.4" r="13.4"/>
		<circle class="st0" cx="1556" cy="2169.4" r="13.4"/>
		<circle class="st0" cx="1627.4" cy="2169.4" r="13.4"/>
		<circle class="st0" cx="1627.4" cy="2098.1" r="13.4"/>
		<circle class="st0" cx="1627.4" cy="2026.7" r="13.4"/>
		<circle class="st0" cx="1627.4" cy="1955.3" r="13.4"/>
		<circle class="st0" cx="1556" cy="2098.1" r="13.4"/>
		<circle class="st0" cx="1556" cy="2026.7" r="13.4"/>
		<circle class="st0" cx="1556" cy="1955.3" r="13.4"/>
		<circle class="st0" cx="1484.7" cy="2098.1" r="13.4"/>
		<circle class="st0" cx="1484.7" cy="2026.7" r="13.4"/>
		<circle class="st0" cx="1413.3" cy="2098.1" r="13.4"/>
		<circle class="st0" cx="1627.4" cy="1884" r="13.4"/>
		<path class="st0" d="M836.7,1529.9c-8.8,0-15.9-7.1-15.9-15.9c0-8.8,7.1-15.9,15.9-15.9s15.9,7.1,15.9,15.9l0,0
			C852.6,1522.7,845.5,1529.9,836.7,1529.9z M836.7,1503c-6,0-10.9,4.9-10.9,10.9s4.9,10.9,10.9,10.9s10.9-4.9,10.9-10.9
			c0,0,0,0,0,0C847.6,1507.9,842.7,1503,836.7,1503z"/>
		<path class="st0" d="M1920.5,2180c-8.8,0-15.9-7.1-15.9-15.9c0-8.8,7.1-15.9,15.9-15.9c8.8,0,15.9,7.1,15.9,15.9c0,0,0,0,0,0
			C1936.4,2172.8,1929.3,2180,1920.5,2180z M1920.5,2153.1c-6,0-10.9,4.9-10.9,10.9c0,6,4.9,10.9,10.9,10.9c6,0,10.9-4.9,10.9-10.9
			c0,0,0,0,0,0C1931.4,2158,1926.6,2153.1,1920.5,2153.1L1920.5,2153.1z"/>
		<path class="st0" d="M1557.3,430.7c-8.8,0-15.9-7.1-15.9-15.9c0-8.8,7.1-15.9,15.9-15.9s15.9,7.1,15.9,15.9c0,0,0,0,0,0
			C1573.2,423.6,1566.1,430.7,1557.3,430.7z M1557.3,403.8c-6,0-10.9,4.9-10.9,10.9s4.9,10.9,10.9,10.9s10.9-4.9,10.9-10.9
			c0,0,0,0,0,0C1568.2,408.7,1563.3,403.8,1557.3,403.8z"/>
		<path class="st0" d="M1195.8,597.1c-8.8,0-15.9-7.1-15.9-15.9s7.1-15.9,15.9-15.9c8.8,0,15.9,7.1,15.9,15.9c0,0,0,0,0,0
			C1211.7,590,1204.6,597.1,1195.8,597.1z M1195.8,570.2c-6,0-10.9,4.9-10.9,10.9s4.9,10.9,10.9,10.9c6,0,10.9-4.9,10.9-10.9v0
			C1206.7,575.1,1201.8,570.2,1195.8,570.2L1195.8,570.2z"/>
		<path class="st0" d="M788.4,955.5c-8.8,0-15.9-7.1-15.9-15.9s7.1-15.9,15.9-15.9s15.9,7.1,15.9,15.9
			C804.3,948.3,797.2,955.4,788.4,955.5z M788.4,928.6c-6,0-10.9,4.9-10.9,10.9s4.9,10.9,10.9,10.9s10.9-4.9,10.9-10.9c0,0,0,0,0,0
			C799.4,933.5,794.5,928.6,788.4,928.6z"/>
		<path class="st0" d="M2402.1,524.5c-8.8,0-16-7.1-16-15.9c0-8.8,7.1-16,15.9-16c8.8,0,16,7.1,16,15.9c0,0,0,0,0,0
			C2418,517.3,2410.9,524.4,2402.1,524.5z M2402.1,497.6c-6,0-11,4.9-11,10.9c0,6,4.9,11,10.9,11c6,0,11-4.9,11-10.9c0,0,0,0,0,0
			C2413,502.5,2408.1,497.6,2402.1,497.6L2402.1,497.6z"/>
		<path class="st0" d="M2612.9,955.5c-8.8,0-15.9-7.1-15.9-15.9c0-8.8,7.1-15.9,15.9-15.9c8.8,0,15.9,7.1,15.9,15.9v0
			C2628.8,948.3,2621.7,955.4,2612.9,955.5z M2612.9,928.6c-6,0-10.9,4.9-10.9,10.9c0,6,4.9,10.9,10.9,10.9c6,0,10.9-4.9,10.9-10.9
			c0,0,0,0,0,0C2623.9,933.5,2619,928.6,2612.9,928.6z"/>
		<path class="st0" d="M1751.7,663.8c68.2,0,129.2,55.3,136.3,123.5L2002.5,1889c7.1,68.2-42.4,123.5-110.6,123.5h-756.5
			c-68.2,0-129.3-55.3-136.4-123.5L884.5,787.3c-7.1-68.2,42.5-123.5,110.7-123.5H1751.7z"/>
		<path class="st1" d="M1837.7,718l125,1202.4h-782.6L1055.2,718h101.3l2.8,27.1h592.2l-2.8-27.1H1837.7z"/>
		<path class="st2" d="M1825.2,663.8c68.2,0,129.2,55.3,136.3,123.5L2076,1889c7.1,68.2-42.4,123.5-110.6,123.5h-756.5
			c-68.2,0-129.3-55.3-136.4-123.5L958,787.3c-7.1-68.2,42.5-123.5,110.7-123.5H1825.2z"/>
		<path class="st3" d="M1837.7,718l125,1202.4h-681.6c-57.4,0-105.5-43.4-111.4-100.5L1055.2,718H1837.7z"/>
		<path class="st4" d="M1430,630.8h27c-4.3,1.2-8.8,1.8-13.3,1.8C1439.1,632.6,1434.5,632,1430,630.8z"/>
		<path class="st5" d="M1726.8,663.8c-15.8-20-38.6-33-62.5-33h-167.9c10.9-13.2,16.5-30.7,14.6-49.6c-4.2-40-40.1-72.6-80.2-72.6
			s-69.2,32.6-65,72.6c2,18.9,11.2,36.5,24.8,49.6h-167.9c-23.9,0-44,13-55.6,33c-8.7,14.7-12.8,33.2-10.7,53.3l0.1,0.9l2.8,27.1
			h592.2l-2.8-27.1l-0.1-0.9C1746.6,697.6,1739,679.1,1726.8,663.8z M1435.2,550.9c16.7,0,31.7,13.6,33.4,30.3
			c1.4,13.6-6.5,25.6-19.5,29.2c-5.1,1.4-10.4,1.4-15.5,0l-0.2-0.1c-13.5-3.5-23.9-15.5-25.3-29.2
			C1406.4,564.5,1418.5,550.9,1435.2,550.9z"/>
		<polygon class="st3" points="1736.4,1132 1227.8,1132 1205.3,914.9 1713.8,914.9 		"/>
		<path d="M1739.1,1134.5h-513.6l-23.1-222.1h513.6L1739.1,1134.5z M1230.1,1129.5h503.5l-22-212.1H1208L1230.1,1129.5z"/>
		<path d="M1688,984.2h-300.3c-4.1-0.1-7.5-3.2-8-7.3l0,0c-0.5-3.5,2-6.7,5.5-7.2c0.3,0,0.7-0.1,1-0.1h300.3c4.1,0.1,7.5,3.2,8,7.3
			l0,0c0.5,3.5-2,6.7-5.5,7.2C1688.6,984.2,1688.3,984.2,1688,984.2z"/>
		<path d="M1691.3,1016.1H1391c-4.1-0.1-7.5-3.2-8-7.3l0,0c-0.5-3.5,2-6.7,5.5-7.2c0.3,0,0.7-0.1,1-0.1h300.3c4.1,0.1,7.5,3.2,8,7.3
			l0,0c0.5,3.5-2,6.7-5.5,7.2C1691.9,1016.1,1691.6,1016.1,1691.3,1016.1z"/>
		<path d="M1694.6,1048.1h-300.3c-4.1-0.1-7.5-3.2-8-7.3l0,0c-0.5-3.5,2-6.7,5.5-7.2c0.3,0,0.7-0.1,1-0.1h300.3
			c4.1,0.1,7.5,3.2,8,7.3l0,0c0.5,3.5-2,6.7-5.5,7.2C1695.3,1048.1,1694.9,1048.1,1694.6,1048.1z"/>
		<path d="M1697.9,1080h-300.3c-4.1-0.1-7.5-3.2-8-7.3l0,0c-0.5-3.5,2-6.7,5.5-7.2c0.3,0,0.7-0.1,1-0.1h300.3c4.1,0.1,7.5,3.2,8,7.3
			l0,0c0.5,3.5-2,6.7-5.5,7.2C1698.6,1080,1698.3,1080,1697.9,1080z"/>
		<polygon class="st6" points="1364.9,1007.5 1317,1007.5 1312,959.5 1280,959.5 1285,1007.5 1237.1,1007.5 1240.4,1039.4 
			1288.3,1039.4 1293.3,1087.4 1325.3,1087.4 1320.3,1039.4 1368.3,1039.4 		"/>
		<path d="M1825,1226.5h-493.9c-6.9,0-13.1-5.7-13.9-12.8l-0.1-1.2c-0.7-7.1,4.3-12.8,11.2-12.8h493.9c6.9,0,13.1,5.7,13.9,12.8
			l0.1,1.2C1836.9,1220.8,1831.9,1226.5,1825,1226.5z"/>
		<path d="M1751.4,1285.5h-415.2c-6.6-0.2-12-5.2-12.7-11.8l-0.3-3.3c-0.7-6.5,3.9-11.8,10.3-11.8h415.2c6.6,0.2,12,5.2,12.7,11.8
			l0.3,3.3C1762.4,1280.2,1757.8,1285.5,1751.4,1285.5z"/>
		<path d="M1250,1286.6h-58.3c-11.2-0.2-20.5-8.7-21.6-19.8l-6.2-59.6c-0.6-5.5,1.1-11,4.8-15.2c3.6-4,8.7-6.2,14.1-6.2h58.3
			c11.2,0.2,20.5,8.7,21.6,19.8l6.2,59.6c0.6,5.5-1.1,11-4.8,15.2C1260.5,1284.4,1255.4,1286.7,1250,1286.6z M1182.7,1200.9
			c-1.1,0-2.2,0.4-3,1.2c-0.8,1-1.2,2.3-1,3.6l6.2,59.6c0.4,3.5,3.2,6.1,6.7,6.4h58.3c1.1,0,2.2-0.4,3-1.2c0.8-1,1.2-2.3,1-3.6
			l-6.2-59.6c-0.4-3.4-3.5-6.4-6.7-6.4H1182.7z"/>
		<polygon class="st7" points="1218.9,1265.6 1195.8,1242.4 1208.2,1230.1 1217.2,1239.1 1269,1171.1 1282.9,1181.7 		"/>
		<path d="M1839.8,1369.3h-493.9c-6.9,0-13.1-5.7-13.9-12.8l-0.1-1.2c-0.7-7.1,4.3-12.8,11.2-12.8H1837c6.9,0,13.1,5.7,13.9,12.8
			l0.1,1.2C1851.7,1363.6,1846.7,1369.3,1839.8,1369.3z"/>
		<path d="M1766.3,1428.3h-415.2c-6.6-0.2-12-5.2-12.7-11.8l-0.3-3.3c-0.7-6.5,3.9-11.8,10.3-11.8h415.2c6.6,0.2,12,5.2,12.7,11.8
			l0.3,3.3C1777.2,1423,1772.6,1428.3,1766.3,1428.3z"/>
		<path d="M1264.8,1429.4h-58.3c-11.2-0.2-20.5-8.7-21.6-19.8l-6.2-59.6c-0.6-5.5,1.1-11,4.8-15.2c3.6-4,8.7-6.2,14.1-6.2h58.3
			c11.2,0.2,20.5,8.7,21.6,19.8l6.2,59.6c0.6,5.5-1.1,11-4.8,15.2C1275.4,1427.2,1270.2,1429.5,1264.8,1429.4z M1197.5,1343.7
			c-1.1,0-2.2,0.4-3,1.2c-0.8,1-1.2,2.3-1,3.6l6.2,59.6c0.3,3.4,3.5,6.4,6.7,6.4h58.3c1.1,0,2.2-0.4,3-1.2c0.8-1,1.2-2.3,1-3.6
			l-6.2-59.6c-0.3-3.4-3.5-6.4-6.7-6.4H1197.5z"/>
		<polygon class="st7" points="1233.8,1408.4 1210.6,1385.2 1223,1372.9 1232,1381.9 1283.8,1313.9 1297.7,1324.5 		"/>
		<path d="M1855,1515h-493.9c-6.9,0-13.1-5.7-13.9-12.8l-0.1-1.2c-0.7-7.1,4.3-12.8,11.2-12.8h493.9c6.9,0,13.1,5.7,13.9,12.8
			l0.1,1.2C1866.9,1509.3,1861.9,1515,1855,1515z"/>
		<path d="M1781.4,1574h-415.2c-6.6-0.2-12-5.2-12.7-11.8l-0.3-3.3c-0.7-6.5,3.9-11.8,10.3-11.8h415.2c6.6,0.2,12,5.2,12.7,11.8
			l0.3,3.3C1792.4,1568.7,1787.8,1574,1781.4,1574z"/>
		<path d="M1280,1575.1h-58.3c-11.2-0.2-20.5-8.7-21.6-19.8l-6.2-59.6c-0.6-5.5,1.1-11,4.8-15.2c3.6-4,8.7-6.2,14.1-6.2h58.3
			c11.2,0.2,20.5,8.7,21.6,19.8l6.2,59.6c0.6,5.5-1.1,11-4.8,15.2C1290.5,1572.9,1285.4,1575.2,1280,1575.1z M1212.7,1489.4
			c-1.1,0-2.2,0.4-3,1.2c-0.8,1-1.2,2.3-1,3.6l6.2,59.6c0.4,3.4,3.5,6.4,6.7,6.4h58.3c1.1,0,2.2-0.4,3-1.2c0.8-1,1.2-2.3,1-3.6
			l-6.2-59.6c-0.3-3.4-3.5-6.4-6.7-6.4H1212.7z"/>
		<path d="M1869.8,1658h-493.9c-6.9,0-13.1-5.7-13.9-12.8l-0.1-1.2c-0.7-7.1,4.3-12.8,11.2-12.8H1867c6.9,0,13.1,5.7,13.9,12.8
			l0.1,1.2C1881.8,1652.3,1876.7,1658,1869.8,1658z"/>
		<path d="M1796.3,1716.9h-415.2c-6.6-0.2-12-5.2-12.7-11.8l-0.3-3.3c-0.7-6.5,3.9-11.8,10.3-11.8h415.2c6.6,0.2,12,5.2,12.7,11.8
			l0.3,3.3C1807.2,1711.7,1802.6,1716.9,1796.3,1716.9z"/>
		<path d="M1294.8,1718.1h-58.3c-11.2-0.2-20.5-8.7-21.6-19.8l-6.2-59.6c-0.6-5.5,1.1-11,4.8-15.2c3.6-4,8.7-6.2,14.1-6.2h58.3
			c11.2,0.2,20.5,8.7,21.6,19.8l6.2,59.6c0.6,5.5-1.1,11-4.8,15.2C1305.4,1715.9,1300.2,1718.2,1294.8,1718.1z M1227.6,1632.4
			c-1.1,0-2.2,0.4-3,1.2c-0.8,1-1.2,2.3-1,3.6l6.2,59.6c0.3,3.4,3.5,6.4,6.7,6.4h58.3c1.1,0,2.2-0.4,3-1.2c0.8-1,1.2-2.3,1-3.6
			l-6.2-59.6c-0.4-3.4-3.5-6.4-6.7-6.4H1227.6z"/>
		<path class="st8" d="M1291.5,1922c35.1,0,60.6-33.6,56.9-75.1H2170c3.7,41.5-21.8,75.1-56.9,75.1H1291.5z"/>
		<g>
			<defs>
				<path id="SVGID_1_" d="M2463.8,274.3c-230.4-173-725.2,30.4-1128.1,106.5S360,881.4,733.8,1581.8s671.3,790.8,1337.5,662.6
					s969.3-659.8,740.7-996.5S2686.7,441.6,2463.8,274.3z"/>
			</defs>
			<clipPath id="SVGID_2_">
				<use xlink:href="#SVGID_1_"  style="overflow:visible;"/>
			</clipPath>
			<g class="st9">
				<path class="st10" d="M2097.5,2355.4c0.9,0.4,20.6,10.6,13.8,31.6h-45.8c1-8.6,6-16.1,13.4-20.5
					C2086.2,2362.2,2092.2,2358.6,2097.5,2355.4z"/>
				<path class="st10" d="M2302,2325.7v32.3c-41.9-0.5-37.3-37.7-37.3-37.7c16.8-1.1,26.8-2.5,28.6-2.8c0.1,0,0.2,0,0.3,0h0.1
					C2298.3,2317.5,2302,2321.2,2302,2325.7z"/>
				<path class="st11" d="M2146.8,2324.4c3.4-2.1,7.1-4.5,11.1-7c0,0,4.7,0.6,13,1.4c12,1.1,31.6,2.6,55.1,2.6c2.1,0,4.1,0,6.1-0.1
					c12.7-0.1,23.6-0.6,32.6-1.1c0,0-4.6,37.2,37.3,37.7v29h-190.7c6.8-21.1-12.9-31.2-13.8-31.6c11.1-6.8,19.4-12,30.6-19.1
					C2133.4,2332.9,2139.5,2329,2146.8,2324.4z"/>
				<path class="st12" d="M2609.6,2293.8v23.7c-0.1,0-0.2,0-0.3,0c-3.2,0.4-32.4,3.5-61.2,3.9c-2,0.1-4,0.1-6.1,0.1
					c-24.7,0-45.1-1.6-56.9-2.7c-6.9-0.7-10.7-1.3-10.7-1.3v-23.7L2609.6,2293.8L2609.6,2293.8z"/>
				<path class="st13" d="M2617.6,2280.7l-19.2-633.3l-2.4,0.1c-5.1,0-10.2-0.5-15.2-1.5c-36.5-7.3-62.7-39.3-62.7-76.4H2378
					l29.7,249.4l55,461.8l1.6,13H2618L2617.6,2280.7z"/>
				<path class="st12" d="M2293.5,2293.8v23.7c-0.1,0-0.2,0-0.3,0c-3.2,0.4-32.4,3.5-61.2,3.9c-2,0.1-4,0.1-6.1,0.1
					c-23.4,0-43.1-1.4-55.1-2.6c-8-0.8-12.5-1.4-12.5-1.4v-23.7L2293.5,2293.8L2293.5,2293.8z"/>
				<path class="st13" d="M2378,1569.5h-56.4c0,36.2-22.8,66.6-63.2,75.4c-8.2,1.7-16.6,2.6-25,2.6l-83.5,633.3l-1.7,13h156.8
					l2.8-13l100-461.8L2378,1569.5z"/>
				<path class="st14" d="M2303,2387v1.1c0,5.8-4.7,10.5-10.6,10.5h-219.8c-2.2,0-4.3-0.9-5.9-2.4c-1.6-1.5-2.4-3.6-2.4-5.8
					c0-1.1,0.1-2.2,0.2-3.3H2303z"/>
				<polygon class="st14" points="2378,1569.5 2387.6,1911.9 2407.7,1819 				"/>
				<path class="st14" d="M2596,1569.5l2.4,77.9l-2.4,0.1c-5.1,0-10.2-0.5-15.2-1.5c-36.5-7.3-62.7-39.3-62.7-76.4H2596z"/>
				<path class="st14" d="M2243.7,1569.5h77.9c0,36.2-22.8,66.6-63.2,75.4c-8.2,1.7-16.6,2.6-25,2.6L2243.7,1569.5z"/>
				<path class="st11" d="M2612.1,2317.4l14.2,49.1h-0.5c-9.1-15.1-27.1-11.1-48.2-11.1h-71.3c-21.1,0-39.8-4-48.9,11.1l0,0
					l13.8-49.1H2612.1z"/>
				<path class="st10" d="M2632.1,2388.5v3.4h-181v-3.4c0-7.8,2.2-15.4,6.3-22l0,0c9.1-15.1,29.7-11.1,50.8-11.1h71.3
					c21.1,0,37.2-4,46.3,11.1C2629.9,2373.1,2632,2380.7,2632.1,2388.5z"/>
				<rect x="2449.7" y="2387" class="st14" width="183.7" height="11.5"/>
				<path class="st3" d="M2579.9,2326.3h-79c-0.7,0-1.3-0.6-1.3-1.3s0.6-1.3,1.3-1.3h79c0.7,0,1.3,0.6,1.3,1.3
					S2580.6,2326.3,2579.9,2326.3z"/>
				<path class="st3" d="M2579.9,2333.9h-79c-0.7,0-1.3-0.6-1.3-1.3s0.6-1.3,1.3-1.3h79c0.7,0,1.3,0.6,1.3,1.3
					S2580.6,2333.9,2579.9,2333.9z"/>
				<path class="st3" d="M2579.9,2341.4h-79c-0.7,0-1.3-0.6-1.3-1.3s0.6-1.3,1.3-1.3h79c0.7,0,1.3,0.6,1.3,1.3
					S2580.6,2341.4,2579.9,2341.4z"/>
				<path class="st3" d="M2337.6,1143.7c0,0-71.4,6.5-104.3,36.6l30.1,24.3L2337.6,1143.7z"/>
				<path class="st3" d="M2636.7,1880.7c-71.8,11.2-134.8,17.5-189.2,20.7c-19.3,1.1-37.6,1.9-54.6,2.2
					c-142.5,3.2-210.8-16.3-210.8-16.3l40.4-349.3l8.5-169.8l3-59.7c0-8.5,0.5-16.9,1.6-25.3c0.6-4.7,1.3-9.2,2.2-13.8
					c11.4-57.8,47.6-106.4,99.9-125.6c14.6-5.4,30-8.3,45.6-8.8c1.6-0.1,3.3-0.1,4.9-0.1h63.3c4.1,0,8.1,0.2,12.1,0.5
					c10.5,0.8,20.8,2.8,30.9,5.9l0,0c62.5,19.2,104.3,79.9,110.9,149.3c0.1,1,0.2,2,0.3,2.9c0.4,5.1,0.6,10.3,0.6,15.4v0.8l11,228.3
					L2636.7,1880.7z"/>
				<path class="st15" d="M2494.4,1203.6l-20.8,11.8l15.3,14.3l-96,239.6l-57.4-238.7l11.4-11.4l-20-6.3
					c-9.9-27,10.8-69.2,10.8-69.2c14.6-5.4,30-8.3,45.6-8.8c1.6-0.1,3.3-0.1,4.9-0.1h63.3c4.1,0,8.1,0.2,12.1,0.5
					c10.5,0.8,20.8,2.8,30.9,5.9l0,0C2505,1174.4,2494.4,1203.6,2494.4,1203.6z"/>
				<polygon class="st5" points="2379.5,1191 2411.7,1295.5 2453.1,1186.9 2442.2,1176.3 2420.7,1189 2397.2,1173.8 				"/>
				<path class="st14" d="M2370.9,1135.9c0,0-10.5,45.5,2.8,60.7l23.4-22.8c0,0,10.3,12,23.5,15.2c7.6-3.4,14.8-7.6,21.5-12.7
					l21.2,20.3c0,0,10-16.9,10.2-60.1C2473.6,1136.5,2405.1,1130,2370.9,1135.9z"/>
				<polygon class="st15" points="2392.9,1469.3 2392.9,1903.5 2401,1420.8 				"/>
				<circle class="st16" cx="2514.9" cy="1278.6" r="21.6"/>
				<path class="st14" d="M2502.2,1277.8c-0.4,7,4.9,13,11.8,13.4c7,0.4,13-4.9,13.4-11.8c0.4-7-4.9-13-11.8-13.4c0,0,0,0,0,0
					C2508.7,1265.5,2502.7,1270.8,2502.2,1277.8z"/>
				<path d="M2323.6,1346.8c-0.7,0-1.3,0-1.9-0.1l0.3-5c13,0.8,24.8-8.7,26.3-21.2l8.2-68.3c1.3-10.4-1.7-21-8.4-29.1
					c-10.9-13.5-30.6-15.7-44.1-4.8c-0.7,0.6-1.5,1.2-2.2,1.9c-7.6,7.3-11.9,17.3-11.9,27.9l-0.4,68.8
					c-0.1,12.6,10.4,23.5,23.4,24.3l-0.3,5c-15.9-1-28.2-13.9-28.1-29.3l0.4-68.8c0-11.9,4.9-23.3,13.5-31.5
					c14.5-13.9,37.5-13.5,51.5,1c0.7,0.8,1.4,1.5,2.1,2.4c7.5,9.2,11,21.1,9.5,32.9l-8.2,68.3
					C2351.4,1335.8,2338.6,1346.8,2323.6,1346.8z"/>
				<path class="st16" d="M2327.3,1349.8l-1.8-0.1c-2.5-0.2-4.3-2.3-4.2-4.7l0.1-1.8c0.2-2.5,2.3-4.3,4.7-4.2l1.8,0.1
					c2.5,0.2,4.3,2.3,4.2,4.7l-0.1,1.8C2331.9,1348.1,2329.8,1349.9,2327.3,1349.8L2327.3,1349.8z"/>
				<path class="st16" d="M2315.3,1334.4l1.8,0.1c2.5,0.1,4.3,2.3,4.2,4.7l-0.1,1.8c-0.1,2.5-2.3,4.3-4.7,4.2l-1.8-0.1
					c-2.5-0.1-4.3-2.3-4.2-4.7l0.1-1.8C2310.7,1336.1,2312.8,1334.2,2315.3,1334.4z"/>
				<path d="M2518.7,1257.2l-5-0.3l3.9-69.5c-0.1-31.6-24.5-57.8-56-60.1l-66.1-5.3c-33.5-2.7-62.8,22.3-65.4,55.8
					c0,0.3,0,0.7-0.1,1l-1.9,30.2l-5-0.3l1.9-30.2c2.3-36.3,33.5-63.8,69.8-61.5c0.4,0,0.7,0,1.1,0.1l66.1,5.2
					c34.1,2.7,60.4,31,60.6,65.2v0.2L2518.7,1257.2z"/>
				<path class="st12" d="M2462.8,1140.1c0,0,0.9,26.4-35.3,26.4s-40.5-24.1-40.5-24.1l-3-16.5l-2.8-10.8l-2.9-11.2v-0.1l-10.6-40.7
					l105.8-9.3L2462.8,1140.1z"/>
				<path class="st12" d="M2479.6,1022.2c-1.8,49.2-32.7,94.7-81.9,92.9s-87.3-1.5-96.3-99.3c-4.5-49,43.1-87.7,92.3-85.9
					C2442.9,931.6,2481.4,972.9,2479.6,1022.2C2479.6,1022.1,2479.6,1022.1,2479.6,1022.2z"/>
				<path class="st5" d="M2420.9,897.4c0,0-1.1-70.9-106.5-66c-97.1,4.5-101.8,225.6,72.8,143.3c15.1-7.3,32.5-8.4,48.5-3.2
					c2.2,0.7,4.3,1.5,6.4,2.5c9.4,4.6,8,30.8,8,30.8s12.5-9.9,16.1,7.3s-12.4,19.7-12.4,19.7l10.5,44.6c0,0,16.7-27.2,28.1-74.5
					C2503.5,955.9,2465.8,883.4,2420.9,897.4z"/>
				<path class="st17" d="M2386.7,1138.1l-5.4-23c0,0,56.7,4.6,77.1-29.8C2458.4,1085.3,2458,1132.1,2386.7,1138.1z"/>
				<path class="st18" d="M1675.1,868.4l17.1,37l85.6,184.9c0,0,97.7,30.3,150-34.6s-14.3-133.7-14.3-133.7l-198.6-44.9
					L1675.1,868.4z"/>
				<polygon class="st19" points="1777.8,1090.3 2404.7,1596.4 2438.5,1554.2 1825.6,1059.5 1828.3,1084.8 				"/>
				<polygon class="st19" points="1893.6,975.4 2506.6,1470.1 2540.4,1428.2 1913.5,922.2 1918.9,972.5 				"/>
				<polygon class="st1" points="1825.6,1059.5 2438.5,1554.2 2506.6,1470.1 1893.6,975.4 1868.4,978.1 1873.6,1028.6 
					1823.1,1034.2 				"/>
				<path class="st20" d="M2570.8,1460.6c6.8-8.4,5.5-20.8-2.9-27.6c0,0-0.1,0-0.1-0.1l-3.6-2.9c-8.5-6.8-21-5.4-27.8,3.1l-29.9,37
					l-34.1,42.6l-64.2,79.8c-6.7,8.5-5.3,20.9,3.2,27.7l3.6,2.9c8.3,6.7,20.4,5.5,27.3-2.5c0.2-0.5,0.4-0.9,0.8-1.2l63.5-78.9
					L2570.8,1460.6z"/>
				<path class="st21" d="M2606.3,1486.3c6-8,4.5-20.1-3.6-26.6l-3.8-3c-8.5-6.8-20.8-5.4-27.5,3.1c0,0,0,0,0,0l-0.7,0.8l-64.2,79.8
					l-63.9,79.8l-0.3,0.4c-5.9,8.4-4.3,20,3.8,26.3l3.6,2.9c8,6.5,19.6,5.7,26.7-1.7c0.2-0.5,0.5-1,0.9-1.4l128.3-159.5
					L2606.3,1486.3z"/>
				<path class="st20" d="M2633.2,1484.1c-8.2-6.3-19.8-5.3-26.9,2.2c-0.1,0.4-0.3,0.7-0.5,1L2477.6,1647c-0.3,0.4-0.7,0.8-1.1,1.1
					c-5.8,8.5-4.1,20,4,26.4l3.6,2.9c8.5,6.7,20.8,5.3,27.6-3.1l128.5-159.4l0.3-0.7c6.2-8.5,4.7-20.4-3.4-27.1L2633.2,1484.1z"/>
				<path class="st22" d="M2708.3,1561.5l-64.2-51.8l-3.7,4.6l-0.3,0.7l-128.5,159.4l-3.9,5.1l64.3,51.7c22.7,18.1,55.6,14.6,73.6-8
					l70.9-87.9c18.1-22.6,14.5-55.6-8.1-73.7C2708.4,1561.6,2708.3,1561.5,2708.3,1561.5z"/>
				<path d="M1675.1,868.4l17.1,37c11.5-5.4,19.9-15.8,22.7-28.2L1675.1,868.4z"/>
				<path class="st17" d="M2309.2,1329l-19.8,6.7l-12-35.4c-1.9-5.5,1-11.4,6.5-13.3c0,0,0,0,0.1,0l0,0c5.5-1.9,11.4,1.1,13.3,6.5
					c0,0,0,0,0,0L2309.2,1329z"/>
				<path class="st3" d="M2520.4,1327.6c-4.1,41.1-28.2,71.8-76.4,57.6s-125.4-60.4-125.4-60.4l-2.9,7.2l-23.1,57l-4.6,11.3
					c102.4,134.7,295.5,130.9,326.9,91.7s31.9-116.7-4.9-236.6c0,0-21.1-82.5-98.8-105.3c0,0,44.1,22.9,74.1,84.6
					S2520.4,1327.6,2520.4,1327.6z"/>
				<path class="st23" d="M2423.1,1377.8c0,0,76.6,2.8,100.9-72.3C2524.1,1305.6,2530.6,1423.7,2423.1,1377.8z"/>
				<path class="st23" d="M2288,1400.4c0,0,35.6,81.4,153.5,138.4s173.4-46.8,173.4-46.8l0,0c0,0-44.2,42-151.9,16.5
					S2288,1400.4,2288,1400.4z"/>
				<path class="st12" d="M2223.4,1348.4l3,2.3c-1.2,4.7,0.4,9.6,4.2,12.6l12.8,10c1.3,1.2,2.7,2.3,4.2,3.3l3.4,2.7
					c2.4,1.9,5.5,2.8,8.5,2.5l17.4,6.2c5.1,1.8,10.5,2.2,15.8,1.1l23.1-57c-0.1-0.1-0.1-0.1-0.2-0.2l-66.2-37.8
					c-5.2-4.1-12.7-3.3-16.9,1.9c-3.2,4-3.5,9.6-0.7,13.9c-6.6,0.8-11.3,6.8-10.4,13.4c0.3,2.2,1.1,4.3,2.5,6
					c-0.9,0.6-1.7,1.4-2.4,2.3C2217.2,1336.7,2218.1,1344.3,2223.4,1348.4z"/>
				
					<rect x="2245.9" y="1299.9" transform="matrix(0.4918 -0.8707 0.8707 0.4918 -6.077 2628.0596)" class="st17" width="5" height="38.6"/>
				
					<rect x="2237.6" y="1319" transform="matrix(0.4918 -0.8707 0.8707 0.4918 -26.8611 2630.5547)" class="st17" width="5" height="38.6"/>
				
					<rect x="2246.6" y="1351.9" transform="matrix(0.5101 -0.8601 0.8601 0.5101 -78.1611 2606.7073)" class="st17" width="5" height="40"/>
				<path class="st12" d="M2044.8,1290L2044.8,1290c-2.5-2.2-5.9-3.2-9.2-2.8l0.2-0.2c-8.1-6.9-14.9-15.1-20-24.4
					c-5.9,3.2-13.3,1-16.5-5c-0.4-0.8-0.8-1.7-1-2.6l-2.3-2c-3.9-3.3-9.7-2.8-13,1.1c0,0,0,0,0,0l-11.4,13.4c-3.3,3.9-2.8,9.7,1,13
					c0,0,0,0,0,0l4.6,3.9c0.9,0.7,1.9,1.3,3,1.7c-3.2,5.9-1.1,13.3,4.8,16.5c2.3,1.2,4.9,1.7,7.5,1.4c-0.5,6.7,4.4,12.5,11.1,13.1
					c1.5,0.1,3,0,4.5-0.5c-1.6,6.5,2.4,13.1,9,14.7c4.5,1.1,9.2-0.5,12.1-4l17-20C2050.5,1302,2049.9,1294.4,2044.8,1290z"/>
				
					<rect x="2000.6" y="1301.1" transform="matrix(0.6558 -0.7549 0.7549 0.6558 -287.6015 1973.9265)" class="st17" width="40.6" height="2.5"/>
				
					<rect x="1984.6" y="1285.8" transform="matrix(0.6233 -0.782 0.782 0.6233 -250.6903 2053.7783)" class="st17" width="43.7" height="2.5"/>
				
					<rect x="1976.6" y="1272.7" transform="matrix(0.6501 -0.7598 0.7598 0.6501 -271.0013 1959.3278)" class="st17" width="30.7" height="2.5"/>
				<path class="st3" d="M2035.1,1319.4c0,0,1.9,3.5,58.9,70.3s89.6,81.6,132.3,62.8l-180.1-145.2L2035.1,1319.4z"/>
			</g>
		</g>
		<text transform="matrix(0.9116 -1.001755e-02 -0.1903 0.9817 1269.1104 842.609)" class="st24 st25">REMIND</text>
		<text transform="matrix(0.9116 -1.001755e-02 -0.1903 0.9817 1412.5101 898.5596)" class="st24 st26">ME</text>
	</g>
</g>
</svg>
