<svg xmlns="http://www.w3.org/2000/svg" xmlns:xlink="http://www.w3.org/1999/xlink" viewBox="0 0 3500 2500"><defs><style>.cls-1{mask:url(#mask);filter:url(#luminosity-noclip-7);}.cls-10,.cls-12,.cls-2,.cls-28,.cls-4,.cls-6,.cls-8{mix-blend-mode:multiply;}.cls-2{fill:url(#linear-gradient);}.cls-3{mask:url(#mask-2);filter:url(#luminosity-noclip-12);}.cls-4{fill:url(#linear-gradient-2);}.cls-5{mask:url(#mask-3);filter:url(#luminosity-noclip-8);}.cls-6{fill:url(#linear-gradient-3);}.cls-7{mask:url(#mask-4);filter:url(#luminosity-noclip-9);}.cls-8{fill:url(#linear-gradient-4);}.cls-9{mask:url(#mask-5);filter:url(#luminosity-noclip-10);}.cls-10{fill:url(#linear-gradient-5);}.cls-11{mask:url(#mask-6);filter:url(#luminosity-noclip-11);}.cls-12{fill:url(#linear-gradient-6);}.cls-13{fill:none;}.cls-14{isolation:isolate;}.cls-15{fill:#3cc1b7;}.cls-16{clip-path:url(#clip-path);}.cls-17{fill:#13375b;}.cls-18{fill:#466eb5;}.cls-19{fill:#fae0b2;}.cls-20,.cls-46{fill:#fff;}.cls-21{fill:#c4c4c4;}.cls-22{fill:#db4531;}.cls-23{fill:#f47458;}.cls-24{fill:#86b1f2;}.cls-25{fill:#355389;}.cls-26{fill:#f48561;}.cls-27{mask:url(#mask-7);}.cls-28{fill:url(#linear-gradient-7);}.cls-29{fill:#466eb6;}.cls-30{fill:#9bc1f9;}.cls-31{fill:#efeeee;}.cls-32{fill:#f8af5f;}.cls-33{mask:url(#mask-8);}.cls-34,.cls-36,.cls-39,.cls-42,.cls-44,.cls-46,.cls-49{mix-blend-mode:soft-light;}.cls-34{fill:url(#linear-gradient-8);}.cls-35{mask:url(#mask-9);}.cls-36{fill:url(#linear-gradient-9);}.cls-37{fill:#ef9f22;}.cls-38{mask:url(#mask-10);}.cls-39{fill:#1c5569;}.cls-40{fill:#50bfa5;}.cls-41{mask:url(#mask-11);}.cls-42{fill:#058192;}.cls-43{mask:url(#mask-12);}.cls-44{fill:url(#linear-gradient-10);}.cls-45{fill:#184655;}.cls-47{fill:#adc3c9;}.cls-48{fill:#d0e4ea;}.cls-50{filter:url(#luminosity-noclip-6);}.cls-51{filter:url(#luminosity-noclip-5);}.cls-52{filter:url(#luminosity-noclip-4);}.cls-53{filter:url(#luminosity-noclip-3);}.cls-54{filter:url(#luminosity-noclip-2);}.cls-55{filter:url(#luminosity-noclip);}</style><filter id="luminosity-noclip" x="1721.04" y="-9442" width="468.95" height="32766" filterUnits="userSpaceOnUse" color-interpolation-filters="sRGB"><feFlood flood-color="#fff" result="bg"/><feBlend in="SourceGraphic" in2="bg"/></filter><mask id="mask" x="1721.04" y="-9442" width="468.95" height="32766" maskUnits="userSpaceOnUse"><g class="cls-55"/></mask><linearGradient id="linear-gradient" x1="2249.27" y1="1673.42" x2="1565.51" y2="1682.04" gradientUnits="userSpaceOnUse"><stop offset="0"/><stop offset="0.14" stop-color="#040404"/><stop offset="0.26" stop-color="#0f0f0f"/><stop offset="0.39" stop-color="#222"/><stop offset="0.51" stop-color="#3d3d3d"/><stop offset="0.63" stop-color="#5f5f5f"/><stop offset="0.75" stop-color="#898989"/><stop offset="0.86" stop-color="#bcbcbc"/><stop offset="0.98" stop-color="#f4f4f4"/><stop offset="1" stop-color="#fff"/></linearGradient><filter id="luminosity-noclip-2" x="1302.39" y="-9442" width="415.3" height="32766" filterUnits="userSpaceOnUse" color-interpolation-filters="sRGB"><feFlood flood-color="#fff" result="bg"/><feBlend in="SourceGraphic" in2="bg"/></filter><mask id="mask-2" x="1302.39" y="-9442" width="415.3" height="32766" maskUnits="userSpaceOnUse"><g class="cls-54"/></mask><linearGradient id="linear-gradient-2" x1="1440.65" y1="468.31" x2="1594.81" y2="843.8" gradientTransform="translate(31.67 -173.99) rotate(1.7)" gradientUnits="userSpaceOnUse"><stop offset="0" stop-color="#fff"/><stop offset="0"/><stop offset="0.04" stop-color="#101010"/><stop offset="0.19" stop-color="#4f4f4f"/><stop offset="0.35" stop-color="#848484"/><stop offset="0.5" stop-color="#b0b0b0"/><stop offset="0.64" stop-color="#d3d3d3"/><stop offset="0.77" stop-color="#ebebeb"/><stop offset="0.9" stop-color="#fafafa"/><stop offset="1" stop-color="#fff"/></linearGradient><filter id="luminosity-noclip-3" x="2041.05" y="-9442" width="272.93" height="32766" filterUnits="userSpaceOnUse" color-interpolation-filters="sRGB"><feFlood flood-color="#fff" result="bg"/><feBlend in="SourceGraphic" in2="bg"/></filter><mask id="mask-3" x="2041.05" y="-9442" width="272.93" height="32766" maskUnits="userSpaceOnUse"><g class="cls-53"/></mask><linearGradient id="linear-gradient-3" x1="3361.22" y1="-121.33" x2="3558.09" y2="-369.36" gradientTransform="translate(-1214.45 1375.54) rotate(-8.55)" gradientUnits="userSpaceOnUse"><stop offset="0" stop-color="#fff"/><stop offset="0.1" stop-color="#fafafa"/><stop offset="0.23" stop-color="#ebebeb"/><stop offset="0.36" stop-color="#d3d3d3"/><stop offset="0.5" stop-color="#b0b0b0"/><stop offset="0.65" stop-color="#848484"/><stop offset="0.81" stop-color="#4f4f4f"/><stop offset="0.96" stop-color="#101010"/><stop offset="1"/><stop offset="1" stop-color="#fff"/></linearGradient><filter id="luminosity-noclip-4" x="2030.72" y="-9442" width="292.4" height="32766" filterUnits="userSpaceOnUse" color-interpolation-filters="sRGB"><feFlood flood-color="#fff" result="bg"/><feBlend in="SourceGraphic" in2="bg"/></filter><mask id="mask-4" x="2030.72" y="-9442" width="292.4" height="32766" maskUnits="userSpaceOnUse"><g class="cls-52"/></mask><linearGradient id="linear-gradient-4" x1="3602.61" y1="-321.82" x2="3341.07" y2="-188.64" gradientTransform="translate(5644.4 357.19) rotate(-180)" xlink:href="#linear-gradient-2"/><filter id="luminosity-noclip-5" x="2285.27" y="-9442" width="268.03" height="32766" filterUnits="userSpaceOnUse" color-interpolation-filters="sRGB"><feFlood flood-color="#fff" result="bg"/><feBlend in="SourceGraphic" in2="bg"/></filter><mask id="mask-5" x="2285.27" y="-9442" width="268.03" height="32766" maskUnits="userSpaceOnUse"><g class="cls-51"/></mask><linearGradient id="linear-gradient-5" x1="-989.09" y1="14396.87" x2="-786.32" y2="14379.84" gradientTransform="matrix(-1, 0.03, -0.03, -1, 1982.38, 15613.41)" xlink:href="#linear-gradient-3"/><filter id="luminosity-noclip-6" x="2396.33" y="-9442" width="214.42" height="32766" filterUnits="userSpaceOnUse" color-interpolation-filters="sRGB"><feFlood flood-color="#fff" result="bg"/><feBlend in="SourceGraphic" in2="bg"/></filter><mask id="mask-6" x="2396.33" y="-9442" width="214.42" height="32766" maskUnits="userSpaceOnUse"><g class="cls-50"/></mask><linearGradient id="linear-gradient-6" x1="1412.55" y1="14562.23" x2="1676.84" y2="14562.23" gradientTransform="translate(-907.29 15396.77) rotate(-160.48)" xlink:href="#linear-gradient-3"/><clipPath id="clip-path"><path class="cls-13" d="M2463.78,274.3c-230.41-173-725.2,30.42-1128.14,106.48S360,881.39,733.81,1581.79s671.32,790.83,1337.52,662.63,969.25-659.77,740.73-996.51S2686.69,441.62,2463.78,274.3Z"/></clipPath><filter id="luminosity-noclip-7" x="1721.04" y="917.02" width="468.95" height="1517.1" filterUnits="userSpaceOnUse" color-interpolation-filters="sRGB"><feFlood flood-color="#fff" result="bg"/><feBlend in="SourceGraphic" in2="bg"/></filter><mask id="mask-7" x="1721.04" y="917.02" width="468.95" height="1517.1" maskUnits="userSpaceOnUse"><g class="cls-1"><path class="cls-2" d="M2165.93,2410l-28.14-7.73a23.88,23.88,0,0,1-14.13-10.68l-6.36-14-.2.08c-2.09-7.6-3.26-14.43-3.41-15.35l19.71-.43a3.79,3.79,0,0,0,3.69-3.85l-.31-14a3.77,3.77,0,0,0-3.85-3.69l-10.62.23-.69-404.83c45.92-4.86,68.37-11.27,68.37-11.27l-40.25-347.63-4.83-96.4c18-7,30.53-22.15,32.05-49.94h0a86.44,86.44,0,0,0,1.62-17.36c.07-38.58-7-99.71-31.32-145.29,1.44-60.47-39.67-164.52-57.23-221.08-22.47-72.32-56.3-124.29-94.08-128.57-127.67-14.54-113.48,103.87-135.58,164s-114,39.73-101.83,167c.63,6.53,1.4,12.78,2.29,18.8-1.19,2.31-2.33,4.67-3.39,7.1-38,86.77-50.52,148.73-16.9,190.92a79,79,0,0,0,20.58,26.47l-4.06,84.43L1737.53,1918q24.54,3.82,47.68,6.9l-.71,418h9.19l-24,.52a3.79,3.79,0,0,0-3.69,3.85l.31,14a3.79,3.79,0,0,0,3.85,3.69l18.3-.4.37,15.42.19,7.67h0l.23,9.76h-.37a9.28,9.28,0,0,0-9.46,9.09l-.29,14.11a9.89,9.89,0,0,0,9.69,10.08l35.1.71,8.86-12.86,16.37,13.37,110.38,2.22a3.21,3.21,0,0,0,3.14-4.12,29.45,29.45,0,0,0-20.43-20l-28.14-7.73a23.91,23.91,0,0,1-14.13-10.68l-6.36-14-.19.08c-2.09-7.6-3.26-14.43-3.42-15.35l19.72-.43a3.78,3.78,0,0,0,3.68-3.85l-.3-14a3.79,3.79,0,0,0-3.85-3.69l-14.47.32c14.29-92.87,36.74-243.25,58.67-390l2,13.17c2.87,19.24,5.75,38.5,8.61,57.66l6.34,42.38h0c16.21,108.43,31.46,210,42.08,279h5l-24,.52a3.78,3.78,0,0,0-3.69,3.85l.31,14a3.78,3.78,0,0,0,3.84,3.69l18.3-.4.8,32.85h-.37a9.29,9.29,0,0,0-9.47,9.09l-.28,14.11a9.88,9.88,0,0,0,9.68,10.08l35.11.71,8.85-12.86,16.37,13.37,110.38,2.22a3.21,3.21,0,0,0,3.14-4.12A29.43,29.43,0,0,0,2165.93,2410Z"/></g></mask><linearGradient id="linear-gradient-7" x1="2249.27" y1="1673.42" x2="1565.51" y2="1682.04" gradientUnits="userSpaceOnUse"><stop offset="0" stop-color="#fff"/><stop offset="0.14" stop-color="#fbfbfb"/><stop offset="0.26" stop-color="#f0f0f0"/><stop offset="0.39" stop-color="#ddd"/><stop offset="0.51" stop-color="#c2c2c2"/><stop offset="0.63" stop-color="#a0a0a0"/><stop offset="0.75" stop-color="#767676"/><stop offset="0.86" stop-color="#434343"/><stop offset="0.98" stop-color="#0b0b0b"/><stop offset="1"/></linearGradient><filter id="luminosity-noclip-8" x="2041.05" y="452.35" width="272.93" height="296.91" filterUnits="userSpaceOnUse" color-interpolation-filters="sRGB"><feFlood flood-color="#fff" result="bg"/><feBlend in="SourceGraphic" in2="bg"/></filter><mask id="mask-8" x="2041.05" y="452.35" width="272.93" height="296.91" maskUnits="userSpaceOnUse"><g class="cls-5"><path class="cls-6" d="M2041.82,538.16l28.83,191.78A22.71,22.71,0,0,0,2096.46,749l198.21-29.79a22.72,22.72,0,0,0,19.06-25.81l-28.82-191.77a67.62,67.62,0,0,0-34-49.21l-.12-.07L2059.91,481l-.09.11A67.59,67.59,0,0,0,2041.82,538.16Z"/></g></mask><linearGradient id="linear-gradient-8" x1="3361.22" y1="-121.33" x2="3558.09" y2="-369.36" gradientTransform="translate(-1214.45 1375.54) rotate(-8.55)" gradientUnits="userSpaceOnUse"><stop offset="0"/><stop offset="0.11" stop-color="#050505"/><stop offset="0.24" stop-color="#141414"/><stop offset="0.38" stop-color="#2c2c2c"/><stop offset="0.53" stop-color="#4e4e4e"/><stop offset="0.69" stop-color="#7a7a7a"/><stop offset="0.84" stop-color="#afafaf"/><stop offset="1" stop-color="#eaeaea"/><stop offset="1" stop-color="#fff"/></linearGradient><filter id="luminosity-noclip-9" x="2030.72" y="530.78" width="292.4" height="158.59" filterUnits="userSpaceOnUse" color-interpolation-filters="sRGB"><feFlood flood-color="#fff" result="bg"/><feBlend in="SourceGraphic" in2="bg"/></filter><mask id="mask-9" x="2030.72" y="530.78" width="292.4" height="158.59" maskUnits="userSpaceOnUse"><g class="cls-7"><rect class="cls-8" x="2037.99" y="550.77" width="277.86" height="118.61" transform="translate(4420.34 889.82) rotate(171.45)"/></g></mask><linearGradient id="linear-gradient-9" x1="3602.61" y1="-321.82" x2="3341.07" y2="-188.64" gradientTransform="translate(5644.4 357.19) rotate(-180)" gradientUnits="userSpaceOnUse"><stop offset="0" stop-color="#fff"/><stop offset="0" stop-color="#eaeaea"/><stop offset="0.16" stop-color="#afafaf"/><stop offset="0.31" stop-color="#7a7a7a"/><stop offset="0.47" stop-color="#4e4e4e"/><stop offset="0.62" stop-color="#2c2c2c"/><stop offset="0.76" stop-color="#141414"/><stop offset="0.89" stop-color="#050505"/><stop offset="1"/></linearGradient><filter id="luminosity-noclip-10" x="2285.27" y="1076.37" width="268.03" height="260.42" filterUnits="userSpaceOnUse" color-interpolation-filters="sRGB"><feFlood flood-color="#fff" result="bg"/><feBlend in="SourceGraphic" in2="bg"/></filter><mask id="mask-10" x="2285.27" y="1076.37" width="268.03" height="260.42" maskUnits="userSpaceOnUse"><g class="cls-9"><path class="cls-10" d="M2306.71,1194.58l65.63,61.82,65.65,61.84a68.46,68.46,0,0,0,93.88-99.66l-65.65-61.84-65.63-61.82a68.46,68.46,0,1,0-93.88,99.66Z"/></g></mask><filter id="luminosity-noclip-11" x="2396.33" y="1005.8" width="214.42" height="299.65" filterUnits="userSpaceOnUse" color-interpolation-filters="sRGB"><feFlood flood-color="#fff" result="bg"/><feBlend in="SourceGraphic" in2="bg"/></filter><mask id="mask-11" x="2396.33" y="1005.8" width="214.42" height="299.65" maskUnits="userSpaceOnUse"><g class="cls-11"><path class="cls-12" d="M2403,1103.67l38.79,81.41,38.79,81.4a68.46,68.46,0,0,0,123.6-58.9l-38.79-81.39-38.79-81.42a68.46,68.46,0,1,0-123.6,58.9Z"/></g></mask><filter id="luminosity-noclip-12" x="1302.39" y="363.64" width="415.3" height="370.58" filterUnits="userSpaceOnUse" color-interpolation-filters="sRGB"><feFlood flood-color="#fff" result="bg"/><feBlend in="SourceGraphic" in2="bg"/></filter><mask id="mask-12" x="1302.39" y="363.64" width="415.3" height="370.58" maskUnits="userSpaceOnUse"><g class="cls-3"><path class="cls-4" d="M1654.39,377.79c-42.1-19.22-122.65-6.91-143.83,77.27-16.15-85.29-95.82-102.35-139-85.67-65.33,25.24-84.56,91.08-57,160.3,45.45,113.93,187.65,204.53,187.65,204.53s147.32-82,199.45-193C1733.4,473.72,1718.11,406.86,1654.39,377.79Z"/></g></mask><linearGradient id="linear-gradient-10" x1="1440.65" y1="468.31" x2="1594.81" y2="843.8" gradientTransform="translate(31.67 -173.99) rotate(1.7)" xlink:href="#linear-gradient-9"/></defs><title>logi and sign up</title><g class="cls-14"><g id="Object"><polygon class="cls-15" points="1778.74 785.12 1740.4 746.78 1778.74 708.43 1768.84 698.54 1730.5 736.88 1692.16 698.54 1682.26 708.43 1720.61 746.78 1682.26 785.12 1692.16 795.01 1730.5 756.67 1768.84 795.02 1778.74 785.12"/><polygon class="cls-15" points="1352.16 1474.16 1313.82 1435.82 1352.16 1397.47 1342.27 1387.58 1303.93 1425.92 1265.58 1387.58 1255.69 1397.47 1294.03 1435.82 1255.69 1474.16 1265.58 1484.05 1303.92 1445.71 1342.27 1484.05 1352.16 1474.16"/><polygon class="cls-15" points="2788.5 1453.49 2788.5 1399.26 2842.72 1399.26 2842.72 1385.27 2788.5 1385.27 2788.5 1331.04 2774.51 1331.04 2774.51 1385.27 2720.28 1385.27 2720.28 1399.26 2774.51 1399.26 2774.51 1453.49 2788.5 1453.49"/><circle class="cls-15" cx="2374.67" cy="1556.47" r="13.44"/><circle class="cls-15" cx="2303.3" cy="1556.47" r="13.44"/><circle class="cls-15" cx="2231.94" cy="1556.47" r="13.44"/><circle class="cls-15" cx="2160.57" cy="1556.47" r="13.44"/><circle class="cls-15" cx="2089.2" cy="1556.47" r="13.44"/><circle class="cls-15" cx="2089.2" cy="1627.84" r="13.44" transform="translate(-463.92 923.42) rotate(-22.5)"/><circle class="cls-15" cx="2089.2" cy="1699.21" r="13.44"/><circle class="cls-15" cx="2089.2" cy="1770.57" r="13.44" transform="translate(6.84 3549.19) rotate(-80.78)"/><circle class="cls-15" cx="2160.57" cy="1627.84" r="13.44" transform="translate(-458.48 950.73) rotate(-22.5)"/><circle class="cls-15" cx="2160.57" cy="1699.21" r="13.44"/><circle class="cls-15" cx="2160.57" cy="1770.57" r="13.44" transform="translate(66.77 3619.63) rotate(-80.78)"/><circle class="cls-15" cx="2231.94" cy="1627.84" r="13.44" transform="translate(-453.05 978.04) rotate(-22.5)"/><circle class="cls-15" cx="2231.94" cy="1699.21" r="13.44"/><circle class="cls-15" cx="2231.94" cy="1770.57" r="13.44" transform="translate(126.71 3690.08) rotate(-80.78)"/><circle class="cls-15" cx="2303.3" cy="1627.84" r="13.44" transform="translate(189.82 3495.53) rotate(-76.72)"/><circle class="cls-15" cx="2303.3" cy="1699.21" r="13.44"/><circle class="cls-15" cx="2303.3" cy="1770.57" r="13.44" transform="translate(-577.36 2147.27) rotate(-45)"/><circle class="cls-15" cx="2374.67" cy="1627.84" r="13.44" transform="translate(-442.19 1032.66) rotate(-22.5)"/><circle class="cls-15" cx="2374.67" cy="1699.21" r="13.44"/><circle class="cls-15" cx="2374.67" cy="1770.57" r="13.44" transform="translate(246.58 3830.97) rotate(-80.78)"/><circle class="cls-15" cx="2089.2" cy="1841.94" r="13.44"/><circle class="cls-15" cx="2160.57" cy="1841.94" r="13.44"/><circle class="cls-15" cx="2231.94" cy="1841.94" r="13.44"/><circle class="cls-15" cx="2303.3" cy="1841.94" r="13.44"/><circle class="cls-15" cx="2374.67" cy="1841.94" r="13.44"/><circle class="cls-15" cx="1129.66" cy="695.21" r="13.44"/><circle class="cls-15" cx="1129.66" cy="766.57" r="13.44"/><circle class="cls-15" cx="1129.66" cy="837.94" r="13.44"/><circle class="cls-15" cx="1129.66" cy="909.31" r="13.44"/><circle class="cls-15" cx="1129.66" cy="980.67" r="13.44"/><circle class="cls-15" cx="1201.02" cy="980.67" r="13.44"/><circle class="cls-15" cx="1272.39" cy="980.67" r="13.44"/><circle class="cls-15" cx="1343.76" cy="980.67" r="13.44"/><circle class="cls-15" cx="1201.02" cy="909.31" r="13.44"/><circle class="cls-15" cx="1272.39" cy="909.31" r="13.44"/><circle class="cls-15" cx="1343.76" cy="909.31" r="13.44"/><circle class="cls-15" cx="1201.02" cy="837.94" r="13.44" transform="translate(-240.74 1094.68) rotate(-45)"/><circle class="cls-15" cx="1272.39" cy="837.94" r="13.44"/><circle class="cls-15" cx="1201.02" cy="766.57" r="13.44" transform="translate(251.24 1828.65) rotate(-80.74)"/><circle class="cls-15" cx="1415.12" cy="980.67" r="13.44" transform="translate(-278.96 1287.88) rotate(-45)"/><path class="cls-15" d="M2303.3,937.62a15.94,15.94,0,1,1,15.94-15.94A16,16,0,0,1,2303.3,937.62Zm0-26.88a10.94,10.94,0,1,0,10.94,10.94A10.95,10.95,0,0,0,2303.3,910.74Z"/><path class="cls-15" d="M889.32,1447.46a15.94,15.94,0,1,1,15.94-15.94A16,16,0,0,1,889.32,1447.46Zm0-26.87a10.94,10.94,0,1,0,10.94,10.93A10.95,10.95,0,0,0,889.32,1420.59Z"/><path class="cls-15" d="M2451.3,714.47a15.94,15.94,0,1,1,15.94-15.93A15.95,15.95,0,0,1,2451.3,714.47Zm0-26.87a10.94,10.94,0,1,0,10.94,10.94A10.95,10.95,0,0,0,2451.3,687.6Z"/><path class="cls-15" d="M1230.13,2062.62a15.94,15.94,0,1,1,15.94-15.94A15.95,15.95,0,0,1,1230.13,2062.62Zm0-26.87a10.94,10.94,0,1,0,10.94,10.93A10.94,10.94,0,0,0,1230.13,2035.75Z"/><path class="cls-15" d="M2382.73,384A15.94,15.94,0,1,1,2398.67,368,15.95,15.95,0,0,1,2382.73,384Zm0-26.87A10.94,10.94,0,1,0,2393.67,368,10.95,10.95,0,0,0,2382.73,357.09Z"/><path class="cls-15" d="M948.6,802.58a15.94,15.94,0,1,1,15.93-15.93A16,16,0,0,1,948.6,802.58Zm0-26.87a10.94,10.94,0,1,0,10.93,10.94A11,11,0,0,0,948.6,775.71Z"/><path class="cls-15" d="M1847.05,443.89A15.94,15.94,0,1,1,1863,428,16,16,0,0,1,1847.05,443.89Zm0-26.87A10.94,10.94,0,1,0,1858,428,10.95,10.95,0,0,0,1847.05,417Z"/><g class="cls-16"><path class="cls-17" d="M1827.28,1399.15a18.2,18.2,0,0,0,17.23,1.89l.16-.07-2-5.88c-28.7-83.87-63.85-138.49,73.06-176.79a4.59,4.59,0,0,1,.5-.24c8.67-4,15.16-6.52,18.25-7.68l2-.7c26.1-8,49.53-13.64,69.38-14.46h.12c11.83-1.35,20-1.85,20-1.85,43-2.26,83.94,47.49,96.88,81.76,4.39,11.59,8.39,22.13,11.88,31.21,38.75-37.18-22.21-187.19-44.67-259.51s-56.3-124.29-94.08-128.57c-127.67-14.54-113.48,103.87-135.58,164s-114,39.73-101.83,167C1768,1347.63,1809.11,1386.56,1827.28,1399.15Z"/><path class="cls-18" d="M2121.2,1685.9c-36.65,0-78-19.52-79.94-77.51h-139.4c26.64,173,83.56,559.19,110.55,734.51h109.91Z"/><polygon class="cls-17" points="2004.96 1608.4 1970.33 2063.91 1953.36 1950.36 2004.96 1608.4"/><path class="cls-17" d="M1788,1608.4l-2.36,77.5c45.9.06,79.94-29.66,79.94-77.5Z"/><path class="cls-17" d="M2120,1608.4l1.25,77.5c-44.11,0-79.94-27.13-79.94-77.5Z"/><path class="cls-19" d="M1889.94,2362.24s6,37,16.74,38l-117.45-2.36-.87-35.69Z"/><path class="cls-17" d="M1942.2,2410l-28.14-7.73a23.91,23.91,0,0,1-14.13-10.68l-6.36-14L1846,2398.55l-57.25-20.81.24,9.91,30.53,10.37-30.67-.62a9.28,9.28,0,0,0-9.46,9.09l-.29,14.11a9.89,9.89,0,0,0,9.69,10.08l35.1.71,8.86-12.86,16.37,13.37,110.38,2.22a3.21,3.21,0,0,0,3.14-4.12h0A29.45,29.45,0,0,0,1942.2,2410Z"/><path class="cls-19" d="M2113.67,2362.24s6,37,16.74,38L2013,2397.89l-.86-35.69Z"/><path class="cls-17" d="M2165.93,2410l-28.14-7.73a23.88,23.88,0,0,1-14.13-10.68l-6.36-14-47.58,20.93-57.26-20.81.24,9.91,30.53,10.37-30.66-.62a9.29,9.29,0,0,0-9.47,9.09l-.28,14.11a9.88,9.88,0,0,0,9.68,10.08l35.11.71,8.85-12.86,16.37,13.37,110.38,2.22a3.21,3.21,0,0,0,3.14-4.12h0A29.43,29.43,0,0,0,2165.93,2410Z"/><path class="cls-17" d="M2132.93,2340.39l-139.56,3a3.78,3.78,0,0,0-3.68,3.85l.3,14a3.79,3.79,0,0,0,3.85,3.69l139.56-3a3.79,3.79,0,0,0,3.69-3.85l-.31-14A3.77,3.77,0,0,0,2132.93,2340.39Z"/><path class="cls-18" d="M1785.62,1685.9c36.65,0,78-19.52,79.94-77.51H2005c-26.65,173-83.57,559.19-110.56,734.51H1784.5Z"/><path class="cls-17" d="M1909.21,2340.39l-139.56,3a3.79,3.79,0,0,0-3.69,3.85l.31,14a3.79,3.79,0,0,0,3.85,3.69l139.56-3a3.78,3.78,0,0,0,3.68-3.85l-.3-14A3.79,3.79,0,0,0,1909.21,2340.39Z"/><path class="cls-20" d="M1737.53,1918c71.5,11.14,134.19,17.45,188.31,20.58q28.82,1.68,54.39,2.21c141.82,3.18,209.76-16.27,209.76-16.27l-40.25-347.63-8.46-169-3-59.36a199.69,199.69,0,0,0-1.57-25.18c-.57-4.63-1.29-9.18-2.19-13.71-11.29-57.55-47.37-105.91-99.37-125a142.9,142.9,0,0,0-45.35-8.71c-1.62-.07-3.26-.1-4.9-.1h-63c-4.06,0-8.07.15-12,.47a142.21,142.21,0,0,0-30.7,5.85l0,0c-62.2,19.13-103.83,79.49-110.32,148.55-.1,1-.17,1.94-.25,2.91-.42,5.08-.62,10.2-.65,15.35v.8l-10.92,227.15Z"/><path class="cls-21" d="M1879.21,1244.17l20.71,11.86-15.21,14.21,95.49,238.42,57.14-237.56L2026,1259.74l19.92-6.28c9.86-26.93-10.71-68.86-10.71-68.86a144.15,144.15,0,0,0-45.35-8.64c-1.65-.07-3.29-.14-4.93-.14h-63c-4.07,0-8.07.14-12,.5a143.53,143.53,0,0,0-30.71,5.86,101.56,101.56,0,0,0-4.72,30.71C1874.49,1231.32,1879.21,1244.17,1879.21,1244.17Z"/><polygon class="cls-22" points="1993.54 1231.67 1961.45 1335.67 1920.24 1227.56 1931.18 1217.09 1952.54 1229.7 1975.96 1214.57 1993.54 1231.67"/><path class="cls-23" d="M2002.13,1176.83s10.41,45.31-2.83,60.44l-23.34-22.7s-10.26,12-23.42,15.14a104.9,104.9,0,0,1-21.36-12.62l-21.1,20.18s-9.93-16.8-10.19-59.81C1899.89,1177.46,1968.07,1171,2002.13,1176.83Z"/><polygon class="cls-21" points="1980.2 1508.66 1980.23 1940.79 1972.82 1490.22 1980.2 1508.66"/><circle class="cls-24" cx="1858.81" cy="1318.82" r="21.45" transform="translate(98.69 2766.73) rotate(-74.8)"/><path class="cls-25" d="M1871.4,1318a12.61,12.61,0,1,1-13.39-11.8A12.63,12.63,0,0,1,1871.4,1318Z"/><path d="M2049.17,1386.68c-15,0-27.7-10.88-29.44-25.51l-8.13-68a43.32,43.32,0,0,1,9.44-32.78,36.22,36.22,0,0,1,53.28-3.35,43.31,43.31,0,0,1,13.47,31.34l.44,68.46c.11,15.11-12.43,28.19-27.95,29.17l-.31-5c12.93-.81,23.37-11.65,23.28-24.17l-.44-68.46a38.29,38.29,0,0,0-11.88-27.73,31.27,31.27,0,0,0-23.67-8.72,31.61,31.61,0,0,0-22.4,11.61,38.32,38.32,0,0,0-8.32,29l8.12,68c1.48,12.42,13.18,21.89,26.14,21.07l.31,5C2050.46,1386.66,2049.82,1386.68,2049.17,1386.68Z"/><rect class="cls-24" x="2040.81" y="1379.07" width="10.72" height="10.72" rx="1.56" transform="translate(-82.76 130.99) rotate(-3.59)"/><rect class="cls-24" x="2059.54" y="1377.9" width="10.72" height="10.72" rx="1.56" transform="translate(4212.46 2634.35) rotate(176.41)"/><path d="M1855.58,1298.16l-5,0,.46-70a65.12,65.12,0,0,1,60.32-64.85l65.78-5.22a65.5,65.5,0,0,1,70.54,61.19l1.89,30.07-5,.3-1.89-30.06a60.5,60.5,0,0,0-65.18-56.53l-65.78,5.22A60.15,60.15,0,0,0,1856,1228.2Z"/><path class="cls-19" d="M1922.76,1100.78l91.63,15.76-12.15,34.71,0,.11-3.36,9.57-3.19,9.19-.68,1.9-3.74,8.34s-3.57,14.36-32.42,14.36-39.11-14.11-39.11-14.11Z"/><path class="cls-19" d="M1902.54,1078.19c9.42,42.06,41.65,70.08,84.73,71,33,.75,53-18.47,67.55-105.17,7.12-42.5-51.15-68.5-93.2-59.08A78,78,0,0,0,1902.54,1078.19Z"/><path class="cls-26" d="M1996.08,1168.86l7.47-21.35s-38,10.4-73.44-20.3C1930.11,1127.21,1933.44,1167.94,1996.08,1168.86Z"/><path class="cls-17" d="M1896.47,1060.85s102.3,5.51,138.83-58.55c0,0-22,45.07-45.22,47.26,0,0,34.05,1.14,47-40.77,0,0,15.29,31.1,33.45,33.33,0,0-10.13-95.53-92-85.31S1890.4,1023.73,1896.47,1060.85Z"/><path class="cls-21" d="M1981.71,1446.83s-74.55,31.11-132.79,52.43-92.21-.59-108.38-33.22,168.26-60.28,197-54.53S1981.71,1446.83,1981.71,1446.83Z"/><path class="cls-21" d="M1981.71,1446.83s189.06,97.09,195.25-16.28Z"/><path class="cls-20" d="M1846.45,1197c-33.69,13.09-70.81,36.49-89,78.12-38,86.77-50.52,148.73-16.9,190.92s177.92-4.07,241.17-19.21c0,0,65.13,13.74,113.93,19s82.85-1.36,82.94-52.66-12.49-142.46-61.28-183.92-82.11-44.63-82.11-44.63,41.94,31.76,46,56.15-8.11,94.88-8.11,94.88-8.22,35-79.58,20.59c0,0-105.58-7.82-168,3.53,0,0-5.83-87.23-5.39-114.8s32.89-42.89,32.89-42.89Z"/><path class="cls-21" d="M1829.66,1353.48c-6.7,10.25-11.11,21.42-14.71,32.85a133.92,133.92,0,0,0-4,17.59c-.87,5.94-1.47,12.19-.17,18.24,1.68-5.86,3.73-11.31,5.58-16.93s3.7-11.2,5.46-16.84C1825.11,1377,1828.26,1365.63,1829.66,1353.48Z"/><path class="cls-21" d="M1825.59,1359.79s144-16,235.35,6.31c0,0,24.6-40.68,20.29-109.75,0,0-15.78,80.11-40.38,94.46C2040.85,1350.81,1928.56,1325.3,1825.59,1359.79Z"/><path class="cls-19" d="M1976,1355.19s24.41-20.09,51.33-19.52,36.74,26.53,35.32,37.15-14.3,13.46-29,3S1975.53,1363.2,1976,1355.19Z"/><path class="cls-21" d="M1981.71,1446.83s-83.16-19.58-165.39-41.6l2.74-8.19s177.17,53.83,237.93,63.57C2057,1460.61,1994.18,1453.62,1981.71,1446.83Z"/><g class="cls-27"><path class="cls-28" d="M2165.93,2410l-28.14-7.73a23.88,23.88,0,0,1-14.13-10.68l-6.36-14-.2.08c-2.09-7.6-3.26-14.43-3.41-15.35l19.71-.43a3.79,3.79,0,0,0,3.69-3.85l-.31-14a3.77,3.77,0,0,0-3.85-3.69l-10.62.23-.69-404.83c45.92-4.86,68.37-11.27,68.37-11.27l-40.25-347.63-4.83-96.4c18-7,30.53-22.15,32.05-49.94h0a86.44,86.44,0,0,0,1.62-17.36c.07-38.58-7-99.71-31.32-145.29,1.44-60.47-39.67-164.52-57.23-221.08-22.47-72.32-56.3-124.29-94.08-128.57-127.67-14.54-113.48,103.87-135.58,164s-114,39.73-101.83,167c.63,6.53,1.4,12.78,2.29,18.8-1.19,2.31-2.33,4.67-3.39,7.1-38,86.77-50.52,148.73-16.9,190.92a79,79,0,0,0,20.58,26.47l-4.06,84.43L1737.53,1918q24.54,3.82,47.68,6.9l-.71,418h9.19l-24,.52a3.79,3.79,0,0,0-3.69,3.85l.31,14a3.79,3.79,0,0,0,3.85,3.69l18.3-.4.37,15.42.19,7.67h0l.23,9.76h-.37a9.28,9.28,0,0,0-9.46,9.09l-.29,14.11a9.89,9.89,0,0,0,9.69,10.08l35.1.71,8.86-12.86,16.37,13.37,110.38,2.22a3.21,3.21,0,0,0,3.14-4.12,29.45,29.45,0,0,0-20.43-20l-28.14-7.73a23.91,23.91,0,0,1-14.13-10.68l-6.36-14-.19.08c-2.09-7.6-3.26-14.43-3.42-15.35l19.72-.43a3.78,3.78,0,0,0,3.68-3.85l-.3-14a3.79,3.79,0,0,0-3.85-3.69l-14.47.32c14.29-92.87,36.74-243.25,58.67-390l2,13.17c2.87,19.24,5.75,38.5,8.61,57.66l6.34,42.38h0c16.21,108.43,31.46,210,42.08,279h5l-24,.52a3.78,3.78,0,0,0-3.69,3.85l.31,14a3.78,3.78,0,0,0,3.84,3.69l18.3-.4.8,32.85h-.37a9.29,9.29,0,0,0-9.47,9.09l-.28,14.11a9.88,9.88,0,0,0,9.68,10.08l35.11.71,8.85-12.86,16.37,13.37,110.38,2.22a3.21,3.21,0,0,0,3.14-4.12A29.43,29.43,0,0,0,2165.93,2410Z"/></g><path class="cls-29" d="M1321.61,2391.82c.87.42,20.5,10.5,13.71,31.47h-45.53a27.44,27.44,0,0,1,13.33-20.42C1310.36,2398.59,1316.33,2395,1321.61,2391.82Z"/><path class="cls-29" d="M1525.08,2362.26v32.12c-41.73-.52-37.15-37.54-37.15-37.54,16.69-1.07,26.67-2.49,28.44-2.76l.3,0h.15A8.24,8.24,0,0,1,1525.08,2362.26Z"/><path class="cls-30" d="M1370.62,2361c3.39-2.14,7-4.46,11-7,0,0,4.71.65,12.92,1.44,12,1.15,31.49,2.54,54.83,2.54,2.07,0,4.11,0,6.07-.05,12.62-.1,23.51-.55,32.47-1.12,0,0-4.58,37,37.15,37.54v28.91H1335.32c6.79-21-12.84-31.05-13.71-31.47,11.07-6.74,19.26-11.94,30.45-19C1357.36,2369.38,1363.36,2365.57,1370.62,2361Z"/><path class="cls-19" d="M1831.2,2330.47V2354a1.4,1.4,0,0,0-.3,0c-3.21.35-32.22,3.48-60.91,3.88-2,.05-4,.05-6.07.05-24.56,0-44.88-1.54-56.65-2.71-6.82-.72-10.62-1.27-10.62-1.27v-23.56H1831.2Z"/><path class="cls-18" d="M1839.21,2317.51l-19.11-630.28-2.36.07a76.49,76.49,0,0,1-15.16-1.49,77.58,77.58,0,0,1-62.42-76.08h-139.4L1630.32,1858,1685,2317.53l1.54,12.94H1839.6Z"/><path class="cls-19" d="M1516.67,2330.47V2354a1.4,1.4,0,0,0-.3,0c-3.21.35-32.22,3.48-60.91,3.88-2,.05-4,.05-6.07.05-23.34,0-42.84-1.39-54.83-2.54-8-.79-12.44-1.44-12.44-1.44v-23.56h134.55Z"/><path class="cls-18" d="M1600.76,1609.73h-56.13c0,36-22.69,66.23-62.92,75a116.76,116.76,0,0,1-24.88,2.56l-83.1,630.21-1.71,13h156l2.81-13,99.5-459.53Z"/><path class="cls-25" d="M1526.14,2423.29v1.05a10.45,10.45,0,0,1-10.49,10.42H1296.81a8.23,8.23,0,0,1-5.85-2.41,8.11,8.11,0,0,1-2.44-5.8,29.41,29.41,0,0,1,.2-3.26h237.42Z"/><polygon class="cls-17" points="1600.76 1609.73 1610.3 1950.42 1630.32 1857.98 1600.76 1609.73"/><path class="cls-17" d="M1817.74,1609.73l2.36,77.5-2.36.07a76.49,76.49,0,0,1-15.16-1.49,77.58,77.58,0,0,1-62.42-76.08Z"/><path class="cls-17" d="M1467.06,1609.73h77.57c0,36-22.69,66.23-62.92,75a116.76,116.76,0,0,1-24.88,2.56Z"/><path class="cls-30" d="M1833.74,2354l14.12,48.83h-.52c-9.11-15.05-27-11-48-11h-71c-21,0-39.6-4-48.7,11h0l13.76-48.83Z"/><path class="cls-29" d="M1853.58,2424.75v3.41H1673.45v-3.41a42.14,42.14,0,0,1,6.22-21.89h0c9.1-15.05,29.57-11,50.57-11h71c21,0,37-4,46.09,11A41.69,41.69,0,0,1,1853.58,2424.75Z"/><rect class="cls-25" x="1672.12" y="2423.29" width="182.8" height="11.47"/><path class="cls-20" d="M1801.66,2362.87H1723a1.25,1.25,0,0,1,0-2.49h78.64a1.25,1.25,0,0,1,0,2.49Z"/><path class="cls-20" d="M1801.66,2370.35H1723a1.24,1.24,0,0,1,0-2.48h78.64a1.24,1.24,0,0,1,0,2.48Z"/><path class="cls-20" d="M1801.66,2377.84H1723a1.25,1.25,0,0,1,0-2.49h78.64a1.25,1.25,0,0,1,0,2.49Z"/><path class="cls-20" d="M1355.09,2395.63a1.26,1.26,0,0,1-.89-.38L1340,2380.7a1.24,1.24,0,1,1,1.78-1.73l14.17,14.55a1.25,1.25,0,0,1,0,1.76A1.21,1.21,0,0,1,1355.09,2395.63Z"/><path class="cls-20" d="M1365.19,2388.35a1.24,1.24,0,0,1-.92-.4l-13.13-14.33A1.24,1.24,0,0,1,1353,2372l13.12,14.32a1.23,1.23,0,0,1-.07,1.75A1.19,1.19,0,0,1,1365.19,2388.35Z"/><path class="cls-20" d="M1374.65,2381.08a1.27,1.27,0,0,1-.9-.38l-12.85-13.26a1.24,1.24,0,1,1,1.78-1.73l12.86,13.26a1.25,1.25,0,0,1,0,1.76A1.2,1.2,0,0,1,1374.65,2381.08Z"/><path class="cls-20" d="M1854.92,1897.82c-71.49,11.14-134.18,17.45-188.31,20.58q-28.8,1.66-54.38,2.21c-141.82,3.18-209.76-16.28-209.76-16.28l40.24-347.62,8.46-169,3-59.37a201.57,201.57,0,0,1,1.57-25.18q.85-6.93,2.19-13.7c11.3-57.55,47.37-105.92,99.37-125a143,143,0,0,1,45.36-8.71c1.61-.08,3.26-.1,4.9-.1h63c4,0,8.06.15,12,.47a142,142,0,0,1,30.7,5.85l0,0c62.2,19.14,103.82,79.49,110.31,148.56.1,1,.18,1.94.25,2.91.43,5.08.62,10.2.65,15.35v.8l10.92,227.15Z"/><path class="cls-21" d="M1713.24,1224l-20.71,11.85,15.21,14.22-95.49,238.41-57.14-237.56,11.36-11.35-19.93-6.29c-9.86-26.92,10.71-68.85,10.71-68.85a144.21,144.21,0,0,1,45.36-8.64c1.64-.07,3.29-.14,4.93-.14h63c4.07,0,8.07.14,12,.49a143.42,143.42,0,0,1,30.71,5.86,101.25,101.25,0,0,1,4.72,30.71C1718,1211.13,1713.24,1224,1713.24,1224Z"/><polygon class="cls-17" points="1598.92 1211.48 1631 1315.49 1672.22 1207.37 1661.28 1196.91 1639.92 1209.52 1616.49 1194.38 1598.92 1211.48"/><path class="cls-25" d="M1590.32,1156.64s-10.41,45.31,2.84,60.45l23.33-22.71s10.26,12,23.43,15.14a104.6,104.6,0,0,0,21.36-12.61l21.09,20.18s9.94-16.81,10.19-59.81C1692.56,1157.28,1624.38,1150.81,1590.32,1156.64Z"/><polygon class="cls-21" points="1612.25 1488.47 1612.22 1920.61 1619.63 1470.04 1612.25 1488.47"/><circle class="cls-24" cx="1733.65" cy="1298.64" r="21.45" transform="translate(-395.56 900.59) rotate(-26.25)"/><circle class="cls-25" cx="1733.65" cy="1298.64" r="12.62" transform="translate(-314.89 2002.54) rotate(-55.8)"/><path d="M1543.2,1366.49c-.61,0-1.23,0-1.85-.06l.31-5c13,.88,24.65-8.64,26.13-21.07l8.12-68a38.28,38.28,0,0,0-8.3-29,31.28,31.28,0,0,0-46.09-2.9,38.3,38.3,0,0,0-11.88,27.73l-.44,68.45c-.09,12.52,10.36,23.37,23.29,24.19l-.31,5c-15.78-1-28.06-13.81-28-29.18l.44-68.45a43.36,43.36,0,0,1,13.46-31.34,36.25,36.25,0,0,1,53.31,3.35,43.29,43.29,0,0,1,9.42,32.77l-8.12,68C1571,1355.4,1558,1366.49,1543.2,1366.49Z"/><rect class="cls-24" x="1540.92" y="1358.89" width="10.72" height="10.72" rx="1.56" transform="translate(3004 2822.75) rotate(-176.41)"/><rect class="cls-24" x="1522.19" y="1357.71" width="10.72" height="10.72" rx="1.56" transform="translate(88.45 -93.08) rotate(3.59)"/><path d="M1736.88,1278l-.47-70a60.15,60.15,0,0,0-55.72-59.92l-65.79-5.21a60.51,60.51,0,0,0-65.17,56.52l-1.89,30.08-5-.31,1.89-30.08a65.5,65.5,0,0,1,70.53-61.18l65.79,5.22a65.11,65.11,0,0,1,60.31,64.85l.47,70Z"/><path class="cls-21" d="M1610.75,1426.65s74.55,31.11,132.78,52.43,92.21-.59,108.39-33.22-168.26-60.28-197-54.54S1610.75,1426.65,1610.75,1426.65Z"/><path class="cls-21" d="M1610.75,1426.65s-189.07,97.08-195.26-16.28Z"/><path class="cls-20" d="M1746,1176.81c33.7,13.09,70.81,36.5,89,78.13,38,86.77,50.51,148.73,16.9,190.92s-177.93-4.08-241.17-19.21c0,0-65.13,13.74-113.94,19s-82.85-1.36-82.94-52.66,12.49-142.46,61.29-183.92,82.1-44.63,82.1-44.63-41.93,31.75-46,56.14,8.1,94.89,8.1,94.89,8.22,35,79.59,20.58c0,0,105.58-7.82,167.95,3.54,0,0,5.82-87.23,5.39-114.8s-32.89-42.89-32.89-42.89Z"/><path class="cls-21" d="M1762.79,1333.3c6.71,10.24,11.11,21.42,14.72,32.85a137.06,137.06,0,0,1,4,17.58c.87,6,1.46,12.19.17,18.25-1.68-5.86-3.73-11.31-5.59-16.93s-3.7-11.2-5.46-16.84C1767.34,1356.86,1764.19,1345.44,1762.79,1333.3Z"/><path class="cls-21" d="M1766.87,1339.61s-144-16-235.35,6.3c0,0-24.61-40.67-20.29-109.75,0,0,15.77,80.12,40.38,94.47C1551.61,1330.63,1663.89,1305.11,1766.87,1339.61Z"/><path class="cls-19" d="M1616.48,1335s-24.41-20.08-51.32-19.51-36.75,26.53-35.32,37.15,14.29,13.46,29,2.95S1616.92,1343,1616.48,1335Z"/><path class="cls-21" d="M1610.75,1426.65s83.16-19.58,165.38-41.6l-2.73-8.19s-177.18,53.82-237.93,63.57C1535.47,1440.43,1598.27,1433.43,1610.75,1426.65Z"/><path class="cls-19" d="M1677.37,1159.38s.84,26.27-35.11,26.27-40.33-24-40.33-24l-3-16.44-2.76-10.72-2.89-11.15,0-.12-10.49-40.48,105.29-9.23Z"/><path class="cls-19" d="M1694.05,1042c-1.76,49-32.52,94.23-81.48,92.47s-86.85-1.52-95.84-98.84c-4.51-48.79,42.88-87.23,91.85-85.47A88.72,88.72,0,0,1,1694.05,1042Z"/><path class="cls-17" d="M1635.66,917.88s-1.09-70.53-106-65.66c-96.64,4.49-101.28,224.53,72.44,142.63a64.87,64.87,0,0,1,48.23-3.15,53.38,53.38,0,0,1,6.34,2.48c9.34,4.56,8,30.62,8,30.62s12.41-9.81,16,7.23-12.33,19.64-12.33,19.64l10.47,44.36s16.64-27,28-74.19C1717.86,976.1,1680.35,903.92,1635.66,917.88Z"/><path class="cls-26" d="M1601.6,1157.4l-5.38-22.9s56.46,4.61,76.71-29.66C1672.93,1104.84,1672.58,1151.47,1601.6,1157.4Z"/></g><path class="cls-24" d="M2297,735.06a38.75,38.75,0,0,0,32.53-44l-28.82-191.78a83.52,83.52,0,0,0-41.9-60.76A75.83,75.83,0,0,1,2222,384.06l-1.2-7.93-154.6,23.24,1.2,7.92a75.85,75.85,0,0,1-19.23,62.86A83.48,83.48,0,0,0,2026,540.54l28.82,191.78a38.77,38.77,0,0,0,44,32.53Z"/><path class="cls-31" d="M2033.9,539.35A76,76,0,0,1,2054,475.62h0a84.24,84.24,0,0,0,21.3-69.52h0l138.75-20.85h0a84.18,84.18,0,0,0,40.8,60.18h0a76.07,76.07,0,0,1,38,55l28.82,191.78a30.71,30.71,0,0,1-25.8,34.93l-198.2,29.79a30.7,30.7,0,0,1-34.92-25.8Z"/><path class="cls-32" d="M2041.82,538.16l28.83,191.78A22.71,22.71,0,0,0,2096.46,749l198.21-29.79a22.72,22.72,0,0,0,19.06-25.81l-28.82-191.77a67.62,67.62,0,0,0-34-49.21l-.12-.07L2059.91,481l-.09.11A67.59,67.59,0,0,0,2041.82,538.16Z"/><g class="cls-33"><path class="cls-34" d="M2041.82,538.16l28.83,191.78A22.71,22.71,0,0,0,2096.46,749l198.21-29.79a22.72,22.72,0,0,0,19.06-25.81l-28.82-191.77a67.62,67.62,0,0,0-34-49.21l-.12-.07L2059.91,481l-.09.11A67.59,67.59,0,0,0,2041.82,538.16Z"/></g><path class="cls-23" d="M2085,520a5.32,5.32,0,1,0-6-4.48A5.27,5.27,0,0,0,2085,520Z"/><ellipse class="cls-23" cx="2115.83" cy="551.34" rx="7.52" ry="7.64" transform="translate(-58.49 321) rotate(-8.56)"/><path class="cls-23" d="M2138.2,531.85a5.15,5.15,0,1,0-5.78-4.34A5.11,5.11,0,0,0,2138.2,531.85Z"/><path class="cls-23" d="M2169.89,567.75a4.32,4.32,0,1,0-4.85-3.64A4.29,4.29,0,0,0,2169.89,567.75Z"/><path class="cls-23" d="M2183,527.51a6.34,6.34,0,1,0-7.11-5.34A6.28,6.28,0,0,0,2183,527.51Z"/><ellipse class="cls-23" cx="2213.61" cy="548.41" rx="3.92" ry="3.99" transform="matrix(0.99, -0.15, 0.15, 0.99, -56.96, 335.52)"/><ellipse class="cls-23" cx="2174.77" cy="492.41" rx="3.27" ry="3.32" transform="translate(-49.01 328.42) rotate(-8.54)"/><path class="cls-23" d="M2145.51,500.17a3.32,3.32,0,1,0-3.73-2.8A3.3,3.3,0,0,0,2145.51,500.17Z"/><path class="cls-23" d="M2229.5,510.06a5.82,5.82,0,1,0-6.52-4.9A5.76,5.76,0,0,0,2229.5,510.06Z"/><path class="cls-23" d="M2249.39,535.64a4.65,4.65,0,1,0-5.22-3.92A4.61,4.61,0,0,0,2249.39,535.64Z"/><path class="cls-23" d="M2259.31,513.65a4,4,0,1,0-4.47-3.36A4,4,0,0,0,2259.31,513.65Z"/><path class="cls-23" d="M2279.56,690.18a5.31,5.31,0,1,0,6,4.48A5.28,5.28,0,0,0,2279.56,690.18Z"/><path class="cls-23" d="M2247.59,651.3a7.64,7.64,0,1,0,8.57,6.44A7.57,7.57,0,0,0,2247.59,651.3Z"/><path class="cls-23" d="M2226.36,678.35a5.15,5.15,0,1,0,5.78,4.34A5.1,5.1,0,0,0,2226.36,678.35Z"/><path class="cls-23" d="M2194.67,642.45a4.32,4.32,0,1,0,4.85,3.64A4.28,4.28,0,0,0,2194.67,642.45Z"/><ellipse class="cls-23" cx="2182.46" cy="688.95" rx="6.24" ry="6.34" transform="translate(-78.16 332.05) rotate(-8.55)"/><path class="cls-23" d="M2150.36,657.84a4,4,0,1,0,4.47,3.36A4,4,0,0,0,2150.36,657.84Z"/><path class="cls-23" d="M2189.3,714.5a3.32,3.32,0,1,0,3.73,2.8A3.29,3.29,0,0,0,2189.3,714.5Z"/><ellipse class="cls-23" cx="2219.54" cy="713.31" rx="3.27" ry="3.32" transform="translate(-81.37 337.81) rotate(-8.55)"/><path class="cls-23" d="M2135.05,700.14a5.82,5.82,0,1,0,6.53,4.9A5.76,5.76,0,0,0,2135.05,700.14Z"/><path class="cls-23" d="M2115.17,674.56a4.65,4.65,0,1,0,5.22,3.92A4.6,4.6,0,0,0,2115.17,674.56Z"/><path class="cls-23" d="M2105.25,696.55a4,4,0,1,0,4.47,3.36A4,4,0,0,0,2105.25,696.55Z"/><path class="cls-32" d="M2052.95,342.87h179.54a0,0,0,0,1,0,0v24.45a47.85,47.85,0,0,1-47.85,47.85H2100.8a47.85,47.85,0,0,1-47.85-47.85V342.87a0,0,0,0,1,0,0Z" transform="matrix(-0.99, 0.15, -0.15, -0.99, 4317.98, 435.37)"/><path class="cls-23" d="M2226.63,404.39a1.41,1.41,0,0,1-1.59-1.18l-10.51-69.95a1.4,1.4,0,0,1,1.17-1.6,1.42,1.42,0,0,1,1.6,1.18l10.51,70A1.4,1.4,0,0,1,2226.63,404.39Z"/><path class="cls-23" d="M2216.19,406a1.39,1.39,0,0,1-1.59-1.18l-10.75-71.5a1.4,1.4,0,1,1,2.77-.41l10.75,71.49A1.41,1.41,0,0,1,2216.19,406Z"/><path class="cls-23" d="M2205.75,407.53a1.41,1.41,0,0,1-1.6-1.18l-10.74-71.5a1.4,1.4,0,0,1,2.77-.42l10.74,71.5A1.4,1.4,0,0,1,2205.75,407.53Z"/><path class="cls-23" d="M2195.3,409.1a1.4,1.4,0,0,1-1.59-1.18L2183,336.42a1.4,1.4,0,0,1,2.77-.42l10.75,71.5A1.41,1.41,0,0,1,2195.3,409.1Z"/><path class="cls-23" d="M2184.86,410.67a1.41,1.41,0,0,1-1.6-1.18L2172.52,338a1.4,1.4,0,0,1,2.77-.42l10.74,71.5A1.4,1.4,0,0,1,2184.86,410.67Z"/><path class="cls-23" d="M2174.41,412.24a1.4,1.4,0,0,1-1.59-1.18l-10.75-71.5a1.41,1.41,0,0,1,1.18-1.59,1.39,1.39,0,0,1,1.59,1.17l10.75,71.5A1.4,1.4,0,0,1,2174.41,412.24Z"/><path class="cls-23" d="M2164,413.81a1.4,1.4,0,0,1-1.59-1.18l-10.75-71.5a1.4,1.4,0,0,1,2.77-.42l10.75,71.5A1.42,1.42,0,0,1,2164,413.81Z"/><path class="cls-23" d="M2153.53,415.38a1.42,1.42,0,0,1-1.6-1.18l-10.74-71.5a1.4,1.4,0,0,1,2.77-.42l10.74,71.5A1.4,1.4,0,0,1,2153.53,415.38Z"/><path class="cls-23" d="M2143.08,417a1.41,1.41,0,0,1-1.59-1.18l-10.75-71.5a1.4,1.4,0,0,1,2.77-.42l10.75,71.5A1.41,1.41,0,0,1,2143.08,417Z"/><path class="cls-23" d="M2132.64,418.52a1.42,1.42,0,0,1-1.6-1.18l-10.74-71.5a1.39,1.39,0,0,1,1.17-1.59,1.4,1.4,0,0,1,1.6,1.17l10.74,71.5A1.4,1.4,0,0,1,2132.64,418.52Z"/><path class="cls-23" d="M2122.19,420.09a1.41,1.41,0,0,1-1.59-1.18l-10.75-71.5a1.4,1.4,0,0,1,2.77-.42l10.75,71.5A1.41,1.41,0,0,1,2122.19,420.09Z"/><path class="cls-23" d="M2111.75,421.66a1.4,1.4,0,0,1-1.59-1.18L2099.41,349a1.4,1.4,0,0,1,2.77-.42l10.75,71.5A1.42,1.42,0,0,1,2111.75,421.66Z"/><path class="cls-23" d="M2101.3,423.23a1.41,1.41,0,0,1-1.59-1.18L2089,350.55a1.41,1.41,0,0,1,2.78-.42l10.74,71.5A1.4,1.4,0,0,1,2101.3,423.23Z"/><path class="cls-23" d="M2090.86,424.8a1.41,1.41,0,0,1-1.59-1.18l-10.75-71.5a1.4,1.4,0,0,1,2.77-.42L2092,423.2A1.41,1.41,0,0,1,2090.86,424.8Z"/><path class="cls-23" d="M2080.42,426.37a1.42,1.42,0,0,1-1.6-1.18l-10.74-71.5a1.39,1.39,0,0,1,1.17-1.59,1.4,1.4,0,0,1,1.6,1.17l10.74,71.5A1.4,1.4,0,0,1,2080.42,426.37Z"/><path class="cls-23" d="M2070,427.94a1.41,1.41,0,0,1-1.59-1.18l-10.52-69.95a1.41,1.41,0,0,1,2.78-.42l10.51,69.95A1.41,1.41,0,0,1,2070,427.94Z"/><rect class="cls-24" x="2037.99" y="550.77" width="277.86" height="118.61" transform="translate(4420.34 889.82) rotate(171.45)"/><g class="cls-35"><rect class="cls-36" x="2037.99" y="550.77" width="277.86" height="118.61" transform="translate(4420.34 889.82) rotate(171.45)"/></g><path class="cls-31" d="M2054.19,606.84l162.25-24.39a4,4,0,0,0,3.33-4.51h0a4,4,0,0,0-4.51-3.33L2053,599a4,4,0,0,0-3.33,4.52h0A4,4,0,0,0,2054.19,606.84Z"/><path class="cls-31" d="M2056.78,624.1,2219,599.71a4,4,0,0,0,3.33-4.51h0a4,4,0,0,0-4.51-3.33L2055.6,616.25a4,4,0,0,0-3.33,4.51h0A4,4,0,0,0,2056.78,624.1Z"/><path class="cls-31" d="M2059.38,641.35,2221.62,617a4,4,0,0,0,3.34-4.51h0a4,4,0,0,0-4.51-3.34L2058.2,633.51a4,4,0,0,0-3.34,4.51h0A4,4,0,0,0,2059.38,641.35Z"/><path class="cls-31" d="M2062,658.61l162.25-24.38a4,4,0,0,0,3.33-4.52h0a4,4,0,0,0-4.51-3.33l-162.25,24.39a4,4,0,0,0-3.33,4.51h0A4,4,0,0,0,2062,658.61Z"/><polygon class="cls-31" points="2231.94 592.98 2257.85 589.08 2253.95 563.17 2271.23 560.58 2275.12 586.49 2301.03 582.59 2303.63 599.87 2277.72 603.76 2281.61 629.67 2264.34 632.27 2260.44 606.36 2234.53 610.25 2231.94 592.98"/><path class="cls-22" d="M2372.34,1256.4l-65.63-61.82a68.46,68.46,0,1,1,93.88-99.66l65.63,61.82Z"/><path class="cls-37" d="M2438,1318.24l-65.65-61.84,93.88-99.66,65.65,61.84a68.46,68.46,0,0,1-93.88,99.66Z"/><g class="cls-38"><path class="cls-39" d="M2306.71,1194.58l65.63,61.82,65.65,61.84a68.46,68.46,0,0,0,93.88-99.66l-65.65-61.84-65.63-61.82a68.46,68.46,0,1,0-93.88,99.66Z"/></g><path class="cls-40" d="M2565.34,1126.19l38.79,81.4a68.46,68.46,0,0,1-123.6,58.89l-38.79-81.4Z"/><path class="cls-29" d="M2526.55,1044.77l38.79,81.42-123.6,58.89L2403,1103.67a68.46,68.46,0,0,1,123.6-58.9Z"/><g class="cls-41"><path class="cls-42" d="M2403,1103.67l38.79,81.41,38.79,81.4a68.46,68.46,0,0,0,123.6-58.9l-38.79-81.39-38.79-81.42a68.46,68.46,0,1,0-123.6,58.9Z"/></g><path class="cls-22" d="M1654.39,377.79c-42.1-19.22-122.65-6.91-143.83,77.27-16.15-85.29-95.82-102.35-139-85.67-65.33,25.24-84.56,91.08-57,160.3,45.45,113.93,187.65,204.53,187.65,204.53s147.32-82,199.45-193C1733.4,473.72,1718.11,406.86,1654.39,377.79Z"/><g class="cls-43"><path class="cls-44" d="M1654.39,377.79c-42.1-19.22-122.65-6.91-143.83,77.27-16.15-85.29-95.82-102.35-139-85.67-65.33,25.24-84.56,91.08-57,160.3,45.45,113.93,187.65,204.53,187.65,204.53s147.32-82,199.45-193C1733.4,473.72,1718.11,406.86,1654.39,377.79Z"/></g><path class="cls-20" d="M1338.09,557.14c16.13-.42,32.26-.62,48.38-.8l48.36-.28-3.44,1.82,22.17-36.9,4.24-7.06,4.55,7.32c6.89,11.1,13.5,22.36,20.27,33.53s13.19,22.53,19.8,33.79l-13.13.38c6.29-14,13.06-27.75,19.56-41.64L1519,526.66l10.25-20.59,6.52-13.09,6.85,12.64,10,18.49c3.33,6.17,6.73,12.3,9.93,18.54l9.74,18.65c3.29,6.19,6.36,12.51,9.54,18.77l-7.21-1.06,12.4-10.73,12.51-10.6,1-.87,1.08.06q37.59,2.29,75.16,5.16-37.68.68-75.33.69l2.1-.8-11.23,12L1581,585.72l-3.92,4.09-3.29-5.15c-3.78-5.91-7.67-11.75-11.34-17.73l-11.15-17.84c-3.75-5.93-7.31-12-11-18l-10.86-18,13.36-.45-9.81,20.8-9.9,20.76c-6.86,13.72-13.47,27.55-20.55,41.16L1496,608.13l-6.51-12.37c-6.08-11.55-12.3-23-18.27-34.64s-12-23.19-17.81-34.9l8.79.26L1438,562.13l-1.33,2-2.11-.14-48.26-3.15C1370.25,559.67,1354.17,558.51,1338.09,557.14Z"/><polygon class="cls-29" points="1066.18 1343.32 1092.04 1339.96 1090.13 1325.31 1066.18 1343.32"/><path class="cls-45" d="M1245.39,901.69q-109.31-32-212.72-18.54t-201,72.22c24.42,207.95,91.82,360.85,260.21,384.41C1248.72,1274,1274.86,1109,1245.39,901.69Z"/><path class="cls-40" d="M1229.73,1016.09a627.94,627.94,0,0,1-3,89,418.26,418.26,0,0,1-11.35,62.22h0c-9.74,36.62-24.67,69.28-45.8,97.24a232.49,232.49,0,0,1-44.35,44.63,251.59,251.59,0,0,1-34.46,22.18q-11.79,6.33-24.75,11.77-5.7-.8-11.24-1.79c-46.84-8.39-85.56-27.23-117.46-54.76-64-55.18-100.63-145.31-120.93-256.43q-6.27-34.43-10.57-71.42a583.64,583.64,0,0,1,54.75-29.22q16.89-7.86,33.93-14.4,19.26-7.4,38.72-13.11a484,484,0,0,1,59.09-13.39c4.8-.77,9.62-1.48,14.45-2.1a479.91,479.91,0,0,1,74.4-3.8q20.91.52,42.06,2.87,24.11,2.64,48.5,7.61,23.74,4.83,47.76,11.86A1028.6,1028.6,0,0,1,1229.73,1016.09Z"/><path class="cls-31" d="M1179.3,1004.39c2.67,31.48,3.29,61.34,1.37,89.23a355.72,355.72,0,0,1-8.27,56.85c-5.65,24.11-14.06,46.09-25.65,65.56a181.1,181.1,0,0,1-21.38,29,174.88,174.88,0,0,1-21,19.68,186.71,186.71,0,0,1-26.76,17.67c-2.57,1.42-5.21,2.78-7.9,4.11q-5,2.48-10.34,4.75a207.56,207.56,0,0,1-25-5.23q-3.3-.9-6.51-1.91C924.05,1251.61,880,1140.26,862.73,993.59q11-6.78,22.09-12.77l4.5-2.4Q903.55,971,918,964.78q4.1-1.75,8.21-3.41,14.94-6,30.08-10.61,13.41-4.1,27-7.09,15.07-3.33,30.31-5.31l2.15-.26a351.37,351.37,0,0,1,55.42-2.41q18.17.64,36.55,3.11a405,405,0,0,1,44.79,8.65q10.46,2.61,21,5.82Q1177.16,979.45,1179.3,1004.39Z"/><polygon class="cls-40" points="1134.61 1076.29 1058.51 1086.16 1048.64 1010.07 997.9 1016.65 1007.78 1092.75 931.68 1102.62 938.27 1153.35 1014.36 1143.48 1024.24 1219.58 1074.97 1212.99 1065.1 1136.89 1141.19 1127.02 1134.61 1076.29"/><path class="cls-46" d="M1215.42,1167.3h0c-9.74,36.62-24.67,69.28-45.8,97.24L1146.75,1216c20.16-33.87,30.67-75.3,33.92-122.41Z"/><path class="cls-46" d="M1125.28,1309.18a251.59,251.59,0,0,1-34.46,22.18l-21.14-44.83a191.16,191.16,0,0,0,34.66-21.78Z"/><path class="cls-46" d="M1054.83,1341.34c-46.84-8.39-85.56-27.23-117.46-54.76L816.44,1030.15q-6.27-34.43-10.57-71.42a583.64,583.64,0,0,1,54.75-29.22l24.2,51.31q-11.1,6-22.09,12.77c17.28,146.67,61.32,258,165.13,290.55Z"/><path class="cls-46" d="M956.26,950.76a370.72,370.72,0,0,0-38.29,14l-23.42-49.67q19.26-7.4,38.72-13.11Z"/><path class="cls-46" d="M1229.73,1016.09a627.94,627.94,0,0,1-3,89l-47.47-100.69q-2.11-24.92-5.86-51.12-10.53-3.19-21-5.82l-29.18-61.87q24.11,2.64,48.5,7.61Z"/><path class="cls-46" d="M1107.66,938.8a357.83,357.83,0,0,0-92-.7l-23.33-49.49c4.8-.77,9.62-1.48,14.45-2.1a479.91,479.91,0,0,1,74.4-3.8Z"/><path class="cls-46" d="M1077.58,1282.42c-2.57,1.42-5.21,2.78-7.9,4.11q-5,2.48-10.34,4.75a207.56,207.56,0,0,1-25-5.23l-145-307.63Q903.55,971,918,964.78q4.1-1.75,8.21-3.41Z"/><path class="cls-46" d="M1172.4,1150.47c-5.65,24.11-14.06,46.09-25.65,65.56a181.1,181.1,0,0,1-21.38,29L983.23,943.67q15.07-3.33,30.31-5.31l2.15-.26a351.37,351.37,0,0,1,55.42-2.41Z"/><path class="cls-47" d="M2617.78,1527.11l-115.68,322.4c-8.19,22.81-33.71,34.6-56.89,26.28s-35.39-33.64-27.2-56.45l115.41-321.66a19.89,19.89,0,0,0,1.89.81l5,1.79-115.79,321.39c-6.92,19.29,3.38,40.68,23,47.71s41.15-2.92,48.07-22.21L2611.85,1526l.28.1A18,18,0,0,0,2617.78,1527.11Z"/><path class="cls-47" d="M2611.85,1526l-116.27,321.22c-6.92,19.29-28.43,29.26-48.07,22.21s-29.91-28.42-23-47.71l115.79-321.39Z"/><path class="cls-48" d="M2611.85,1526l-116.27,321.22c-6.92,19.29-28.43,29.26-48.07,22.21s-29.91-28.42-23-47.71l115.79-321.39Z"/><path class="cls-47" d="M2612.13,1526.05l-76.82-27.56a18.29,18.29,0,0,1-11-23.33h0a18.28,18.28,0,0,1,23.32-11l76.82,27.56a18.28,18.28,0,0,1,11,23.32h0A18.29,18.29,0,0,1,2612.13,1526.05Z"/><path class="cls-32" d="M2524.5,1746.1l-35.43,98.73c-5.65,15.74-23.27,23.88-39.26,18.14s-24.42-23.23-18.77-39l42.1-117.35c9.36,4.55,18.81,11.7,24.55,22.87C2503.9,1741.71,2514.44,1745.64,2524.5,1746.1Z"/><ellipse class="cls-23" cx="2476.56" cy="1735.06" rx="3.45" ry="3.51" transform="matrix(0.34, -0.94, 0.94, 0.34, 7.07, 3480.17)"/><path class="cls-23" d="M2500.94,1761.92a5,5,0,1,1-3.07-6.38A5,5,0,0,1,2500.94,1761.92Z"/><path class="cls-23" d="M2480.71,1772.2a3.4,3.4,0,1,1-2.07-4.3A3.37,3.37,0,0,1,2480.71,1772.2Z"/><path class="cls-23" d="M2499.89,1797.31a2.85,2.85,0,1,1-1.73-3.61A2.82,2.82,0,0,1,2499.89,1797.31Z"/><path class="cls-23" d="M2472.16,1800.67a4.18,4.18,0,1,1-2.55-5.29A4.15,4.15,0,0,1,2472.16,1800.67Z"/><path class="cls-23" d="M2484.25,1824a2.63,2.63,0,1,1-1.6-3.33A2.61,2.61,0,0,1,2484.25,1824Z"/><path class="cls-23" d="M2452.56,1791.56a2.19,2.19,0,1,1-1.33-2.77A2.17,2.17,0,0,1,2452.56,1791.56Z"/><path class="cls-23" d="M2459.27,1772.87a2.19,2.19,0,1,1-1.34-2.77A2.17,2.17,0,0,1,2459.27,1772.87Z"/><path class="cls-23" d="M2454.92,1828.51a3.84,3.84,0,1,1-2.34-4.85A3.82,3.82,0,0,1,2454.92,1828.51Z"/><path class="cls-23" d="M2468.93,1844.66a3.07,3.07,0,1,1-1.87-3.88A3,3,0,0,1,2468.93,1844.66Z"/><path class="cls-23" d="M2453.42,1848.26a2.63,2.63,0,1,1-1.6-3.32A2.61,2.61,0,0,1,2453.42,1848.26Z"/><g class="cls-49"><polygon class="cls-20" points="2545.88 1707 2532.12 1745.34 2486.56 1648.78 2500.31 1610.44 2545.88 1707"/><polygon class="cls-20" points="2555.67 1679.7 2548.79 1698.87 2503.23 1602.31 2510.11 1583.14 2555.67 1679.7"/><path class="cls-20" d="M2498.66,1838.58l-3.08,8.59a36.6,36.6,0,0,1-15.7,19.09l-40.54-85.9L2453.1,1742Z"/><polygon class="cls-20" points="2508.46 1811.28 2501.58 1830.45 2456.02 1733.89 2462.89 1714.72 2508.46 1811.28"/></g><g class="cls-49"><polygon class="cls-20" points="2512.9 1575.35 2506.03 1594.52 2501.85 1585.67 2506.16 1573.66 2508.15 1568.11 2512.9 1575.35"/><polygon class="cls-20" points="2498.93 1593.8 2503.11 1602.65 2489.35 1640.98 2485.18 1632.13 2498.93 1593.8"/><polygon class="cls-20" points="2549.01 1699.92 2552.85 1708.06 2539.09 1746.39 2535.17 1738.07 2534.92 1737.54 2548.67 1699.21 2549.01 1699.92"/><polygon class="cls-20" points="2562.64 1680.77 2555.77 1699.93 2551.95 1691.83 2551.59 1691.07 2558.47 1671.91 2562.64 1680.77"/><polygon class="cls-20" points="2465.69 1706.93 2458.81 1726.1 2454.64 1717.25 2461.51 1698.09 2465.69 1706.93"/><polygon class="cls-20" points="2451.72 1725.39 2455.89 1734.23 2442.14 1772.57 2437.97 1763.72 2451.72 1725.39"/><polygon class="cls-20" points="2515.43 1812.35 2508.55 1831.51 2504.38 1822.66 2511.25 1803.49 2511.35 1803.7 2515.43 1812.35"/><path class="cls-20" d="M2501.46,1830.79l4.18,8.85-3.54,9.87a43.17,43.17,0,0,1-14.36,19.69l-3-6.4a36.54,36.54,0,0,0,10.86-15.63Z"/></g><circle class="cls-24" cx="1239.96" cy="1704.63" r="32.43"/><circle class="cls-25" cx="1239.96" cy="1704.63" r="19.07" transform="translate(-867.93 1711.73) rotate(-54.16)"/><path d="M1045.58,1940.57c-.79.48-1.61.93-2.44,1.36l-3.44-6.66c17.39-9,25.27-30.37,17.54-47.65L1015,1793.13A57.9,57.9,0,0,0,981.66,1762a47.29,47.29,0,0,0-62,32,57.89,57.89,0,0,0,6.14,45.21l52.58,89.16c9.62,16.31,31.61,22.26,49,13.27l3.44,6.67c-21.23,11-47.1,3.88-58.91-16.13L919.3,1843a65.41,65.41,0,0,1-6.88-51.09,54.76,54.76,0,0,1,71.72-37,65.45,65.45,0,0,1,37.69,35.19l42.26,94.49C1073,1904.58,1064.74,1929.1,1045.58,1940.57Z"/><rect class="cls-24" x="1039.74" y="1927.17" width="16.21" height="16.21" rx="5.25" transform="translate(2866.94 3173.91) rotate(152.68)"/><rect class="cls-24" x="1014.53" y="1940.19" width="16.21" height="16.21" rx="5.25" transform="translate(-779.99 686.49) rotate(-27.31)"/><path d="M1228.4,1674.08l-6.64,3.48-48.7-92.85a90.93,90.93,0,0,0-118.73-34.24l-89.4,44.33a91.49,91.49,0,0,0-40.65,124l20.91,40.48-6.66,3.45-20.91-40.48a99,99,0,0,1,44-134.13l89.4-44.33A98.43,98.43,0,0,1,1179.59,1581Z"/></g></g></svg>