<svg id="Layer_1" data-name="Layer 1" xmlns="http://www.w3.org/2000/svg" xmlns:xlink="http://www.w3.org/1999/xlink" viewBox="0 0 3500 2500"><defs><style>.cls-1{fill:none;}.cls-2{fill:#058192;}.cls-3{fill:#f4e68b;}.cls-4{fill:#1c5569;}.cls-5{fill:#fff;}.cls-6{fill:#171c51;}.cls-7{fill:#13375b;}.cls-8{fill:#50bfa5;}.cls-9{fill:#db4531;}.cls-10{fill:#bbbdbf;}.cls-11{clip-path:url(#clip-path);}.cls-12{fill:#466eb6;}.cls-13{fill:#9bc1f9;}.cls-14{fill:#fae0b2;}.cls-15{fill:#466eb5;}.cls-16{fill:#355389;}.cls-17{fill:#c4c4c4;}.cls-18{fill:#86b1f2;}.cls-19{fill:#f48561;}.cls-20{fill:#ffd9b3;}.cls-21{fill:#ef9f22;}.cls-22{fill:#e6e9f5;}.cls-23{fill:#96a4cd;}.cls-24{fill:#f47458;}.cls-25{opacity:0.5;}.cls-25,.cls-26{isolation:isolate;}.cls-26{font-size:106.74px;font-family:ArialMT, Arial;}</style><clipPath id="clip-path"><path class="cls-1" d="M2463.78,274.3c-230.41-173-725.2,30.42-1128.14,106.48S360,881.39,733.81,1581.79s671.32,790.83,1337.52,662.63,969.25-659.77,740.73-996.51S2686.69,441.62,2463.78,274.3Z"/></clipPath></defs><title>LOGIN</title><polygon class="cls-2" points="836.67 1240.89 798.33 1202.54 836.67 1164.2 826.78 1154.3 788.43 1192.65 750.09 1154.3 740.19 1164.2 778.54 1202.54 740.2 1240.89 750.09 1250.78 788.43 1212.44 826.78 1250.78 836.67 1240.89"/><polygon class="cls-2" points="2010.95 533.44 1972.61 495.1 2010.95 456.75 2001.05 446.86 1962.71 485.2 1924.37 446.86 1914.47 456.75 1952.82 495.1 1914.47 533.44 1924.37 543.33 1962.71 504.99 2001.05 543.34 2010.95 533.44"/><polygon class="cls-2" points="2750.14 1490.36 2750.14 1436.13 2804.36 1436.13 2804.36 1422.13 2750.14 1422.13 2750.14 1367.91 2736.14 1367.91 2736.14 1422.13 2681.92 1422.13 2681.92 1436.13 2736.14 1436.13 2736.14 1490.36 2750.14 1490.36"/><circle class="cls-2" cx="2219.52" cy="671.05" r="13.44" transform="translate(1201.52 2754.37) rotate(-80.78)"/><circle class="cls-2" cx="2148.05" cy="671" r="13.44" transform="translate(154.68 1715.43) rotate(-45)"/><circle class="cls-2" cx="2076.78" cy="671.04" r="13.44" transform="translate(1081.65 2613.47) rotate(-80.78)"/><circle class="cls-2" cx="2005.4" cy="671.04" r="13.44" transform="translate(1021.72 2543.02) rotate(-80.78)"/><circle class="cls-2" cx="1934.03" cy="671.05" r="13.44" transform="translate(961.77 2472.57) rotate(-80.78)"/><circle class="cls-2" cx="1933.95" cy="742.36" r="13.44"/><circle class="cls-2" cx="1933.95" cy="813.73" r="13.44"/><circle class="cls-2" cx="1933.95" cy="885.1" r="13.44"/><circle class="cls-2" cx="2005.32" cy="742.36" r="13.44"/><circle class="cls-2" cx="2005.32" cy="813.73" r="13.44"/><circle class="cls-2" cx="2005.32" cy="885.1" r="13.44"/><circle class="cls-2" cx="2076.69" cy="742.36" r="13.44"/><circle class="cls-2" cx="2076.69" cy="813.73" r="13.44"/><circle class="cls-2" cx="2076.69" cy="885.1" r="13.44"/><circle class="cls-2" cx="2148.05" cy="742.36" r="13.44"/><circle class="cls-2" cx="2148.05" cy="813.73" r="13.44"/><circle class="cls-2" cx="2148.05" cy="885.1" r="13.44"/><circle class="cls-2" cx="2219.42" cy="742.36" r="13.44"/><circle class="cls-2" cx="2219.42" cy="813.73" r="13.44"/><circle class="cls-2" cx="2219.42" cy="885.1" r="13.44"/><circle class="cls-2" cx="1933.95" cy="956.47" r="13.44"/><circle class="cls-2" cx="2005.32" cy="956.47" r="13.44"/><circle class="cls-2" cx="2076.69" cy="956.47" r="13.44"/><circle class="cls-2" cx="2148.05" cy="956.47" r="13.44"/><circle class="cls-2" cx="2219.42" cy="956.47" r="13.44"/><circle class="cls-2" cx="1341.91" cy="2169.42" r="13.44"/><circle class="cls-2" cx="1413.28" cy="2169.42" r="13.44"/><circle class="cls-2" cx="1484.65" cy="2169.42" r="13.44"/><circle class="cls-2" cx="1556.01" cy="2169.42" r="13.44"/><circle class="cls-2" cx="1627.38" cy="2169.42" r="13.44"/><circle class="cls-2" cx="1627.38" cy="2098.05" r="13.44"/><circle class="cls-2" cx="1627.38" cy="2026.69" r="13.44"/><circle class="cls-2" cx="1627.38" cy="1955.32" r="13.44"/><circle class="cls-2" cx="1556.01" cy="2098.05" r="13.44"/><circle class="cls-2" cx="1556.01" cy="2026.69" r="13.44"/><circle class="cls-2" cx="1556.01" cy="1955.32" r="13.44"/><circle class="cls-2" cx="1484.65" cy="2098.05" r="13.44"/><circle class="cls-2" cx="1484.65" cy="2026.69" r="13.44"/><circle class="cls-2" cx="1413.28" cy="2098.05" r="13.44"/><circle class="cls-2" cx="1627.38" cy="1883.95" r="13.44"/><path class="cls-2" d="M836.67,1529.87a15.94,15.94,0,1,1,15.94-15.94h0A16,16,0,0,1,836.67,1529.87Zm0-26.87a10.94,10.94,0,1,0,10.94,10.94h0A10.94,10.94,0,0,0,836.67,1503Z"/><path class="cls-2" d="M1920.52,2180a15.94,15.94,0,1,1,15.93-15.95h0A16,16,0,0,1,1920.52,2180Zm0-26.87a10.94,10.94,0,1,0,10.93,10.95v0a11,11,0,0,0-10.93-10.94Z"/><path class="cls-2" d="M1557.26,430.69a15.94,15.94,0,1,1,15.94-15.94h0A15.94,15.94,0,0,1,1557.26,430.69Zm0-26.87a10.94,10.94,0,1,0,10.94,10.94h0A11,11,0,0,0,1557.26,403.82Z"/><path class="cls-2" d="M1195.8,597.09a15.94,15.94,0,1,1,15.94-15.94h0A16,16,0,0,1,1195.8,597.09Zm0-26.87a10.94,10.94,0,1,0,10.94,10.94h0a11,11,0,0,0-10.94-10.94Z"/><path class="cls-2" d="M788.43,955.46a15.94,15.94,0,1,1,15.94-15.94A15.94,15.94,0,0,1,788.43,955.46Zm0-26.87a10.94,10.94,0,1,0,10.94,10.94h0A10.94,10.94,0,0,0,788.43,928.59Z"/><path class="cls-2" d="M2402.09,524.47a15.94,15.94,0,1,1,15.91-16v0A16,16,0,0,1,2402.09,524.47Zm0-26.87a10.94,10.94,0,1,0,10.91,11v0a10.94,10.94,0,0,0-10.91-10.93Z"/><path class="cls-2" d="M2612.92,955.46a15.94,15.94,0,1,1,15.94-15.94h0A16,16,0,0,1,2612.92,955.46Zm0-26.87a10.94,10.94,0,1,0,10.94,10.94h0A10.94,10.94,0,0,0,2612.92,928.59Z"/><path class="cls-2" d="M1751.66,663.77c68.21,0,129.22,55.32,136.31,123.53L2002.48,1889c7.09,68.21-42.42,123.47-110.63,123.47H1135.39c-68.21,0-129.27-55.26-136.36-123.47L884.51,787.3C877.42,719.09,927,663.77,995.2,663.77Z"/><path class="cls-3" d="M1837.73,718l125,1202.39H1180.16L1055.17,718h101.32l2.82,27.11h592.21L1748.7,718Z"/><path class="cls-4" d="M1825.19,663.77c68.21,0,129.21,55.32,136.3,123.53L2076,1889c7.09,68.21-42.42,123.47-110.63,123.47H1208.91c-68.21,0-129.27-55.26-136.36-123.47L958,787.3c-7.09-68.21,42.47-123.53,110.68-123.53Z"/><path class="cls-5" d="M1837.73,718l125,1202.39H1281.16a112,112,0,0,1-111.44-100.46L1055.17,718Z"/><path class="cls-6" d="M1430,630.79h27a47.47,47.47,0,0,1-13.3,1.81A52,52,0,0,1,1430,630.79Z"/><path class="cls-7" d="M1726.78,663.77c-15.82-20-38.59-33-62.5-33H1496.41c10.95-13.15,16.52-30.73,14.56-49.63-4.17-40-40.14-72.63-80.18-72.63s-69.18,32.58-65,72.63c2,18.91,11.18,36.48,24.85,49.63H1222.77c-23.9,0-44,13-55.64,33-8.7,14.71-12.83,33.23-10.74,53.32l.1.91,2.82,27.11h592.21L1748.7,718l-.1-.91A102.75,102.75,0,0,0,1726.78,663.77ZM1435.19,550.9c16.69,0,31.67,13.57,33.41,30.26,1.41,13.62-6.51,25.62-19.47,29.24a30,30,0,0,1-15.51,0l-.2-.06c-13.47-3.55-23.87-15.55-25.28-29.18C1406.4,564.47,1418.54,550.9,1435.19,550.9Z"/><polygon class="cls-5" points="1736.36 1131.99 1227.84 1131.99 1205.27 914.91 1713.8 914.91 1736.36 1131.99"/><path d="M1739.13,1134.49H1225.58L1202.5,912.41h513.55Zm-509-5h503.5l-22-212.08H1208Z"/><path d="M1688,984.2H1387.7a8.25,8.25,0,0,1-8-7.26h0a6.39,6.39,0,0,1,6.5-7.26h300.28a8.26,8.26,0,0,1,8,7.26h0a6.43,6.43,0,0,1-5.55,7.21A5.8,5.8,0,0,1,1688,984.2Z"/><path d="M1691.3,1016.14H1391a8.25,8.25,0,0,1-8-7.26h0a6.39,6.39,0,0,1,6.5-7.26h300.28a8.26,8.26,0,0,1,8,7.26h0a6.43,6.43,0,0,1-5.55,7.21A5.8,5.8,0,0,1,1691.3,1016.14Z"/><path d="M1694.62,1048.08H1394.34a8.25,8.25,0,0,1-8-7.26h0a6.39,6.39,0,0,1,6.5-7.26h300.28a8.26,8.26,0,0,1,8,7.26h0a6.43,6.43,0,0,1-5.54,7.21A6.18,6.18,0,0,1,1694.62,1048.08Z"/><path d="M1697.94,1080H1397.66a8.25,8.25,0,0,1-8-7.26h0a6.39,6.39,0,0,1,6.5-7.26h300.28a8.26,8.26,0,0,1,8,7.26h0a6.43,6.43,0,0,1-5.54,7.21A6.18,6.18,0,0,1,1697.94,1080Z"/><polygon class="cls-8" points="1364.93 1007.46 1316.98 1007.46 1311.99 959.51 1280.03 959.51 1285.01 1007.46 1237.06 1007.46 1240.38 1039.43 1288.33 1039.43 1293.32 1087.38 1325.29 1087.38 1320.3 1039.43 1368.25 1039.43 1364.93 1007.46"/><path d="M1825,1226.52H1331.09c-6.92,0-13.13-5.73-13.87-12.8l-.12-1.2c-.74-7.07,4.27-12.8,11.19-12.8h493.88c6.92,0,13.13,5.73,13.87,12.8l.12,1.2C1836.9,1220.79,1831.89,1226.52,1825,1226.52Z"/><path d="M1751.41,1285.47H1336.23a13.24,13.24,0,0,1-12.74-11.76l-.34-3.28c-.68-6.49,3.92-11.76,10.28-11.76h415.18a13.24,13.24,0,0,1,12.74,11.76l.34,3.28C1762.37,1280.2,1757.76,1285.47,1751.41,1285.47Z"/><path d="M1250,1286.63h-58.33a22.13,22.13,0,0,1-21.63-19.8l-6.22-59.57a19.58,19.58,0,0,1,4.78-15.18,18.74,18.74,0,0,1,14.12-6.19H1241a22.14,22.14,0,0,1,21.64,19.81l6.22,59.57a19.59,19.59,0,0,1-4.79,15.17A18.72,18.72,0,0,1,1250,1286.63Zm-67.28-85.74a3.93,3.93,0,0,0-3,1.23,4.59,4.59,0,0,0-1,3.58l6.23,59.57a7.25,7.25,0,0,0,6.71,6.36H1250a3.86,3.86,0,0,0,3-1.23,4.52,4.52,0,0,0,1-3.57l-6.22-59.57c-.36-3.39-3.5-6.37-6.72-6.37Z"/><polygon class="cls-9" points="1218.91 1265.62 1195.8 1242.44 1208.19 1230.08 1217.15 1239.06 1268.96 1171.1 1282.88 1181.71 1218.91 1265.62"/><path d="M1839.81,1369.31H1345.93c-6.92,0-13.12-5.73-13.86-12.8l-.13-1.2c-.74-7.07,4.28-12.79,11.19-12.79H1837c6.92,0,13.12,5.72,13.86,12.79l.13,1.2C1851.74,1363.58,1846.73,1369.31,1839.81,1369.31Z"/><path d="M1766.25,1428.26H1351.07a13.24,13.24,0,0,1-12.74-11.76l-.34-3.28c-.68-6.49,3.93-11.76,10.28-11.76h415.18a13.24,13.24,0,0,1,12.74,11.76l.34,3.28C1777.21,1423,1772.61,1428.26,1766.25,1428.26Z"/><path d="M1264.83,1429.43h-58.32a22.14,22.14,0,0,1-21.64-19.81l-6.22-59.57a19.65,19.65,0,0,1,4.78-15.18,18.74,18.74,0,0,1,14.12-6.19h58.33a22.14,22.14,0,0,1,21.64,19.81l6.22,59.57a19.62,19.62,0,0,1-4.78,15.18A18.78,18.78,0,0,1,1264.83,1429.43Zm-67.28-85.75a3.86,3.86,0,0,0-3,1.23,4.55,4.55,0,0,0-1,3.58l6.22,59.57c.35,3.39,3.49,6.37,6.72,6.37h58.32a3.86,3.86,0,0,0,3-1.23,4.55,4.55,0,0,0,1-3.58l-6.22-59.57c-.35-3.39-3.5-6.37-6.72-6.37Z"/><polygon class="cls-9" points="1233.75 1408.41 1210.64 1385.23 1223.04 1372.88 1231.99 1381.86 1283.81 1313.89 1297.72 1324.5 1233.75 1408.41"/><path d="M1855,1515H1361.08c-6.92,0-13.13-5.73-13.87-12.8l-.12-1.2c-.74-7.07,4.27-12.79,11.19-12.79h493.88c6.92,0,13.13,5.72,13.87,12.79l.12,1.2C1866.89,1509.28,1861.88,1515,1855,1515Z"/><path d="M1781.39,1574H1366.22a13.23,13.23,0,0,1-12.74-11.76l-.35-3.28c-.67-6.49,3.93-11.76,10.29-11.76H1778.6a13.25,13.25,0,0,1,12.74,11.76l.34,3.28A10.32,10.32,0,0,1,1781.39,1574Z"/><path d="M1280,1575.13h-58.33a22.14,22.14,0,0,1-21.64-19.81l-6.22-59.57a19.62,19.62,0,0,1,4.79-15.18,18.74,18.74,0,0,1,14.12-6.19H1271a22.14,22.14,0,0,1,21.64,19.81l6.22,59.57a19.58,19.58,0,0,1-4.78,15.18A18.74,18.74,0,0,1,1280,1575.13Zm-67.28-85.75a3.93,3.93,0,0,0-3,1.23,4.55,4.55,0,0,0-1,3.58l6.22,59.57c.36,3.39,3.5,6.37,6.72,6.37H1280a3.93,3.93,0,0,0,3-1.23,4.59,4.59,0,0,0,1-3.58l-6.22-59.57c-.35-3.39-3.49-6.37-6.72-6.37Z"/><path d="M1869.82,1658H1375.94c-6.92,0-13.13-5.73-13.86-12.79l-.13-1.2c-.74-7.07,4.27-12.8,11.19-12.8H1867c6.92,0,13.13,5.73,13.87,12.8l.12,1.2C1881.75,1652.26,1876.74,1658,1869.82,1658Z"/><path d="M1796.26,1716.94H1381.08a13.23,13.23,0,0,1-12.74-11.76l-.34-3.27c-.68-6.5,3.92-11.76,10.28-11.76h415.18a13.23,13.23,0,0,1,12.74,11.76l.34,3.27C1807.22,1711.68,1802.61,1716.94,1796.26,1716.94Z"/><path d="M1294.84,1718.11h-58.33a22.13,22.13,0,0,1-21.63-19.81l-6.22-59.57a19.54,19.54,0,0,1,4.78-15.17,18.74,18.74,0,0,1,14.12-6.19h58.33a22.14,22.14,0,0,1,21.64,19.8l6.22,59.57a19.62,19.62,0,0,1-4.79,15.18A18.74,18.74,0,0,1,1294.84,1718.11Zm-67.28-85.74a3.86,3.86,0,0,0-3,1.23,4.52,4.52,0,0,0-1,3.57l6.22,59.57c.35,3.4,3.49,6.37,6.71,6.37h58.33a4,4,0,0,0,3-1.23,4.55,4.55,0,0,0,1-3.58l-6.22-59.57c-.36-3.39-3.5-6.36-6.72-6.36Z"/><path class="cls-10" d="M1291.5,1922c35.09,0,60.56-33.64,56.87-75.14H2170c3.68,41.5-21.79,75.14-56.88,75.14Z"/><g class="cls-11"><path class="cls-12" d="M2097.52,2355.42c.87.42,20.6,10.55,13.77,31.62h-45.75a27.61,27.61,0,0,1,13.4-20.52C2086.22,2362.22,2092.22,2358.64,2097.52,2355.42Z"/><path class="cls-12" d="M2302,2325.72V2358c-41.93-.52-37.33-37.72-37.33-37.72,16.78-1.08,26.8-2.5,28.58-2.78a1.5,1.5,0,0,0,.3,0h.15A8.28,8.28,0,0,1,2302,2325.72Z"/><path class="cls-13" d="M2146.77,2324.44c3.4-2.15,7.05-4.47,11.07-7,0,0,4.73.65,13,1.45,12,1.15,31.65,2.55,55.1,2.55,2.07,0,4.12,0,6.1-.05,12.67-.1,23.62-.55,32.62-1.12,0,0-4.6,37.2,37.33,37.72v29h-190.7c6.83-21.07-12.9-31.2-13.77-31.62,11.12-6.78,19.35-12,30.6-19.13C2133.44,2332.87,2139.47,2329,2146.77,2324.44Z"/><path class="cls-14" d="M2609.57,2293.77v23.67a1.5,1.5,0,0,0-.3,0c-3.23.35-32.38,3.5-61.2,3.9-2,0-4,0-6.1,0-24.68,0-45.1-1.55-56.93-2.72-6.85-.73-10.67-1.28-10.67-1.28v-23.67h135.2Z"/><path class="cls-15" d="M2617.62,2280.74l-19.2-633.32-2.38.07a76.26,76.26,0,0,1-15.22-1.5,78,78,0,0,1-62.73-76.45H2378L2407.7,1819l55,461.78,1.55,13H2618Z"/><path class="cls-14" d="M2293.52,2293.77v23.67a1.5,1.5,0,0,0-.3,0c-3.23.35-32.38,3.5-61.2,3.9-2,0-4,0-6.1,0-23.45,0-43.05-1.4-55.1-2.55-8-.8-12.5-1.45-12.5-1.45v-23.67h135.2Z"/><path class="cls-15" d="M2378,1569.54h-56.4c0,36.15-22.8,66.55-63.23,75.38a117.36,117.36,0,0,1-25,2.57l-83.5,633.25-1.72,13H2304.9l2.82-13,100-461.75Z"/><path class="cls-16" d="M2303,2387v1.05a10.51,10.51,0,0,1-10.55,10.48H2072.6a8.26,8.26,0,0,1-5.88-2.43,8.12,8.12,0,0,1-2.45-5.82,29.92,29.92,0,0,1,.2-3.28Z"/><polygon class="cls-16" points="2378.02 1569.54 2387.61 1911.88 2407.72 1818.99 2378.02 1569.54"/><path class="cls-16" d="M2596,1569.54l2.38,77.88-2.38.07a76.26,76.26,0,0,1-15.22-1.5,78,78,0,0,1-62.73-76.45Z"/><path class="cls-16" d="M2243.67,1569.54h77.95c0,36.15-22.8,66.55-63.23,75.38a117.36,117.36,0,0,1-25,2.57Z"/><path class="cls-13" d="M2612.13,2317.44l14.18,49.07h-.52c-9.15-15.12-27.12-11.09-48.19-11.09h-71.33c-21.1,0-39.78-4-48.93,11.09h0l13.83-49.07Z"/><path class="cls-12" d="M2632.06,2388.51v3.43h-181v-3.43a42.39,42.39,0,0,1,6.25-22h0c9.15-15.12,29.71-11.09,50.81-11.09h71.32c21.08,0,37.17-4,46.32,11.09A41.92,41.92,0,0,1,2632.06,2388.51Z"/><rect class="cls-16" x="2449.72" y="2387.04" width="183.69" height="11.52"/><path class="cls-5" d="M2579.88,2326.32h-79a1.25,1.25,0,0,1,0-2.5h79a1.25,1.25,0,0,1,0,2.5Z"/><path class="cls-5" d="M2579.88,2333.85h-79a1.25,1.25,0,0,1,0-2.5h79a1.25,1.25,0,0,1,0,2.5Z"/><path class="cls-5" d="M2579.88,2341.37h-79a1.25,1.25,0,0,1,0-2.5h79a1.25,1.25,0,0,1,0,2.5Z"/><path class="cls-5" d="M2337.64,1143.74s-71.39,6.46-104.25,36.6l30.09,24.28Z"/><path class="cls-5" d="M2636.73,1880.65c-71.83,11.19-134.83,17.53-189.21,20.68q-29,1.68-54.65,2.21c-142.51,3.2-210.77-16.35-210.77-16.35l40.44-349.3,8.5-169.8,3-59.65a201.83,201.83,0,0,1,1.58-25.3c.57-4.65,1.3-9.23,2.2-13.78,11.35-57.82,47.6-106.42,99.85-125.62a143.67,143.67,0,0,1,45.57-8.75c1.63-.08,3.28-.1,4.93-.1h63.32q6.12,0,12.05.47a142,142,0,0,1,30.85,5.88h0c62.5,19.23,104.32,79.88,110.85,149.28.1,1,.17,2,.25,2.92.42,5.1.62,10.25.65,15.43v.8l11,228.25Z"/><path class="cls-17" d="M2494.39,1203.58l-20.8,11.85,15.25,14.35-96,239.55-57.35-238.7,11.35-11.45-20-6.3c-9.9-27,10.8-69.15,10.8-69.15a143.68,143.68,0,0,1,45.58-8.75c1.62-.08,3.27-.1,4.92-.1h63.33c4.07,0,8.1.15,12.05.47a142,142,0,0,1,30.85,5.88h0C2505,1174.4,2494.39,1203.58,2494.39,1203.58Z"/><polygon class="cls-7" points="2379.49 1190.99 2411.73 1295.5 2453.15 1186.86 2442.16 1176.35 2420.69 1189.02 2397.16 1173.81 2379.49 1190.99"/><path class="cls-16" d="M2370.86,1135.89s-10.47,45.53,2.84,60.74l23.45-22.82s10.32,12,23.54,15.21a105.33,105.33,0,0,0,21.46-12.67l21.2,20.28s10-16.89,10.24-60.1C2473.59,1136.53,2405.08,1130,2370.86,1135.89Z"/><polygon class="cls-17" points="2392.87 1469.33 2392.87 1903.54 2401 1420.76 2392.87 1469.33"/><circle class="cls-18" cx="2514.86" cy="1278.61" r="21.55"/><path class="cls-16" d="M2502.23,1277.77a12.67,12.67,0,1,0,13.44-11.85h0A12.68,12.68,0,0,0,2502.23,1277.77Z"/><path d="M2323.6,1346.75q-1,0-1.95-.06l.31-5c13,.81,24.77-8.68,26.26-21.17l8.16-68.3a38.46,38.46,0,0,0-8.36-29.14,31.4,31.4,0,0,0-44.14-4.81c-.75.6-1.47,1.23-2.16,1.9a38.48,38.48,0,0,0-11.93,27.86l-.45,68.79c-.09,12.58,10.41,23.48,23.4,24.29l-.31,5c-15.85-1-28.19-13.87-28.09-29.31l.45-68.79a43.55,43.55,0,0,1,13.52-31.49,36.41,36.41,0,0,1,51.48,1c.73.76,1.42,1.54,2.08,2.36a43.5,43.5,0,0,1,9.47,32.93l-8.16,68.31C2351.43,1335.82,2338.62,1346.75,2323.6,1346.75Z"/><path class="cls-18" d="M2327.29,1349.77l-1.83-.11a4.46,4.46,0,0,1-4.17-4.74l.11-1.84a4.46,4.46,0,0,1,4.73-4.17l1.84.11a4.48,4.48,0,0,1,4.18,4.74l-.12,1.84a4.46,4.46,0,0,1-4.74,4.18Z"/><path class="cls-18" d="M2315.28,1334.38l1.84.11a4.48,4.48,0,0,1,4.2,4.73l-.11,1.85a4.47,4.47,0,0,1-4.73,4.19l-1.84-.11a4.48,4.48,0,0,1-4.2-4.74l.11-1.84A4.47,4.47,0,0,1,2315.28,1334.38Z"/><path d="M2518.72,1257.2l-5-.28,3.93-69.48a60.45,60.45,0,0,0-56-60.13l-66.11-5.25a60.8,60.8,0,0,0-65.41,55.81c0,.33-.05.66-.07,1l-1.9,30.22-5-.31,1.9-30.22a65.81,65.81,0,0,1,69.79-61.55l1.08.08,66.11,5.24a65.8,65.8,0,0,1,60.6,65.16v.16Z"/><path class="cls-14" d="M2462.84,1140.07s.85,26.4-35.27,26.4-40.53-24.1-40.53-24.1l-3-16.53-2.78-10.77-2.9-11.2v-.13l-10.55-40.67,105.8-9.28Z"/><path class="cls-14" d="M2479.6,1022.15c-1.77,49.2-32.67,94.69-81.87,92.92s-87.27-1.53-96.3-99.33c-4.53-49,43.09-87.65,92.29-85.88a89.14,89.14,0,0,1,85.88,92.28Z"/><path class="cls-7" d="M2420.94,897.4s-1.1-70.86-106.52-66c-97.11,4.51-101.77,225.62,72.79,143.32a65.15,65.15,0,0,1,48.46-3.17A56,56,0,0,1,2442,974c9.39,4.59,8,30.78,8,30.78s12.47-9.86,16.1,7.26-12.39,19.73-12.39,19.73l10.52,44.57s16.72-27.17,28.15-74.54C2503.53,955.91,2465.83,883.37,2420.94,897.4Z"/><path class="cls-19" d="M2386.7,1138.09l-5.4-23s56.73,4.63,77.08-29.81C2458.38,1085.27,2458,1132.12,2386.7,1138.09Z"/><path class="cls-20" d="M1675.06,868.4l17.09,37.05,85.61,184.9s97.72,30.25,150-34.55-14.26-133.65-14.26-133.65l-198.64-44.86Z"/><polygon class="cls-21" points="1777.76 1090.35 2404.66 1596.36 2438.5 1554.23 1825.58 1059.51 1828.28 1084.78 1777.76 1090.35"/><polygon class="cls-21" points="1893.64 975.39 2506.56 1470.11 2540.42 1428.16 1913.52 922.15 1918.89 972.51 1893.64 975.39"/><polygon class="cls-3" points="1825.58 1059.51 2438.5 1554.23 2506.56 1470.11 1893.64 975.39 1868.37 978.09 1873.59 1028.64 1823.07 1034.21 1825.58 1059.51"/><path class="cls-22" d="M2570.76,1460.6a19.63,19.63,0,0,0-2.91-27.61l-.09-.07-3.63-2.93a19.78,19.78,0,0,0-27.79,3.1l-29.9,37-34.15,42.59-64.16,79.77a19.75,19.75,0,0,0,3.21,27.66L2415,1623a19.75,19.75,0,0,0,27.34-2.54,4.22,4.22,0,0,1,.76-1.23l63.49-78.94Z"/><path class="cls-23" d="M2606.34,1486.33c6-8,4.48-20.08-3.6-26.59l-3.76-3a19.6,19.6,0,0,0-27.55,3.07h0l-.67.83-64.16,79.77-63.91,79.75-.34.42a19.3,19.3,0,0,0,3.83,26.32l3.62,2.92a19.72,19.72,0,0,0,26.68-1.7,4.69,4.69,0,0,1,.87-1.37l128.32-159.54Z"/><path class="cls-22" d="M2633.21,1484.1a20,20,0,0,0-26.87,2.23,2.26,2.26,0,0,1-.53,1L2477.63,1647a5.18,5.18,0,0,1-1.15,1.14,19.57,19.57,0,0,0,4,26.43l3.62,2.92a19.71,19.71,0,0,0,27.55-3.06L2640.11,1515l.31-.67a20,20,0,0,0-3.41-27.12Z"/><path class="cls-24" d="M2708.29,1561.49l-64.2-51.82-3.71,4.59-.31.67-128.46,159.44-3.91,5.12,64.31,51.68c22.68,18.08,55.65,14.56,73.61-8l70.93-87.87a52.44,52.44,0,0,0-8.14-73.71Z"/><path d="M1675.06,868.4l17.09,37.05a41.27,41.27,0,0,0,22.73-28.16Z"/><path class="cls-19" d="M2309.24,1329l-19.81,6.71-12-35.41a10.46,10.46,0,0,1,6.51-13.28l.06,0h0a10.46,10.46,0,0,1,13.26,6.53h0Z"/><path class="cls-5" d="M2520.4,1327.55c-4.05,41.07-28.23,71.83-76.4,57.6s-125.43-60.4-125.43-60.4l-2.92,7.23-23.08,57-4.59,11.35C2390.4,1535,2583.45,1531.2,2614.9,1492s31.92-116.7-4.85-236.58c0,0-21.05-82.52-98.79-105.32,0,0,44.12,22.89,74.08,84.58S2520.4,1327.55,2520.4,1327.55Z"/><path class="cls-25" d="M2423.15,1377.83s76.56,2.83,100.92-72.27C2524.07,1305.56,2530.65,1423.68,2423.15,1377.83Z"/><path class="cls-25" d="M2288,1400.39s35.61,81.38,153.5,138.42S2614.9,1492,2614.9,1492h0s-44.2,42-151.86,16.48S2288,1400.39,2288,1400.39Z"/><path class="cls-14" d="M2223.37,1348.38l3,2.35a12.08,12.08,0,0,0,4.2,12.6l12.75,10a30.67,30.67,0,0,0,4.22,3.32l3.4,2.65a12,12,0,0,0,8.53,2.48l17.37,6.15a29.52,29.52,0,0,0,15.75,1.1l23.08-57a1,1,0,0,0-.2-.2L2249.23,1294a12,12,0,0,0-17.6,15.82,12,12,0,0,0-7.93,19.38,12.38,12.38,0,0,0-2.38,2.25A12.08,12.08,0,0,0,2223.37,1348.38Z"/><rect class="cls-19" x="2245.86" y="1299.93" width="5" height="38.62" transform="translate(-6.08 2628.06) rotate(-60.54)"/><rect class="cls-19" x="2237.6" y="1318.98" width="5" height="38.62" transform="translate(-26.86 2630.55) rotate(-60.54)"/><rect class="cls-19" x="2246.64" y="1351.95" width="5" height="40.03" transform="translate(-78.16 2606.71) rotate(-59.33)"/><path class="cls-14" d="M2044.78,1290h0a12.16,12.16,0,0,0-9.18-2.8l.19-.23a88.35,88.35,0,0,1-20-24.41,12.17,12.17,0,0,1-16.48-5,12,12,0,0,1-1-2.64l-2.27-2a9.22,9.22,0,0,0-13,1.06h0l-11.39,13.42a9.21,9.21,0,0,0,1,13l0,0,4.56,3.88a9.11,9.11,0,0,0,3,1.66,12.15,12.15,0,0,0,12.26,17.89,12.11,12.11,0,0,0,15.58,12.58,12.17,12.17,0,0,0,21.13,10.7l17-20A12.24,12.24,0,0,0,2044.78,1290Z"/><rect class="cls-19" x="2000.62" y="1301.09" width="40.55" height="2.53" transform="translate(-287.6 1973.93) rotate(-49.02)"/><rect class="cls-19" x="1984.62" y="1285.84" width="43.69" height="2.53" transform="matrix(0.62, -0.78, 0.78, 0.62, -250.69, 2053.78)"/><rect class="cls-19" x="1976.63" y="1272.66" width="30.74" height="2.53" transform="translate(-271 1959.33) rotate(-49.45)"/><path class="cls-5" d="M2035.13,1319.36s1.88,3.5,58.92,70.27,89.6,81.62,132.27,62.78l-180.14-145.19Z"/></g><text class="cls-26" transform="matrix(0.91, -0.01, -0.19, 0.98, 1302.65, 871.66)">LOGIN</text></svg>