<svg id="Layer_1" data-name="Layer 1" xmlns="http://www.w3.org/2000/svg" viewBox="0 0 2000 2000"><defs><style>.cls-1{fill:#2b2f5c;}.cls-2{fill:#0599af;}.cls-3{fill:#f0f2f4;}.cls-4{fill:#0499ae;}.cls-5{fill:#e7f1fa;}.cls-6{fill:#097085;}.cls-7{fill:#056e82;}.cls-8{fill:#3cc1b7;}.cls-9{fill:#91c2dc;}.cls-10{fill:#058192;}.cls-11{fill:#e5f1fa;}.cls-12{fill:#91c2dd;}.cls-13{fill:#02534d;}.cls-14{fill:#a9cce4;}</style></defs><title>logo</title><path class="cls-1" d="M1442.4,924.65l59.72-24.15c-17,30.17-35.65,61.44-56.23,93.51q-25.73,40.11-51.34,75.88A729.34,729.34,0,0,0,1278,917.49l66.78,11.92c-6.23-136.61-114.67-322.56-330.41-364.4-211.87-41.08-419.56,90.25-473.57,301.14-32.38,126.4-8.73,244.32,69.75,348.7,78.13,103.9,185,156.71,314.84,164.1l-44,43.32L928.57,1471a455.71,455.71,0,0,1-213.67-49.56C586.75,1356.78,498.73,1256.14,456,1119.1c-86.29-276.56,73.74-562.58,348-637.86C1128,392.31,1425.23,633.33,1442.4,924.65Z"/><path class="cls-2" d="M638.82,973.19c-2.76-29.83,16.93-51.93,47.72-52.37,35.79-.5,71.59-.12,107.39-.12,30.57,0,61.14.09,91.7-.14,4.63,0,10.29-.17,13.71-2.67,19.65-14.34,40.67-15.7,63-8.47l2.46,2c5.22,13.37,5.61,26.76,2.48,40.9C960.68,982.18,928,1003.5,898,998.18A351.48,351.48,0,0,0,842,992.6c-50.75-.74-101.52,0-152.28-.41C670.79,992,652,989.54,638.82,973.19Z"/><path class="cls-3" d="M996.2,1369.69c-21.4-31.37-20-77.13,5.82-105.11,26.66-28.94,55.38-56,83.29-83.77,1.3-1.29,3.52-1.65,5.31-2.43,23.38,34.32,50.05,65.7,82.18,92.23q0,1.11,0,2.22c-25.93,26-51.24,52.59-78,77.65-22.68,21.24-50.2,28.38-81,21.39C1008.08,1370.57,1002.08,1370.39,996.2,1369.69Z"/><path class="cls-4" d="M1303.92,1232.08c36.55.06,73.1,0,109.65.27,16.54.13,32.77,2.21,46.92,12,3.22,10.17,8.27,20.16,9.36,30.56,5.76,55-35.16,100.77-92.45,99.6-22.93-.47-45.88-.08-68.82-.08-.2-1.64-.41-3.28-.61-4.92.06-32.36.52-64.74,0-97.09C1307.72,1259,1305.32,1245.53,1303.92,1232.08Z"/><path class="cls-5" d="M1172.8,1270.61c-32.13-26.53-58.8-57.91-82.18-92.23,8.43-9.58,16.35-19.65,25.38-28.61,21-20.82,41.38-42.41,64-61.25,28-23.28,69.76-26.06,96.8-6.29,18.13,40.52,11.18,76.86-20.2,107.8-24.29,24-48.21,48.3-72.47,72.3C1180.89,1265.59,1176.62,1267.87,1172.8,1270.61Zm-36.14-116.31c1.89,10.67,5.83,14.13,14.86,10.8,28.44-10.49,47.3-31.39,61-57.38,2.39-4.56,1.08-11.07,1.48-16.68-6.37.42-14.3-1.42-18.84,1.69-13.76,9.42-27.19,19.79-38.82,31.69C1148.12,1132.78,1143.1,1144.23,1136.66,1154.3Z"/><path class="cls-6" d="M638.82,973.19c13.22,16.35,32,18.83,50.92,19,50.76.46,101.53-.33,152.28.41A351.48,351.48,0,0,1,898,998.18c30.07,5.32,62.72-16,69.34-45.86,3.13-14.14,2.74-27.53-2.48-40.9L989,929.89l7.5,12.46c8.38,25.57,6.14,49.2-13,69.63-20.42,21.82-53.43,25.5-79.72,9.83a41.6,41.6,0,0,0-20-5.71q-97.85-.61-195.68-.1C663.23,1016.17,639.91,998.52,638.82,973.19Z"/><path class="cls-7" d="M1308.58,1374.45c22.94,0,45.89-.39,68.82.08,57.29,1.17,98.21-44.58,92.45-99.6-1.09-10.4-6.14-20.39-9.36-30.56,30.9,15.67,50,52.22,45.53,87.27-4.76,37.55-33,69-68.82,76.4a103.44,103.44,0,0,1-20.27,2.34c-37.76.15-75.51,0-113.26-.11q1.33-17.61,2.66-35.21l-.43-.47.49.41A2.9,2.9,0,0,0,1308.58,1374.45Z"/><path class="cls-8" d="M989,929.89l-24.21-18.47-2.46-2q46.07-45.74,92.11-91.5c36.89-36.79,73.56-73.8,110.56-110.48,13.27-13.15,29.75-11,39.16,4.5-4.76,6.81-8.65,14.49-14.42,20.29Q1095,827.65,999.62,922.47C996.61,925.47,992.58,927.44,989,929.89Z"/><path class="cls-9" d="M1172.8,1270.61c3.82-2.74,8.09-5,11.38-8.28,24.26-24,48.18-48.34,72.47-72.3,31.38-30.94,38.33-67.28,20.2-107.8,24.56,10.62,37.37,30.85,43.17,55.58,7.56,32.24-1.16,60.41-24.54,84-1.92,1.94-3.15,4.55-4.7,6.85q-8.17,8.85-16.36,17.69c-1.81.69-4.09.9-5.35,2.15-13.27,13-26.2,26.35-39.62,39.18-4.79,4.57-10.68,8-16.06,12-4.11-2.35-8.39-4.46-12.3-7.11-9.51-6.43-18.85-13.11-28.26-19.69Q1172.77,1271.72,1172.8,1270.61Z"/><path class="cls-10" d="M1172.83,1272.83c9.41,6.58,18.75,13.26,28.26,19.69,3.91,2.65,8.19,4.76,12.3,7.11-1.6,3-2.64,6.56-4.91,9-8.22,8.72-17,16.93-25.29,25.58-13.49,14-26.78,28.31-40.16,42.48l-11.6,12.12c-15.67,6.74-30.78,15.9-47.13,19.7-33.81,7.88-69.75-9.17-88.1-38.78,5.88.7,11.88.88,17.63,2.18,30.79,7,58.31-.15,81-21.39C1121.59,1325.42,1146.9,1298.78,1172.83,1272.83Z"/><path class="cls-11" d="M1274.43,1246.35l16.35-17.69.45,3.11c-.17.35-.35.7-.53,1l.57-1,12.65.28c1.4,13.45,3.8,26.88,4,40.36.54,32.35.08,64.73,0,97.09-.52,1.82-1,3.65-1.58,5.47l-.49-.41.43.47-101.95-.72c8.69-17.93,16.61-36.29,26.26-53.68C1244.58,1295.52,1259.77,1271.09,1274.43,1246.35Z"/><path class="cls-12" d="M1204.38,1374.34l101.95.72q-1.33,17.61-2.66,35.21c-41.09.08-82.22,1.2-123.25-.21-18.12-.63-36.42-5.59-49-21.29l11.6-12.12Z"/><path class="cls-13" d="M989,929.89c3.55-2.45,7.58-4.42,10.59-7.42q95.25-95,190.15-190.24c5.77-5.8,9.66-13.48,14.42-20.29,4.31,10.53,3.86,20.11-4.74,28.68q-99.67,99.3-199.21,198.7a45.22,45.22,0,0,1-3.71,3Z"/><path class="cls-12" d="M1306.39,1375c.53-1.82,1.06-3.65,1.58-5.47.2,1.64.41,3.28.61,4.92A2.9,2.9,0,0,1,1306.39,1375Z"/><path class="cls-14" d="M1204.38,1374.34l-61.35,2.31c13.38-14.17,26.67-28.43,40.16-42.48,8.31-8.65,17.07-16.86,25.29-25.58,2.27-2.4,3.31-5.94,4.91-9,5.38-4,11.27-7.38,16.06-12,13.42-12.83,26.35-26.18,39.62-39.18,1.26-1.25,3.54-1.46,5.35-2.15-14.65,24.74-29.84,49.17-43.78,74.31C1221,1338.05,1213.07,1356.41,1204.38,1374.34Z"/></svg>