<svg id="Layer_1" data-name="Layer 1" xmlns="http://www.w3.org/2000/svg" viewBox="0 0 2000 2000"><defs><style>.cls-1{fill:#2b2f5c;}.cls-2{fill:#0599af;}.cls-3{fill:#f0f2f4;}.cls-4{fill:#0499ae;}.cls-5{fill:#e7f1fa;}.cls-6{fill:#097085;}.cls-7{fill:#056e82;}.cls-8{fill:#3cc1b7;}.cls-9{fill:#91c2dc;}.cls-10{fill:#058192;}.cls-11{fill:#e5f1fa;}.cls-12{fill:#91c2dd;}.cls-13{fill:#02534d;}.cls-14{fill:#a9cce4;}.cls-15{fill:#1c5569;}.cls-16{fill:#fff;}.cls-17{fill:#13375b;}.cls-18{fill:#50bfa5;}.cls-19{fill:#db4531;}.cls-20{fill:#bbbdbf;}.cls-21{isolation:isolate;font-size:37.41px;font-family:ArialMT, Arial;}.cls-22{letter-spacing:-0.07em;}</style></defs><title>REGISTRATION SUCCESS</title><path class="cls-1" d="M1424.83,792.19,1484.55,768c-17,30.17-35.65,61.44-56.23,93.51q-25.74,40.11-51.34,75.88A729.51,729.51,0,0,0,1260.43,785L1327.21,797C1321,660.34,1212.54,474.39,996.8,432.55,784.93,391.47,577.24,522.8,523.23,733.69,490.85,860.09,514.5,978,593,1082.39c78.13,103.9,185,156.71,314.84,164.1l-44,43.32L911,1338.54A455.71,455.71,0,0,1,697.33,1289c-128.15-64.66-216.17-165.3-258.9-302.34-86.29-276.56,73.74-562.58,348-637.86C1110.43,259.85,1407.66,500.87,1424.83,792.19Z"/><path class="cls-2" d="M621.25,840.73c-2.76-29.83,16.93-51.93,47.72-52.37,35.79-.5,71.59-.12,107.39-.12,30.57,0,61.14.09,91.7-.14,4.63,0,10.29-.17,13.71-2.67,19.65-14.34,40.67-15.7,63-8.47l2.46,2c5.22,13.37,5.61,26.76,2.48,40.9-6.6,29.86-39.28,51.18-69.28,45.86a352,352,0,0,0-56-5.58c-50.75-.74-101.52,0-152.28-.41C653.22,859.54,634.43,857.08,621.25,840.73Z"/><path class="cls-3" d="M978.63,1237.23c-21.4-31.37-20-77.13,5.82-105.11,26.66-28.94,55.38-56,83.29-83.77,1.3-1.29,3.52-1.65,5.31-2.43,23.38,34.32,50,65.7,82.18,92.23v2.22c-25.93,26-51.24,52.59-78,77.65-22.68,21.24-50.2,28.38-81,21.39C990.51,1238.11,984.51,1237.93,978.63,1237.23Z"/><path class="cls-4" d="M1286.35,1099.62c36.55.06,73.1,0,109.65.27,16.54.13,32.77,2.21,46.92,12,3.22,10.17,8.27,20.16,9.36,30.56,5.76,55-35.16,100.77-92.45,99.6-22.93-.47-45.88-.08-68.82-.08-.2-1.64-.41-3.28-.61-4.92.06-32.36.52-64.74,0-97.09C1290.15,1126.54,1287.75,1113.07,1286.35,1099.62Z"/><path class="cls-5" d="M1155.23,1138.15c-32.13-26.53-58.8-57.91-82.18-92.23,8.43-9.58,16.35-19.65,25.38-28.61,21-20.82,41.38-42.41,64-61.25,28-23.28,69.76-26.06,96.8-6.29,18.13,40.52,11.18,76.86-20.2,107.8-24.29,24-48.21,48.3-72.47,72.3C1163.32,1133.13,1159.05,1135.41,1155.23,1138.15Zm-36.14-116.31c1.89,10.67,5.83,14.13,14.86,10.8,28.44-10.49,47.3-31.39,61-57.38,2.39-4.56,1.08-11.07,1.48-16.68-6.37.42-14.3-1.42-18.84,1.69-13.76,9.42-27.19,19.79-38.82,31.69C1130.55,1000.32,1125.53,1011.77,1119.09,1021.84Z"/><path class="cls-6" d="M621.25,840.73c13.22,16.35,32,18.83,50.92,19,50.76.46,101.53-.33,152.28.41a351.63,351.63,0,0,1,56,5.58c30.07,5.32,62.72-16,69.34-45.86,3.13-14.14,2.74-27.53-2.48-40.9l24.14,18.47,7.5,12.46c8.38,25.57,6.14,49.2-13,69.63-20.42,21.82-53.43,25.5-79.72,9.83a41.59,41.59,0,0,0-20-5.71q-97.86-.61-195.68-.1C645.66,883.71,622.34,866.06,621.25,840.73Z"/><path class="cls-7" d="M1291,1242c22.94,0,45.89-.39,68.82.08,57.29,1.17,98.21-44.58,92.45-99.6-1.09-10.4-6.14-20.39-9.36-30.56,30.9,15.67,50,52.22,45.53,87.27-4.76,37.55-33,69-68.82,76.4a103.27,103.27,0,0,1-20.27,2.34c-37.76.15-75.51,0-113.26-.11q1.32-17.61,2.66-35.21l-.43-.47.49.41A2.92,2.92,0,0,0,1291,1242Z"/><path class="cls-8" d="M971.43,797.43,947.22,779l-2.46-2q46.07-45.74,92.11-91.5c36.89-36.79,73.56-73.8,110.56-110.48,13.27-13.15,29.75-11,39.16,4.5-4.76,6.81-8.65,14.49-14.42,20.29Q1077.43,695.19,982.05,790C979,793,975,795,971.43,797.43Z"/><path class="cls-9" d="M1155.23,1138.15c3.82-2.74,8.09-5,11.38-8.28,24.26-24,48.18-48.34,72.47-72.3,31.38-30.94,38.33-67.28,20.2-107.8,24.56,10.62,37.37,30.85,43.17,55.58,7.56,32.24-1.16,60.41-24.54,84-1.92,1.94-3.15,4.55-4.7,6.85q-8.18,8.85-16.36,17.69c-1.81.69-4.09.9-5.35,2.15-13.27,13-26.2,26.35-39.62,39.18-4.79,4.57-10.68,8-16.06,12-4.11-2.35-8.39-4.46-12.3-7.11-9.51-6.43-18.85-13.11-28.26-19.69C1155.22,1139.65,1155.21,1138.89,1155.23,1138.15Z"/><path class="cls-10" d="M1155.26,1140.37c9.41,6.58,18.75,13.26,28.26,19.69,3.91,2.65,8.19,4.76,12.3,7.11-1.6,3-2.64,6.56-4.91,9-8.22,8.72-17,16.93-25.29,25.58-13.49,14-26.78,28.31-40.16,42.48l-11.6,12.12c-15.67,6.74-30.78,15.9-47.13,19.7-33.81,7.88-69.75-9.17-88.1-38.78,5.88.7,11.88.88,17.63,2.18,30.79,7,58.31-.15,81-21.39C1104,1193,1129.33,1166.32,1155.26,1140.37Z"/><path class="cls-11" d="M1256.86,1113.89l16.35-17.69.45,3.11c-.17.35-.35.7-.53,1l.57-1,12.65.28c1.4,13.45,3.8,26.88,4,40.36.54,32.35.08,64.73,0,97.09-.52,1.82-1,3.65-1.58,5.47l-.49-.41.43.47-102-.72c8.69-17.93,16.61-36.29,26.26-53.68C1227,1163.06,1242.2,1138.63,1256.86,1113.89Z"/><path class="cls-12" d="M1186.81,1241.88l102,.72q-1.34,17.61-2.66,35.21c-41.09.08-82.22,1.2-123.25-.21-18.12-.63-36.42-5.59-49-21.29l11.6-12.12Z"/><path class="cls-13" d="M971.43,797.43C975,795,979,793,982,790q95.25-95,190.15-190.24c5.77-5.8,9.66-13.48,14.42-20.29,4.31,10.53,3.86,20.11-4.74,28.68q-99.67,99.3-199.21,198.7a44.22,44.22,0,0,1-3.71,3Z"/><path class="cls-12" d="M1288.82,1242.54c.53-1.82,1.06-3.65,1.58-5.47.2,1.64.41,3.28.61,4.92A2.92,2.92,0,0,1,1288.82,1242.54Z"/><path class="cls-14" d="M1186.81,1241.88l-61.35,2.31c13.38-14.17,26.67-28.43,40.16-42.48,8.31-8.65,17.07-16.86,25.29-25.58,2.27-2.4,3.31-5.94,4.91-9,5.38-4,11.27-7.38,16.06-12,13.42-12.83,26.35-26.18,39.62-39.18,1.26-1.25,3.54-1.46,5.35-2.15-14.65,24.74-29.84,49.17-43.78,74.31C1203.43,1205.59,1195.5,1224,1186.81,1241.88Z"/><path class="cls-10" d="M1469,962.35c32.21,0,55.63,26.13,52.28,58.34l-54.09,520.36c-3.35,32.22-32.19,58.32-64.41,58.32H1045.45c-32.22,0-55.6-26.1-52.25-58.32l54.08-520.36c3.35-32.21,32.17-58.34,64.39-58.34Z"/><path class="cls-15" d="M1434.25,962.35c32.22,0,55.63,26.13,52.28,58.34l-54.1,520.36c-3.35,32.22-32.19,58.32-64.41,58.32H1010.73c-32.22,0-55.61-26.1-52.26-58.32l54.09-520.36c3.35-32.21,32.16-58.34,64.38-58.34Z"/><path class="cls-16" d="M1440.63,988l-54.1,520.47a52.9,52.9,0,0,1-52.64,47.45H1012L1071,988Z"/><path class="cls-17" d="M1113.11,987.53l0,.43-1.33,12.81h279.72l1.33-12.81,0-.43a41,41,0,0,0-5.08-25.18c-5.49-9.45-15-15.59-26.28-15.59h-79.29a38.38,38.38,0,0,0,11.74-23.44c2-18.92-11.79-34.31-30.7-34.31s-35.9,15.42-37.87,34.31a31.23,31.23,0,0,0,6.88,23.44h-79.29c-11.3,0-22,6.14-29.52,15.59A48.45,48.45,0,0,0,1113.11,987.53Zm160.81-64.2A16.33,16.33,0,0,1,1262,937.11l-.1,0a14.19,14.19,0,0,1-7.32,0,12.66,12.66,0,0,1-9.2-13.81A16.25,16.25,0,0,1,1261.14,909,12.64,12.64,0,0,1,1273.92,923.33Z"/><path d="M1128.49,1079.78h242.56l-10.9,104.9H1117.58Zm240,2.37H1130.57l-10.39,100.17H1358Z"/><path d="M1141.29,1113.67a3,3,0,0,1-2.62-3.41h0a3.92,3.92,0,0,1,3.78-3.43h141.83a3.44,3.44,0,0,1,.46,0,3,3,0,0,1,2.61,3.4h0a3.89,3.89,0,0,1-3.78,3.43H1141.73A2.2,2.2,0,0,1,1141.29,1113.67Z"/><path d="M1139.73,1128.75a3,3,0,0,1-2.61-3.4h0a3.9,3.9,0,0,1,3.77-3.43h141.83a3.44,3.44,0,0,1,.46,0,3,3,0,0,1,2.61,3.4h0a3.89,3.89,0,0,1-3.78,3.43H1140.18Z"/><path d="M1138.16,1143.84a3,3,0,0,1-2.62-3.4h0a3.89,3.89,0,0,1,3.78-3.43h141.83a2.4,2.4,0,0,1,.46,0,3,3,0,0,1,2.61,3.41h0a3.89,3.89,0,0,1-3.78,3.42H1138.61A2.26,2.26,0,0,1,1138.16,1143.84Z"/><path d="M1136.59,1158.92a3,3,0,0,1-2.62-3.41h0a3.9,3.9,0,0,1,3.78-3.43h141.83a3.55,3.55,0,0,1,.46,0,3,3,0,0,1,2.61,3.4h0a3.89,3.89,0,0,1-3.78,3.43H1137A3.39,3.39,0,0,1,1136.59,1158.92Z"/><polygon class="cls-18" points="1292.76 1139.78 1315.41 1139.78 1313.05 1162.43 1328.15 1162.43 1330.51 1139.78 1353.15 1139.78 1354.72 1124.68 1332.08 1124.68 1334.43 1102.03 1319.33 1102.03 1316.98 1124.68 1294.33 1124.68 1292.76 1139.78"/><path d="M1071.76,1222.1l0-.57a6.8,6.8,0,0,1,6.55-6h233.27a5.29,5.29,0,0,1,5.29,6l-.06.57a6.81,6.81,0,0,1-6.55,6.05H1077A5.29,5.29,0,0,1,1071.76,1222.1Z"/><path d="M1106.93,1250.43l.16-1.54a6.26,6.26,0,0,1,6-5.56h196.1a4.86,4.86,0,0,1,4.85,5.56l-.16,1.54a6.26,6.26,0,0,1-6,5.56h-196.1A4.87,4.87,0,0,1,1106.93,1250.43Z"/><path d="M1342,1253.61a9.23,9.23,0,0,1-2.27-7.16l2.94-28.14a10.46,10.46,0,0,1,10.22-9.35h27.53a8.83,8.83,0,0,1,6.67,2.92,9.29,9.29,0,0,1,2.26,7.17l-2.94,28.14a10.46,10.46,0,0,1-10.22,9.35h-27.55A8.81,8.81,0,0,1,1342,1253.61Zm10.86-37.57a3.44,3.44,0,0,0-3.17,3l-2.94,28.14a2.13,2.13,0,0,0,.47,1.68,1.83,1.83,0,0,0,1.42.58h27.56a3.43,3.43,0,0,0,3.17-3l2.94-28.14a2.16,2.16,0,0,0-.47-1.69,1.86,1.86,0,0,0-1.42-.58Z"/><polygon class="cls-19" points="1333.08 1206.98 1339.66 1201.97 1364.13 1234.07 1368.36 1229.83 1374.21 1235.66 1363.3 1246.61 1333.08 1206.98"/><path class="cls-20" d="M940.94,1556.64c-16.57,0-28.6-15.89-26.86-35.49h388.07c-1.74,19.6,10.29,35.49,26.86,35.49Z"/><text class="cls-21" transform="matrix(0.91, -0.01, -0.19, 0.98, 1125.68, 1054.44)">REGISTR<tspan class="cls-22" x="166.28" y="0">A</tspan><tspan x="188.46" y="0">TION</tspan></text></svg>