<svg id="Layer_1" data-name="Layer 1" xmlns="http://www.w3.org/2000/svg" viewBox="0 0 2000 2000"><defs><style>.cls-1{opacity:0.3;}.cls-2{fill:#c1924d;}.cls-3{fill:#f8f8f8;}.cls-4{fill:#fd5a39;}.cls-5{fill:#d1d1d1;}.cls-6{fill:#4a7f91;}.cls-7{opacity:0.2;}.cls-8{fill:#eabb7d;}.cls-9{fill:#e5e5e5;}.cls-10{fill:#af8043;}</style></defs><title>SET MEDICATION</title><path class="cls-1" d="M1524,506.55l-161.78-18.9,1.16-6.53a8.14,8.14,0,0,0-6.6-9.45L1250,452.58a40.8,40.8,0,0,0,1.82-6.39,42.34,42.34,0,0,0-83.36-14.91,41.37,41.37,0,0,0-.5,6.63l-106.73-19.09a8.14,8.14,0,0,0-9.47,6.58l-4.55,25.44L831,425.57a9.23,9.23,0,0,0-10.25,8.09L716.15,1328.57a9.24,9.24,0,0,0,8.1,10.27L1239.3,1399l-16,28.22a8.44,8.44,0,0,0,3.17,11.5l16.48,9.38a8.43,8.43,0,0,0,11.48-3.17l23.54-41.42,139.32,16.28a9.24,9.24,0,0,0,10.26-8.12l38.35-328.16,26.22-46.14a8.41,8.41,0,0,0-3.16-11.47l-15.32-8.7,58.49-500.44A9.23,9.23,0,0,0,1524,506.55Zm-334-72.92a20.79,20.79,0,1,1,16.81,24.14A20.8,20.8,0,0,1,1190,433.63Z"/><path class="cls-2" d="M1409.56,1393.76a9.24,9.24,0,0,1-10.26,8.13l-693-81a9.24,9.24,0,0,1-8.11-10.27L802.8,415.73a9.22,9.22,0,0,1,10.24-8.1l693,81a9.23,9.23,0,0,1,8.11,10.24Z"/><rect class="cls-3" x="704.28" y="602.11" width="803.8" height="605.29" transform="translate(79.13 1898.44) rotate(-83.33)"/><path class="cls-4" d="M1338.81,453.73l-106.72-19.08a41.43,41.43,0,0,0,1.82-6.39,42.34,42.34,0,0,0-83.36-14.91,41.16,41.16,0,0,0-.5,6.62l-106.72-19.09a8.16,8.16,0,0,0-9.48,6.58l-6.11,34.17a8.16,8.16,0,0,0,6.6,9.48L1329.83,504a8.15,8.15,0,0,0,9.47-6.61l6.12-34.16A8.15,8.15,0,0,0,1338.81,453.73Zm-150-13.89A20.79,20.79,0,1,1,1213,423,20.81,20.81,0,0,1,1188.84,439.84Z"/><path class="cls-4" d="M1182.81,612.31l-29.69-3.47,3.47-29.7a4.27,4.27,0,0,0-3.74-4.72l-21.2-2.48a4.29,4.29,0,0,0-4.75,3.74l-3.47,29.69-29.67-3.46a4.23,4.23,0,0,0-4.73,3.73l-2.48,21.19a4.26,4.26,0,0,0,3.74,4.72L1120,635l-3.47,29.7a4.27,4.27,0,0,0,3.75,4.75l21.2,2.48a4.28,4.28,0,0,0,4.73-3.76l3.48-29.7,29.68,3.47a4.26,4.26,0,0,0,4.73-3.73l2.48-21.2A4.25,4.25,0,0,0,1182.81,612.31Z"/><rect class="cls-5" x="1112.67" y="613.07" width="27.35" height="192.45" transform="translate(291.1 1745.7) rotate(-83.33)"/><rect class="cls-5" x="1102.39" y="565.51" width="27.35" height="509.26" transform="translate(171.92 1833.46) rotate(-83.33)"/><rect class="cls-5" x="1093.6" y="640.58" width="27.37" height="509.26" transform="translate(89.6 1891.11) rotate(-83.33)"/><rect class="cls-5" x="1084.84" y="715.65" width="27.34" height="509.26" transform="translate(7.28 1948.75) rotate(-83.33)"/><rect class="cls-5" x="1076.09" y="790.73" width="27.3" height="509.26" transform="translate(-75.04 2006.39) rotate(-83.33)"/><rect class="cls-5" x="1067.3" y="865.78" width="27.35" height="509.26" transform="translate(-157.33 2064.02) rotate(-83.33)"/><path class="cls-6" d="M1236.45,1427a8.45,8.45,0,0,1-11.49,3.16l-16.48-9.37a8.44,8.44,0,0,1-3.16-11.51l205.42-361.41a8.42,8.42,0,0,1,11.48-3.15l16.48,9.36a8.43,8.43,0,0,1,3.17,11.5Z"/><path class="cls-4" d="M1405.39,1140.43a8.43,8.43,0,0,1-11.49,3.18l-25.64-14.56a8.43,8.43,0,0,1-3.16-11.5l68.76-121a8.4,8.4,0,0,1,11.48-3.14L1471,1008a8.41,8.41,0,0,1,3.16,11.47Z"/><g class="cls-7"><path d="M1035.29,1082.36a20.6,20.6,0,0,1,1.87,29.1l-136.41,155a20.62,20.62,0,0,1-29.11,1.84L599,1028.34a20.59,20.59,0,0,1-24-2.3l-48.36-42.56a20.62,20.62,0,0,1-1.85-29.09l155.1-176.21A20.61,20.61,0,0,1,709,776.33l48.36,42.57a20.58,20.58,0,0,1,5.32,23.52Z"/><path d="M597,1469.32A26.32,26.32,0,0,1,570.7,1443v-7.69A26.32,26.32,0,0,1,597,1409h74.56a26.31,26.31,0,0,1,26.32,26.31V1443a26.31,26.31,0,0,1-26.32,26.31H597Z"/><path d="M716.07,1443v-74.59a26.32,26.32,0,0,1,26.32-26.32h7.67a26.33,26.33,0,0,1,26.33,26.32V1443a26.32,26.32,0,0,1-26.33,26.31h-7.67A26.31,26.31,0,0,1,716.07,1443Z"/><path d="M408.89,1448.36l31-20.77,31-20.77a26.32,26.32,0,0,1,36.52,7.19l4.28,6.38a26.31,26.31,0,0,1-7.2,36.52l-31,20.77-31,20.77a26.32,26.32,0,0,1-36.52-7.18l-4.28-6.39A26.32,26.32,0,0,1,408.89,1448.36Z"/><path d="M719.48,1582.53l-23.28,29.12a26.32,26.32,0,0,1-37,4.12l-6-4.79a26.31,26.31,0,0,1-4.13-37l23.27-29.12,23.3-29.15a26.33,26.33,0,0,1,37-4.11l6,4.79a26.33,26.33,0,0,1,4.13,37Z"/><path d="M597.5,1563.24H522.93a26.32,26.32,0,0,1-26.32-26.32v-7.68a26.32,26.32,0,0,1,26.32-26.32H597.5a26.32,26.32,0,0,1,26.32,26.32v7.68A26.32,26.32,0,0,1,597.5,1563.24Z"/><path d="M619.31,1341.52l-31,20.77a26.32,26.32,0,0,1-36.52-7.19l-4.29-6.38a26.33,26.33,0,0,1,7.2-36.52l31-20.77,30.95-20.77a26.32,26.32,0,0,1,36.52,7.19l4.29,6.38a26.32,26.32,0,0,1-7.2,36.52Z"/><path d="M833.33,1438a26.32,26.32,0,0,1,37-4.12l6,4.79a26.33,26.33,0,0,1,4.14,37l-23.3,29.14-23.28,29.12a26.32,26.32,0,0,1-37,4.12l-6-4.79a26.31,26.31,0,0,1-4.13-37L810,1467.15Z"/></g><path class="cls-8" d="M893.53,1246.4a20.61,20.61,0,0,0,29.1-1.84l136.41-155a20.6,20.6,0,0,0-1.87-29.1L729,771.64a20.61,20.61,0,0,0-29.08,1.86l-136.42,155a20.61,20.61,0,0,0,1.85,29.08Z"/><path class="cls-9" d="M596.92,1004.16a20.6,20.6,0,0,0,29.07-1.87l155.1-176.21A20.59,20.59,0,0,0,779.25,797l-48.36-42.57a20.61,20.61,0,0,0-29.08,1.85L546.71,932.51a20.63,20.63,0,0,0,1.85,29.09Z"/><path class="cls-5" d="M726.06,855.74a6.93,6.93,0,0,0,9.78-.62h0a6.92,6.92,0,0,0-.62-9.79l-46.69-41.11a7,7,0,0,0-9.82.62h0a6.94,6.94,0,0,0,.65,9.8Z"/><path class="cls-5" d="M755,822.87a6.94,6.94,0,0,0,9.79-.62h0a6.94,6.94,0,0,0-.62-9.8l-46.69-41.1a7,7,0,0,0-9.82.61h0a7,7,0,0,0,.64,9.81Z"/><path class="cls-5" d="M697.13,888.61a6.92,6.92,0,0,0,9.78-.62h0a6.93,6.93,0,0,0-.62-9.79l-46.7-41.1a7,7,0,0,0-9.81.6h0a6.94,6.94,0,0,0,.65,9.81Z"/><path class="cls-5" d="M668.19,921.49a6.93,6.93,0,0,0,9.78-.62h0a6.94,6.94,0,0,0-.61-9.8L630.66,870a7,7,0,0,0-9.82.61h0a7,7,0,0,0,.65,9.8Z"/><path class="cls-5" d="M639.25,954.36a6.94,6.94,0,0,0,9.79-.62h0a6.93,6.93,0,0,0-.62-9.79l-46.7-41.11a7,7,0,0,0-9.81.61h0a7,7,0,0,0,.64,9.81Z"/><path class="cls-5" d="M610.32,987.24a6.93,6.93,0,0,0,9.79-.63h0a6.94,6.94,0,0,0-.62-9.79l-46.7-41.11a7,7,0,0,0-9.81.61h0a6.93,6.93,0,0,0,.64,9.81Z"/><rect class="cls-10" x="674.37" y="947.92" width="203.91" height="60.68" transform="translate(-470.92 914.65) rotate(-48.65)"/><path class="cls-3" d="M693.47,1387.13a26.31,26.31,0,0,1,26.32,26.31v7.69a26.31,26.31,0,0,1-26.32,26.31H656.19v-60.31Z"/><path class="cls-4" d="M656.19,1447.44H618.91a26.32,26.32,0,0,1-26.33-26.31v-7.69a26.32,26.32,0,0,1,26.33-26.31h37.28Z"/><path class="cls-3" d="M798.27,1421.13a26.32,26.32,0,0,1-26.33,26.31h-7.67A26.31,26.31,0,0,1,738,1421.13v-37.28h60.32Z"/><path class="cls-4" d="M738,1383.85v-37.31a26.32,26.32,0,0,1,26.32-26.32h7.67a26.33,26.33,0,0,1,26.33,26.32v37.31Z"/><path class="cls-3" d="M492.69,1384.94a26.32,26.32,0,0,1,36.52,7.19l4.28,6.38A26.32,26.32,0,0,1,526.3,1435l-31,20.77-33.61-50.09Z"/><path class="cls-4" d="M495.34,1455.8l-31,20.77a26.32,26.32,0,0,1-36.52-7.18l-4.28-6.39a26.32,26.32,0,0,1,7.2-36.52l31-20.77Z"/><path class="cls-3" d="M718.09,1589.77a26.33,26.33,0,0,1-37,4.12l-6-4.79a26.31,26.31,0,0,1-4.13-37L694.24,1523l47.12,37.66Z"/><path class="cls-4" d="M694.24,1523l23.3-29.15a26.33,26.33,0,0,1,37-4.11l6,4.79a26.33,26.33,0,0,1,4.13,37l-23.3,29.14Z"/><path class="cls-3" d="M619.38,1481a26.32,26.32,0,0,1,26.32,26.32V1515a26.32,26.32,0,0,1-26.32,26.32H582.1V1481Z"/><path class="cls-4" d="M582.1,1541.36H544.81A26.32,26.32,0,0,1,518.49,1515v-7.68A26.32,26.32,0,0,1,544.81,1481H582.1Z"/><path class="cls-3" d="M638.55,1248.78a26.3,26.3,0,0,1,36.51,7.19l4.29,6.38a26.32,26.32,0,0,1-7.2,36.52l-31,20.77-33.6-50.09Z"/><path class="cls-4" d="M641.19,1319.64l-31,20.77a26.32,26.32,0,0,1-36.52-7.19l-4.29-6.38a26.33,26.33,0,0,1,7.2-36.52l31-20.77Z"/><path class="cls-3" d="M855.75,1512.05a26.32,26.32,0,0,1-37,4.12l-6-4.79a26.31,26.31,0,0,1-4.13-37l23.27-29.12L879,1482.93Z"/><path class="cls-4" d="M831.91,1445.27l23.3-29.15a26.33,26.33,0,0,1,37-4.12l6,4.79a26.34,26.34,0,0,1,4.13,37L879,1482.93Z"/></svg>