<svg width="27" height="27" viewBox="0 0 27 27" fill="none" xmlns="http://www.w3.org/2000/svg">
<path d="M18.7852 24.7455H5.7352C5.27439 24.7474 4.81788 24.6568 4.39273 24.479C3.96759 24.3012 3.58247 24.0399 3.2602 23.7105C2.93556 23.3835 2.67893 22.9954 2.50514 22.5687C2.33136 22.142 2.24386 21.685 2.2477 21.2242V8.1855C2.24195 7.72682 2.32977 7.27178 2.50579 6.84817C2.68181 6.42457 2.94233 6.04129 3.27145 5.72175C3.59168 5.39708 3.97438 5.14067 4.39645 4.968C4.82404 4.78919 5.28298 4.6974 5.74645 4.698H10.7415C10.9652 4.698 11.1798 4.7869 11.3381 4.94513C11.4963 5.10336 11.5852 5.31797 11.5852 5.54175C11.5852 5.76553 11.4963 5.98014 11.3381 6.13837C11.1798 6.29661 10.9652 6.3855 10.7415 6.3855H5.74645C5.50448 6.39208 5.26515 6.43767 5.0377 6.5205C4.70621 6.66042 4.42356 6.89534 4.22536 7.19564C4.02716 7.49594 3.92228 7.84819 3.92395 8.208V21.2467C3.92113 21.4885 3.96643 21.7283 4.05721 21.9524C4.14798 22.1764 4.28242 22.3802 4.4527 22.5518C4.62295 22.7207 4.82487 22.8543 5.04688 22.9451C5.26889 23.0358 5.50662 23.0818 5.74645 23.0805H18.7965C19.0361 23.0805 19.2723 23.0355 19.4939 22.9455C19.7145 22.8569 19.9139 22.7227 20.079 22.5518C20.2499 22.3867 20.3841 22.1873 20.4727 21.9667C20.5721 21.7439 20.622 21.502 20.6189 21.258V16.263C20.6189 16.0392 20.7078 15.8246 20.8661 15.6664C21.0243 15.5081 21.2389 15.4193 21.4627 15.4193C21.6865 15.4193 21.9011 15.5081 22.0593 15.6664C22.2176 15.8246 22.3064 16.0392 22.3064 16.263V21.2918C22.3084 21.7526 22.2178 22.2091 22.04 22.6342C21.8622 23.0594 21.6008 23.4445 21.2715 23.7668C20.9485 24.0909 20.5667 24.3506 20.1465 24.5318C19.7111 24.6893 19.2487 24.7624 18.7852 24.7455Z" fill="black"/>
<path d="M24.534 6.13797C24.4193 5.84831 24.2427 5.58721 24.0165 5.37297L21.5978 2.95422C21.3835 2.72803 21.1224 2.55141 20.8328 2.43672C20.3975 2.25332 19.9172 2.20459 19.454 2.29684C18.9908 2.38908 18.5658 2.61807 18.234 2.95422L16.3103 4.87797V4.93422L7.60275 13.6305C7.16315 14.0731 6.91645 14.6716 6.9165 15.2955V17.7367C6.91946 18.3654 7.1705 18.9674 7.61503 19.412C8.05955 19.8565 8.66161 20.1075 9.29025 20.1105H11.7315C12.0415 20.1109 12.3484 20.0494 12.6343 19.9296C12.9202 19.8098 13.1794 19.6342 13.3965 19.413L22.104 10.7055L24.039 8.77047C24.2663 8.55672 24.444 8.29572 24.5565 8.00547C24.6853 7.71695 24.7518 7.40455 24.7518 7.0886C24.7518 6.77265 24.6853 6.46025 24.5565 6.17172L24.534 6.13797ZM22.9815 7.31922C22.945 7.40422 22.8914 7.48081 22.824 7.54422L21.4515 8.91672L18.0765 5.54172L19.4603 4.15797C19.5931 4.02942 19.7704 3.95692 19.9553 3.95547C20.0444 3.95696 20.1323 3.97607 20.214 4.01172C20.301 4.04847 20.376 4.10097 20.439 4.16922L22.869 6.58797C22.9303 6.65405 22.9797 6.73016 23.0153 6.81297C23.0319 6.89842 23.0319 6.98628 23.0153 7.07172C23.0195 7.1556 23.0081 7.23954 22.9815 7.31922Z" fill="black"/>
</svg>
