<svg width="30" height="30" viewBox="0 0 30 30" fill="none" xmlns="http://www.w3.org/2000/svg">
<path fill-rule="evenodd" clip-rule="evenodd" d="M11.5092 18.8218C11.7926 18.8583 12.0572 18.8749 12.3047 18.8749C14.8803 18.8749 15.5938 17.0483 15.8783 16.32L15.8787 16.3191C16.4324 14.8979 16.8922 12.3319 17.0654 11.3463C17.2491 10.2509 17.0049 9.25347 16.3785 8.53733C15.8059 7.88314 14.9492 7.49935 13.9651 7.49935H11.1546C11.1546 7.49935 11.4024 6.51843 11.5891 5.79151C12.2054 3.39081 10.8359 2.5303 8.88572 2.63308L6.04006 7.9528L2.5 9.93696V17.2498L11.5092 18.8218ZM13.6216 21.4739C13.3503 21.1637 13.1506 20.8007 13.0265 20.3998C14.4375 20.297 15.4558 19.7341 16.1635 19.0107C16.8924 18.2658 17.2247 17.4141 17.3767 17.0242L17.3862 17C17.9946 15.4385 18.4771 12.7579 18.6564 11.7357L18.6593 11.7256L18.6718 11.6517C18.6953 11.5111 18.7136 11.3708 18.7265 11.2306L27.5001 12.7614V20.0743L23.9601 22.0584L21.1144 27.3782C19.1642 27.4809 17.7948 26.6204 18.411 24.2197C18.5567 23.6507 18.7016 23.0814 18.8455 22.5119H16.035C15.0509 22.5119 14.1941 22.1281 13.6216 21.4739Z" fill="black"/>
</svg>
