<svg width="26" height="26" viewBox="0 0 26 26" fill="none" xmlns="http://www.w3.org/2000/svg">
<path d="M2.16663 3.79169H23.8333H2.16663ZM2.16663 12.4584H8.12496H2.16663ZM2.16663 21.125H8.12496H2.16663Z" fill="#050505"/>
<path d="M2.16663 3.79169H23.8333M2.16663 12.4584H8.12496M2.16663 21.125H8.12496" stroke="#0C0C0C" stroke-width="2" stroke-linecap="round"/>
<path d="M17.0624 18.4167C18.2835 18.4167 19.4546 17.9316 20.3181 17.0682C21.1815 16.2047 21.6666 15.0336 21.6666 13.8125C21.6666 12.5914 21.1815 11.4204 20.3181 10.5569C19.4546 9.69345 18.2835 9.20837 17.0624 9.20837C15.8413 9.20837 14.6702 9.69345 13.8068 10.5569C12.9433 11.4204 12.4583 12.5914 12.4583 13.8125C12.4583 15.0336 12.9433 16.2047 13.8068 17.0682C14.6702 17.9316 15.8413 18.4167 17.0624 18.4167Z" fill="#050505" stroke="#0C0C0C" stroke-width="2"/>
<path d="M20.0416 17.3334L23.8333 21.1521L20.0416 17.3334Z" fill="#050505"/>
<path d="M20.0416 17.3334L23.8333 21.1521" stroke="#0C0C0C" stroke-width="2" stroke-linecap="round"/>
</svg>
