<?xml version="1.0" encoding="utf-8"?>
<!-- Generator: Adobe Illustrator 23.0.5, SVG Export Plug-In . SVG Version: 6.00 Build 0)  -->
<svg version="1.1" id="Layer_1" xmlns="http://www.w3.org/2000/svg" xmlns:xlink="http://www.w3.org/1999/xlink" x="0px" y="0px"
	 viewBox="0 0 30 30" style="enable-background:new 0 0 30 30;" xml:space="preserve">
<path d="M5,23.8V12.5c0-0.4,0.1-0.8,0.3-1.1C5.4,11,5.7,10.7,6,10.5l7.5-5.6c0.4-0.3,0.9-0.5,1.5-0.5s1.1,0.2,1.5,0.5l7.5,5.6
	c0.3,0.2,0.6,0.5,0.7,0.9s0.3,0.7,0.3,1.1v11.3c0,0.7-0.2,1.3-0.7,1.8s-1.1,0.7-1.8,0.7h-3.8c-0.4,0-0.7-0.1-0.9-0.4
	c-0.2-0.2-0.4-0.5-0.4-0.9v-6.3c0-0.4-0.1-0.7-0.4-0.9c-0.2-0.2-0.5-0.4-0.9-0.4h-2.5c-0.4,0-0.7,0.1-0.9,0.4
	c-0.2,0.2-0.4,0.5-0.4,0.9V25c0,0.4-0.1,0.7-0.4,0.9c-0.2,0.2-0.5,0.4-0.9,0.4H7.5c-0.7,0-1.3-0.2-1.8-0.7C5.2,25,5,24.4,5,23.8z"/>
</svg>
