<svg id="Layer_1" data-name="Layer 1" xmlns="http://www.w3.org/2000/svg" viewBox="0 0 2000 2000"><title>male profile</title><path d="M459,1360.7c3.76-16.24,7.26-32.53,11.32-48.69,9.75-38.8,31.36-63.23,71.91-76.53,92.91-30.5,179.76-75.35,264.34-124.33,23.64-13.69,34.73-35.36,37.08-62,.65-7.4.63-14.87,1.41-22.26,2.85-27,1.32-51.81-12.57-77.49-12.23-22.58-15.23-50.16-22.86-77.52-22.56,1.89-29.29-15.64-33.72-35.5-5.55-24.91-11.47-49.75-16.58-74.74-1.37-6.69-1.14-13.95-.34-20.79,2.52-21.59,11.1-27,33.44-20-8.69-29.92-2.82-61.45-19.61-89.33-24.93-41.37-22.28-81.15,9.93-119.37L759.34,533c-1.12-33.74,18-59.4,64.1-83.36h-29L793,445.87c14.3-13.07,30.54-23.83,49.25-29.64,18.38-5.7,37.51-9,56.63-14.77l-37.44-3.59c31.76-27.94,161.7-39.37,241.87,8.73l-18.37-17,.88-1.64c4.56,1.7,9,3.71,13.7,5,21.28,6.09,42.33,13.41,64,17.61,31.08,6,43.74,22.22,38.92,54-.31,2-.52,4.1,1.93,7.23l14-28.09c6.71,20.45,2.1,37.32-10,53.41l31.51,5.39.12,2.92-30.09,10c14.58,19.27,14,39.85,12.68,60.1-2.93,46.21-6.77,92.37-10.26,138.88,22.67,4.29,30.39,12.8,26.25,39-5.14,32.51-12.83,64.63-20.21,96.74-2.71,11.77-11.09,18.5-23.6,20.76-3.92.71-9.62,5.68-10.07,9.26-4.21,33-10.64,65.14-29.54,93.46-1,1.5-2,3.51-1.83,5.18,2.92,32.69,4.07,65.72,9.77,97.93,3.38,19.09,21.52,29.37,37.89,38.76,75.54,43.35,154.45,79.38,236.27,109.12,9.17,3.33,18.12,7.32,27.41,10.23,34.9,10.93,54.78,35.79,63.25,70,5.52,22.27,8.57,45.15,13.06,69.57H475.72c-5.57,0-11.14.13-16.72.2Z"/></svg>